SplineFontDB: 3.0
FontName: Tienne-Regular
FullName: Tienne
FamilyName: Tienne
Weight: Book
Copyright: Copyright (c) 2011 by vernon adams. All rights reserved. with\nReserved Font Names "Tienne" and "Tienne Regular". This\nFont Software is licensed under the SIL Open Font License, Version\n1.1. This license is available with a FAQ at:\nhttp://scripts.sil.org/OFL
Version: 1.000
ItalicAngle: 0
UnderlinePosition: -103
UnderlineWidth: 102
Ascent: 1638
Descent: 410
sfntRevision: 0x00010000
LayerCount: 2
Layer: 0 1 "Back"  1
Layer: 1 1 "Fore"  0
XUID: [1021 14 500265001 4310955]
FSType: 0
OS2Version: 3
OS2_WeightWidthSlopeOnly: 0
OS2_UseTypoMetrics: 1
CreationTime: 1311320069
ModificationTime: 1337811877
PfmFamily: 17
TTFWeight: 400
TTFWidth: 5
LineGap: 0
VLineGap: 0
Panose: 2 4 6 3 4 5 6 3 2 4
OS2TypoAscent: 392
OS2TypoAOffset: 1
OS2TypoDescent: -314
OS2TypoDOffset: 1
OS2TypoLinegap: 0
OS2WinAscent: 0
OS2WinAOffset: 1
OS2WinDescent: 0
OS2WinDOffset: 1
HheadAscent: 0
HheadAOffset: 1
HheadDescent: 0
HheadDOffset: 1
OS2SubXSize: 1331
OS2SubYSize: 1229
OS2SubXOff: 0
OS2SubYOff: 154
OS2SupXSize: 1331
OS2SupYSize: 1229
OS2SupXOff: 0
OS2SupYOff: 717
OS2StrikeYSize: 102
OS2StrikeYPos: 512
OS2Vendor: 'newt'
OS2CodePages: 20000003.00000000
OS2UnicodeRanges: 800000ef.4000204b.00000000.00000000
Lookup: 258 0 0 "'kern' Horizontal Kerning lookup 0"  {"'kern' Horizontal Kerning lookup 0 subtable"  } ['kern' ('DFLT' <'dflt' > 'grek' <'dflt' > 'latn' <'dflt' > ) ]
MarkAttachClasses: 1
DEI: 91125
KernClass2: 4 3 "'kern' Horizontal Kerning lookup 0 subtable" 
 1 V
 1 W
 1 Y
 66 a c d agrave aacute acircumflex atilde adieresis aring ae ccedilla
 49 ograve oacute ocircumflex otilde odieresis oslash
 0 {} 0 {} 0 {} 0 {} -142 {} -119 {} 0 {} -96 {} -75 {} 0 {} -275 {} -264 {}

StartChar: exclam
Encoding: 33 33 7
Width: 704
GlyphClass: 2
Flags: W
LayerCount: 2
Fore
SplineSet
412.5 -10.5 m 128,-1,1
 386 -22 386 -22 350.5 -22 c 128,-1,2
 315 -22 315 -22 289 -10.5 c 0,3,4
 264 0 264 0 246 20 c 0,5,6
 212 58 212 58 211.5 99 c 128,-1,7
 211 140 211 140 220 165.5 c 0,8,9
 228 191 228 191 246 211 c 0,10,11
 285 256 285 256 335 256 c 128,-1,12
 385 256 385 256 411.5 243.5 c 128,-1,13
 438 231 438 231 456 211 c 0,14,15
 492 170 492 170 491.5 129.5 c 128,-1,16
 491 89 491 89 482.5 64.5 c 128,-1,17
 474 40 474 40 456.5 20.5 c 128,-1,0
 439 1 439 1 412.5 -10.5 c 128,-1,1
448.5 1010.5 m 128,-1,19
 444 920 444 920 434.5 739 c 128,-1,20
 425 558 425 558 425 500.5 c 128,-1,21
 425 443 425 443 429 403 c 1,22,23
 397 391 397 391 364.5 391 c 128,-1,24
 332 391 332 391 316.5 395 c 0,25,26
 301 398 301 398 292 408 c 0,27,28
 277 424 277 424 275 470 c 2,29,-1
 240 1135 l 2,30,31
 235 1235 235 1235 227 1301 c 128,-1,32
 219 1367 219 1367 219 1383 c 2,33,-1
 219 1406 l 2,34,35
 219 1412 219 1412 220 1419 c 1,36,37
 264 1457 264 1457 340 1457 c 128,-1,38
 416 1457 416 1457 441 1433 c 128,-1,39
 466 1409 466 1409 466 1358 c 0,40,41
 466 1352 466 1352 465.5 1343.5 c 128,-1,42
 465 1335 465 1335 464.5 1315 c 128,-1,43
 464 1295 464 1295 462 1259 c 128,-1,44
 460 1223 460 1223 456.5 1162 c 128,-1,18
 453 1101 453 1101 448.5 1010.5 c 128,-1,19
EndSplineSet
EndChar

StartChar: quotedbl
Encoding: 34 34 8
Width: 792
GlyphClass: 2
Flags: W
LayerCount: 2
Fore
SplineSet
481 1450 m 1,0,1
 521 1494 521 1494 580 1494 c 128,-1,2
 639 1494 639 1494 657 1472.5 c 128,-1,3
 675 1451 675 1451 675 1409.5 c 128,-1,4
 675 1368 675 1368 672 1337 c 2,5,-1
 642 983 l 1,6,7
 613 959 613 959 585 959 c 128,-1,8
 557 959 557 959 544 968.5 c 0,9,10
 532 978 532 978 524 993 c 0,11,12
 515 1011 515 1011 509 1067 c 2,13,-1
 493 1260 l 2,14,15
 482 1380 482 1380 481 1450 c 1,0,1
117 1450 m 1,16,17
 154 1494 154 1494 214 1494 c 128,-1,18
 274 1494 274 1494 292.5 1472.5 c 128,-1,19
 311 1451 311 1451 311 1419 c 0,20,21
 311 1369 311 1369 307 1337 c 1,22,-1
 277 983 l 1,23,24
 251 959 251 959 221.5 959 c 128,-1,25
 192 959 192 959 178.5 969 c 0,26,27
 165 978 165 978 158 994 c 0,28,29
 150 1013 150 1013 144 1072 c 2,30,-1
 128 1260 l 2,31,32
 117 1384 117 1384 117 1450 c 1,16,17
EndSplineSet
EndChar

StartChar: numbersign
Encoding: 35 35 9
Width: 1240
GlyphClass: 2
Flags: W
LayerCount: 2
Fore
SplineSet
461 582 m 1,0,-1
 726 582 l 1,1,-1
 781 848 l 1,2,-1
 517 848 l 1,3,-1
 461 582 l 1,0,-1
1020 1341 m 1,4,-1
 1021 1319 l 1,5,6
 1015 1257 1015 1257 999 1188 c 2,7,-1
 955 985 l 1,8,-1
 1158 985 l 1,9,-1
 1158 933 l 2,10,11
 1158 882 1158 882 1149 870 c 0,12,13
 1134 848 1134 848 1083 848 c 2,14,-1
 929 848 l 1,15,-1
 872 582 l 1,16,-1
 1085 582 l 1,17,-1
 1085 510 l 2,18,19
 1085 478 1085 478 1074 464 c 128,-1,20
 1063 450 1063 450 1038 445 c 1,21,-1
 845 445 l 1,22,-1
 768 73 l 1,23,-1
 714 73 l 2,24,25
 645 73 645 73 630 107 c 1,26,27
 633 131 633 131 641 164.5 c 128,-1,28
 649 198 649 198 657 240 c 2,29,-1
 698 445 l 1,30,-1
 433 445 l 1,31,-1
 356 73 l 1,32,-1
 292 73 l 2,33,34
 220 73 220 73 220 99 c 0,35,36
 220 135 220 135 243 240 c 2,37,-1
 287 445 l 1,38,-1
 82 445 l 1,39,-1
 82 498 l 2,40,41
 82 548 82 548 91 560 c 0,42,43
 107 582 107 582 157 582 c 2,44,-1
 313 582 l 1,45,-1
 368 848 l 1,46,-1
 156 848 l 1,47,-1
 156 920 l 2,48,49
 156 963 156 963 170 972 c 0,50,51
 188 985 188 985 232 985 c 2,52,-1
 397 985 l 1,53,-1
 474 1351 l 1,54,-1
 529 1351 l 2,55,56
 563 1351 563 1351 584.5 1346.5 c 128,-1,57
 606 1342 606 1342 615 1322 c 1,58,59
 610 1305 610 1305 608 1285 c 128,-1,60
 606 1265 606 1265 601 1245 c 2,61,-1
 546 985 l 1,62,-1
 808 985 l 1,63,-1
 886 1351 l 1,64,-1
 939 1351 l 2,65,66
 1000 1351 1000 1351 1020 1341 c 1,4,-1
EndSplineSet
EndChar

StartChar: dollar
Encoding: 36 36 10
Width: 1302
GlyphClass: 2
Flags: W
LayerCount: 2
Fore
SplineSet
943 323 m 0,0,1
 943 370 943 370 928 407 c 0,2,3
 912 444 912 444 884 474 c 0,4,5
 833 529 833 529 724 583 c 1,6,-1
 724 89 l 1,7,8
 821 103 821 103 882 166 c 128,-1,9
 943 229 943 229 943 323 c 0,0,1
584 1343 m 1,10,11
 408 1320 408 1320 372 1167 c 1,12,13
 364 1145 364 1145 364 1102 c 128,-1,14
 364 1059 364 1059 379 1021 c 0,15,16
 394 982 394 982 422 952 c 0,17,18
 472 898 472 898 584 853 c 1,19,-1
 584 1343 l 1,10,11
651 1596 m 2,20,21
 711 1596 711 1596 724 1550 c 1,22,-1
 724 1468 l 1,23,24
 930 1468 930 1468 1040 1411 c 0,25,26
 1076 1392 1076 1392 1094 1368 c 1,27,28
 1093 1345 1093 1345 1092 1321 c 128,-1,29
 1091 1297 1091 1297 1088 1274 c 1,30,-1
 1042 1123 l 1,31,-1
 949 1148 l 1,32,33
 915 1228 915 1228 876 1263 c 0,34,35
 806 1326 806 1326 724 1340 c 1,36,-1
 724 796 l 1,37,38
 943 704 943 704 1039 618 c 0,39,40
 1158 510 1158 510 1158 357 c 0,41,42
 1158 192 1158 192 1036 86 c 0,43,44
 916 -19 916 -19 724 -34 c 1,45,-1
 724 -238 l 1,46,-1
 656 -238 l 2,47,48
 607 -238 607 -238 597 -224 c 0,49,50
 584 -206 584 -206 584 -159 c 2,51,-1
 584 -35 l 1,52,53
 375 -25 375 -25 200 72 c 0,54,55
 147 101 147 101 135 132 c 1,56,57
 135 188 135 188 144 244 c 1,58,-1
 203 375 l 1,59,-1
 303 335 l 1,60,61
 349 217 349 217 416.5 159.5 c 128,-1,62
 484 102 484 102 584 91 c 1,63,-1
 584 642 l 1,64,65
 363 740 363 740 275 820 c 0,66,67
 164 921 164 921 164 1068 c 0,68,69
 164 1316 164 1316 408 1414 c 0,70,71
 486 1445 486 1445 584 1458 c 1,72,-1
 584 1596 l 1,73,-1
 651 1596 l 2,20,21
EndSplineSet
EndChar

StartChar: percent
Encoding: 37 37 11
Width: 1643
GlyphClass: 2
Flags: W
LayerCount: 2
Fore
SplineSet
1362.5 -1.5 m 128,-1,1
 1305 -26 1305 -26 1236.5 -26 c 128,-1,2
 1168 -26 1168 -26 1110 -1.5 c 0,3,4
 1052 22 1052 22 1010 70 c 0,5,6
 921 171 921 171 921 349 c 0,7,8
 920 530 920 530 1008 630 c 0,9,10
 1091 726 1091 726 1237 725 c 0,11,12
 1458 725 1458 725 1528 512 c 0,13,14
 1551 442 1551 442 1551 350 c 128,-1,15
 1551 258 1551 258 1527.5 188 c 128,-1,16
 1504 118 1504 118 1462 70.5 c 128,-1,0
 1420 23 1420 23 1362.5 -1.5 c 128,-1,1
1356 573.5 m 128,-1,18
 1317 643 1317 643 1237.5 643 c 128,-1,19
 1158 643 1158 643 1119 573.5 c 128,-1,20
 1080 504 1080 504 1080 349.5 c 128,-1,21
 1080 195 1080 195 1119 125.5 c 128,-1,22
 1158 56 1158 56 1237.5 56 c 128,-1,23
 1317 56 1317 56 1356 125.5 c 128,-1,24
 1395 195 1395 195 1395 349.5 c 128,-1,17
 1395 504 1395 504 1356 573.5 c 128,-1,18
718 1060 m 0,25,26
 718 815 718 815 531 733 c 0,27,28
 472 707 472 707 408.5 707 c 128,-1,29
 345 707 345 707 287 729.5 c 128,-1,30
 229 752 229 752 185.5 798 c 128,-1,31
 142 844 142 844 117 915 c 128,-1,32
 92 986 92 986 92 1083 c 128,-1,33
 92 1180 92 1180 116.5 1251 c 128,-1,34
 141 1322 141 1322 183.5 1367.5 c 128,-1,35
 226 1413 226 1413 283 1435 c 128,-1,36
 340 1457 340 1457 405 1457 c 128,-1,37
 470 1457 470 1457 527 1435 c 0,38,39
 584 1414 584 1414 626 1368 c 0,40,41
 718 1270 718 1270 718 1060 c 0,25,26
523 1305.5 m 128,-1,43
 484 1375 484 1375 404 1375 c 128,-1,44
 324 1375 324 1375 285 1305.5 c 128,-1,45
 246 1236 246 1236 246 1082 c 128,-1,46
 246 928 246 928 285.5 858.5 c 128,-1,47
 325 789 325 789 404.5 789 c 128,-1,48
 484 789 484 789 523 858.5 c 128,-1,49
 562 928 562 928 562 1082 c 128,-1,42
 562 1236 562 1236 523 1305.5 c 128,-1,43
314 13 m 1,50,51
 369 113 369 113 1193 1460 c 1,52,53
 1274 1436 1274 1436 1297 1406 c 0,54,55
 1302 1400 1302 1400 1312 1392 c 1,56,-1
 440 -34 l 1,57,-1
 314 13 l 1,50,51
EndSplineSet
EndChar

StartChar: ampersand
Encoding: 38 38 12
Width: 1399
GlyphClass: 2
Flags: W
LayerCount: 2
Fore
SplineSet
607 -37 m 0,0,1
 74 -37 74 -37 74 374 c 0,2,3
 74 570 74 570 248 676 c 0,4,5
 306 712 306 712 385 729 c 1,6,-1
 385 734 l 1,7,8
 193 782 193 782 135 940 c 0,9,10
 116 992 116 992 116 1064.5 c 128,-1,11
 116 1137 116 1137 145 1204 c 128,-1,12
 174 1271 174 1271 232 1319 c 0,13,14
 356 1421 356 1421 585 1421 c 0,15,16
 781 1421 781 1421 942 1352 c 0,17,18
 984 1334 984 1334 1009 1318 c 1,19,-1
 985 1039 l 1,20,-1
 862 1039 l 1,21,22
 816 1186 816 1186 775.5 1230.5 c 128,-1,23
 735 1275 735 1275 695 1290.5 c 128,-1,24
 655 1306 655 1306 591 1306 c 128,-1,25
 527 1306 527 1306 475 1285.5 c 0,26,27
 424 1266 424 1266 390 1230 c 0,28,29
 324 1161 324 1161 324 1048 c 0,30,31
 324 940 324 940 397 868 c 0,32,33
 479 788 479 788 625 788 c 2,34,-1
 1367 788 l 1,35,-1
 1367 510 l 1,36,-1
 1304 510 l 1,37,38
 1280 601 1280 601 1260 623 c 0,39,40
 1228 657 1228 657 1174 657 c 2,41,-1
 1104 657 l 1,42,43
 1133 454 1133 454 1133 353.5 c 128,-1,44
 1133 253 1133 253 1097.5 182.5 c 128,-1,45
 1062 112 1062 112 994 63 c 0,46,47
 856 -37 856 -37 607 -37 c 0,0,1
605 657 m 2,48,49
 470 657 470 657 388 581 c 0,50,51
 306 504 306 504 305 369 c 0,52,53
 305 172 305 172 477 114 c 0,54,55
 538 94 538 94 616.5 94 c 128,-1,56
 695 94 695 94 755 113.5 c 0,57,58
 814 133 814 133 858 173 c 0,59,60
 950 258 950 258 951 421 c 0,61,62
 951 514 951 514 943 582 c 2,63,-1
 935 657 l 1,64,-1
 605 657 l 2,48,49
EndSplineSet
EndChar

StartChar: quotesingle
Encoding: 39 39 13
Width: 429
GlyphClass: 2
Flags: W
LayerCount: 2
Fore
SplineSet
277 983 m 1,0,1
 248 959 248 959 220 959 c 128,-1,2
 192 959 192 959 179 968.5 c 128,-1,3
 166 978 166 978 159 993 c 0,4,5
 151 1011 151 1011 145 1067 c 2,6,-1
 128 1260 l 2,7,8
 117 1376 117 1376 117 1412.5 c 128,-1,9
 117 1449 117 1449 126.5 1460 c 0,10,11
 136 1470 136 1470 152 1478 c 0,12,13
 184 1494 184 1494 228 1494 c 0,14,15
 312 1494 312 1494 312 1409 c 0,16,17
 312 1369 312 1369 308 1337 c 1,18,-1
 277 983 l 1,0,1
EndSplineSet
EndChar

StartChar: parenleft
Encoding: 40 40 14
Width: 588
GlyphClass: 2
Flags: W
LayerCount: 2
Fore
SplineSet
305 672 m 128,-1,1
 305 168 305 168 522 -188 c 1,2,-1
 479 -208 l 2,3,4
 466 -213 466 -213 454 -213 c 0,5,6
 418 -213 418 -213 388 -180 c 1,7,8
 194 70 194 70 136 434 c 0,9,10
 118 552 118 552 117.5 672 c 128,-1,11
 117 792 117 792 135.5 909 c 128,-1,12
 154 1026 154 1026 190 1135 c 0,13,14
 263 1358 263 1358 388 1524 c 0,15,16
 413 1557 413 1557 460 1557 c 0,17,18
 466 1557 466 1557 479 1552 c 2,19,-1
 522 1532 l 1,20,0
 305 1176 305 1176 305 672 c 128,-1,1
EndSplineSet
EndChar

StartChar: parenright
Encoding: 41 41 15
Width: 588
GlyphClass: 2
Flags: W
LayerCount: 2
Fore
SplineSet
283 672 m 128,-1,1
 283 1176 283 1176 66 1532 c 1,2,-1
 109 1552 l 2,3,4
 122 1557 122 1557 134 1557 c 0,5,6
 174 1557 174 1557 200 1524 c 0,7,8
 393 1272 393 1272 452 908 c 0,9,10
 471 790 471 790 471 671 c 128,-1,11
 471 552 471 552 452.5 434.5 c 0,12,13
 434 318 434 318 398 208 c 0,14,15
 324 -19 324 -19 200 -180 c 1,16,17
 170 -213 170 -213 128 -213 c 0,18,19
 122 -213 122 -213 109 -208 c 2,20,-1
 66 -188 l 1,21,0
 283 168 283 168 283 672 c 128,-1,1
EndSplineSet
EndChar

StartChar: asterisk
Encoding: 42 42 16
Width: 926
GlyphClass: 2
Flags: W
LayerCount: 2
Fore
SplineSet
280 743 m 1,0,-1
 394 994 l 1,1,-1
 126 859 l 1,2,-1
 84 1014 l 1,3,-1
 370 1080 l 1,4,-1
 122 1249 l 1,5,-1
 253 1363 l 1,6,-1
 430 1139 l 1,7,-1
 460 1440 l 1,8,-1
 638 1389 l 1,9,-1
 521 1126 l 1,10,-1
 791 1252 l 1,11,-1
 830 1099 l 1,12,-1
 549 1041 l 1,13,-1
 791 843 l 1,14,-1
 659 737 l 1,15,-1
 484 982 l 1,16,-1
 457 670 l 1,17,-1
 280 743 l 1,0,-1
EndSplineSet
EndChar

StartChar: plus
Encoding: 43 43 17
Width: 1289
GlyphClass: 2
Flags: W
LayerCount: 2
Fore
SplineSet
639 1115 m 2,0,1
 702 1115 702 1115 716 1068 c 1,2,-1
 716 677 l 1,3,-1
 1156 677 l 1,4,-1
 1156 610 l 2,5,6
 1156 557 1156 557 1140 547 c 0,7,8
 1120 533 1120 533 1071 533 c 2,9,-1
 716 533 l 1,10,-1
 716 93 l 1,11,-1
 648 93 l 2,12,13
 595 92 595 92 584 108 c 0,14,15
 571 128 571 128 571 177 c 2,16,-1
 571 533 l 1,17,-1
 133 533 l 1,18,-1
 133 601 l 2,19,20
 134 653 134 653 150 664 c 0,21,22
 169 677 169 677 222 677 c 2,23,-1
 571 677 l 1,24,-1
 571 1115 l 1,25,-1
 639 1115 l 2,0,1
EndSplineSet
EndChar

StartChar: comma
Encoding: 44 44 18
Width: 462
GlyphClass: 2
Flags: W
LayerCount: 2
Fore
SplineSet
118 -316 m 1,0,1
 87 -316 87 -316 74 -298 c 1,2,-1
 61 -267 l 1,3,4
 144 -150 144 -150 157 3 c 2,5,-1
 160 41 l 1,6,7
 106 42 106 42 82 86 c 0,8,9
 76 98 76 98 77.5 126 c 128,-1,10
 79 154 79 154 91.5 180.5 c 128,-1,11
 104 207 104 207 122 222 c 0,12,13
 154 249 154 249 220 249 c 128,-1,14
 286 249 286 249 316.5 218.5 c 128,-1,15
 347 188 347 188 347 128.5 c 128,-1,16
 347 69 347 69 328.5 5 c 128,-1,17
 310 -59 310 -59 279 -117 c 0,18,19
 220 -227 220 -227 118 -316 c 1,0,1
EndSplineSet
EndChar

StartChar: hyphen
Encoding: 45 45 19
Width: 683
GlyphClass: 2
Flags: W
LayerCount: 2
Fore
SplineSet
632 599 m 2,0,1
 632 536 632 536 584 519 c 1,2,-1
 51 519 l 1,3,-1
 51 589 l 2,4,5
 52 629 52 629 68 639 c 0,6,7
 90 651 90 651 133 651 c 2,8,-1
 632 651 l 1,9,-1
 632 599 l 2,0,1
EndSplineSet
EndChar

StartChar: period
Encoding: 46 46 20
Width: 600
GlyphClass: 2
Flags: W
LayerCount: 2
Fore
SplineSet
361.5 -21 m 128,-1,1
 336 -33 336 -33 301.5 -33.5 c 128,-1,2
 267 -34 267 -34 241 -22 c 128,-1,3
 215 -10 215 -10 198 9.5 c 128,-1,4
 181 29 181 29 172.5 53.5 c 128,-1,5
 164 78 164 78 164 104 c 128,-1,6
 164 130 164 130 172.5 155.5 c 128,-1,7
 181 181 181 181 198 201 c 0,8,9
 235 245 235 245 300 245 c 0,10,11
 364 245 364 245 402 201 c 0,12,13
 436 162 436 162 436 120 c 128,-1,14
 436 78 436 78 428 54 c 128,-1,15
 420 30 420 30 403.5 10.5 c 128,-1,0
 387 -9 387 -9 361.5 -21 c 128,-1,1
EndSplineSet
EndChar

StartChar: slash
Encoding: 47 47 21
Width: 853
GlyphClass: 2
Flags: W
LayerCount: 2
Fore
SplineSet
853 1491 m 1,0,1
 845 1466 845 1466 153 -157 c 1,2,-1
 81 -157 l 2,3,4
 18 -157 18 -157 -3 -126 c 1,5,-1
 701 1518 l 1,6,-1
 771 1518 l 2,7,8
 836 1518 836 1518 853 1491 c 1,0,1
EndSplineSet
EndChar

StartChar: zero
Encoding: 48 48 22
Width: 1277
GlyphClass: 2
Flags: W
LayerCount: 2
Fore
SplineSet
638 -37 m 0,0,1
 510 -37 510 -37 408 13.5 c 128,-1,2
 306 64 306 64 236 160 c 0,3,4
 92 356 92 356 92 710 c 0,5,6
 92 1068 92 1068 235 1264 c 0,7,8
 378 1458 378 1458 638 1458 c 0,9,10
 899 1458 899 1458 1042 1264 c 0,11,12
 1185 1069 1185 1069 1185 710 c 0,13,14
 1186 357 1186 357 1040 159 c 0,15,16
 896 -37 896 -37 638 -37 c 0,0,1
942 427 m 0,17,18
 962 545 962 545 962.5 711.5 c 128,-1,19
 963 878 963 878 942.5 997 c 128,-1,20
 922 1116 922 1116 881 1192 c 0,21,22
 802 1338 802 1338 638 1337 c 0,23,24
 394 1337 394 1337 334 996 c 0,25,26
 313 877 313 877 313 711.5 c 128,-1,27
 313 546 313 546 333.5 428 c 128,-1,28
 354 310 354 310 395 234 c 0,29,30
 475 86 475 86 638 87 c 0,31,32
 883 87 883 87 942 427 c 0,17,18
EndSplineSet
EndChar

StartChar: one
Encoding: 49 49 23
Width: 986
GlyphClass: 2
Flags: W
LayerCount: 2
Fore
SplineSet
550 1458 m 128,-1,1
 592 1458 592 1458 610 1428 c 1,2,-1
 610 252 l 2,3,4
 610 174 610 174 624 128 c 1,5,6
 658 119 658 119 727 119 c 2,7,-1
 818 119 l 1,8,-1
 818 -19 l 1,9,10
 530 18 530 18 195 -19 c 1,11,-1
 195 119 l 1,12,-1
 284 119 l 2,13,14
 359 119 359 119 387 128 c 1,15,16
 403 181 403 181 403 249 c 2,17,-1
 403 1246 l 1,18,19
 366 1275 366 1275 307 1275 c 0,20,21
 276 1275 276 1275 249 1270 c 2,22,-1
 154 1253 l 1,23,-1
 135 1347 l 1,24,25
 367 1429 367 1429 437.5 1443.5 c 128,-1,0
 508 1458 508 1458 550 1458 c 128,-1,1
EndSplineSet
EndChar

StartChar: two
Encoding: 50 50 24
Width: 1251
GlyphClass: 2
Flags: W
LayerCount: 2
Fore
SplineSet
843 1079 m 0,0,1
 843 1336 843 1336 611 1336 c 0,2,3
 494 1336 494 1336 401 1268 c 0,4,5
 298 1193 298 1193 279 1071 c 1,6,-1
 134 1192 l 1,7,8
 152 1319 152 1319 292 1391 c 0,9,10
 421 1458 421 1458 595 1458 c 0,11,12
 812 1458 812 1458 934 1351 c 0,13,14
 1052 1248 1052 1248 1053 1069 c 0,15,16
 1053 892 1053 892 900 700 c 0,17,18
 795 568 795 568 631.5 417.5 c 128,-1,19
 468 267 468 267 329 144 c 1,20,-1
 726 144 l 2,21,22
 823 144 823 144 877 168 c 0,23,24
 987 218 987 218 1038 340 c 1,25,-1
 1101 329 l 1,26,27
 1101 139 1101 139 1088 27 c 1,28,29
 1013 4 1013 4 897 2 c 128,-1,30
 781 0 781 0 699 0 c 2,31,-1
 197 0 l 2,32,33
 153 0 153 0 133.5 12 c 128,-1,34
 114 24 114 24 104 50 c 1,35,36
 104 76 104 76 118 134 c 1,37,38
 657 666 657 666 758 822 c 0,39,40
 823 922 823 922 833 982.5 c 128,-1,41
 843 1043 843 1043 843 1079 c 0,0,1
EndSplineSet
EndChar

StartChar: three
Encoding: 51 51 25
Width: 1200
GlyphClass: 2
Flags: W
LayerCount: 2
Fore
SplineSet
879 389 m 0,0,1
 879 672 879 672 450 672 c 2,2,-1
 409 672 l 1,3,-1
 409 791 l 1,4,-1
 475 791 l 2,5,6
 598 792 598 792 706 864 c 0,7,8
 836 952 836 952 836 1097 c 0,9,10
 836 1212 836 1212 758 1276 c 0,11,12
 686 1336 686 1336 581 1336 c 0,13,14
 468 1336 468 1336 379 1270 c 0,15,16
 280 1197 280 1197 261 1080 c 1,17,-1
 126 1191 l 1,18,19
 144 1317 144 1317 278 1390 c 0,20,21
 401 1457 401 1457 567 1457 c 0,22,23
 882 1458 882 1458 990 1270 c 0,24,25
 1030 1200 1030 1200 1030 1121 c 128,-1,26
 1030 1042 1030 1042 1007.5 988.5 c 0,27,28
 984 934 984 934 940 888 c 0,29,30
 842 785 842 785 676 748 c 1,31,32
 1081 695 1081 695 1081 378 c 0,33,34
 1081 186 1081 186 946.5 74.5 c 128,-1,35
 812 -37 812 -37 590 -37 c 0,36,37
 422 -37 422 -37 285 24 c 0,38,39
 151 83 151 83 121 166 c 1,40,41
 124 189 124 189 127 212 c 128,-1,42
 130 235 130 235 134 261.5 c 128,-1,43
 138 288 138 288 142.5 319.5 c 128,-1,44
 147 351 147 351 155 392 c 1,45,-1
 265 373 l 1,46,47
 264 221 264 221 364 147 c 0,48,49
 445 87 445 87 577 87 c 0,50,51
 715 86 715 86 799 174 c 0,52,53
 879 258 879 258 879 389 c 0,0,1
EndSplineSet
EndChar

StartChar: four
Encoding: 52 52 26
Width: 1210
GlyphClass: 2
Flags: W
LayerCount: 2
Fore
SplineSet
702 512 m 1,0,-1
 702 1194 l 1,1,-1
 244 544 l 1,2,-1
 226 512 l 1,3,-1
 702 512 l 1,0,-1
1107 -19 m 1,4,5
 831 18 831 18 494 -19 c 1,6,-1
 494 117 l 1,7,-1
 583 117 l 2,8,9
 658 117 658 117 686 126 c 1,10,11
 702 170 702 170 702 247 c 2,12,-1
 702 385 l 1,13,-1
 75 385 l 1,14,15
 35 416 35 416 35 472 c 1,16,17
 48 513 48 513 530 1186 c 0,18,19
 676 1390 676 1390 719 1437 c 1,20,-1
 807 1437 l 2,21,22
 866 1437 866 1437 880 1425 c 0,23,24
 900 1407 900 1407 900 1360 c 2,25,-1
 900 512 l 1,26,-1
 1181 512 l 1,27,-1
 1181 458 l 2,28,29
 1181 409 1181 409 1167 398 c 0,30,31
 1149 385 1149 385 1101 385 c 2,32,-1
 900 385 l 1,33,-1
 900 250 l 2,34,35
 900 166 900 166 914 126 c 1,36,37
 948 117 948 117 1017 117 c 2,38,-1
 1107 117 l 1,39,-1
 1107 -19 l 1,4,5
EndSplineSet
EndChar

StartChar: five
Encoding: 53 53 27
Width: 1234
GlyphClass: 2
Flags: W
LayerCount: 2
Fore
SplineSet
386 1312 m 1,0,-1
 379 836 l 1,1,2
 502 894 502 894 619 894 c 128,-1,3
 736 894 736 894 821 862.5 c 128,-1,4
 906 831 906 831 969 773 c 0,5,6
 1104 649 1104 649 1104 449 c 0,7,8
 1104 223 1104 223 970 93 c 0,9,10
 837 -37 837 -37 608 -37 c 0,11,12
 307 -37 307 -37 173 85 c 1,13,-1
 173 401 l 1,14,-1
 295 389 l 1,15,-1
 341 147 l 1,16,17
 427 102 427 102 486 94.5 c 128,-1,18
 545 87 545 87 608.5 87 c 128,-1,19
 672 87 672 87 731.5 117 c 128,-1,20
 791 147 791 147 828 196 c 0,21,22
 898 289 898 289 898 439 c 128,-1,23
 898 589 898 589 805 675 c 128,-1,24
 712 761 712 761 551.5 761 c 128,-1,25
 391 761 391 761 286 672 c 1,26,-1
 217 691 l 1,27,-1
 217 1394 l 1,28,29
 246 1437 246 1437 324 1437 c 2,30,-1
 646 1437 l 2,31,32
 899 1437 899 1437 1028 1461 c 1,33,-1
 1035 1317 l 1,34,35
 993 1265 993 1265 814 1265 c 128,-1,36
 635 1265 635 1265 386 1312 c 1,0,-1
EndSplineSet
EndChar

StartChar: six
Encoding: 54 54 28
Width: 1225
GlyphClass: 2
Flags: W
LayerCount: 2
Fore
SplineSet
333 714 m 1,0,1
 506 887 506 887 715 887 c 0,2,3
 896 887 896 887 1010 769 c 0,4,5
 1130 646 1130 646 1130 445 c 0,6,7
 1130 231 1130 231 993 98 c 0,8,9
 854 -37 854 -37 626 -37 c 0,10,11
 125 -37 125 -37 125 660 c 0,12,13
 125 1256 125 1256 445 1406 c 0,14,15
 555 1458 555 1458 707 1458 c 0,16,17
 874 1458 874 1458 992 1414 c 0,18,19
 1030 1400 1030 1400 1052 1382 c 1,20,-1
 1038 1068 l 1,21,-1
 918 1068 l 1,22,-1
 886 1281 l 1,23,24
 782 1337 782 1337 699 1337 c 128,-1,25
 616 1337 616 1337 560.5 1308.5 c 128,-1,26
 505 1280 505 1280 465.5 1233 c 128,-1,27
 426 1186 426 1186 400 1124 c 128,-1,28
 374 1062 374 1062 359 996 c 0,29,30
 332 876 332 876 332 737 c 2,31,-1
 332 726 l 2,32,33
 332 720 332 720 333 714 c 1,0,1
345 577 m 1,34,35
 345 87 345 87 637 87 c 0,36,37
 766 87 766 87 842 179 c 0,38,39
 922 274 922 274 921 441 c 0,40,41
 921 672 921 672 779 740 c 0,42,43
 735 761 735 761 693 761 c 128,-1,44
 651 761 651 761 621 753 c 128,-1,45
 591 745 591 745 562 732 c 0,46,47
 453 683 453 683 345 577 c 1,34,35
EndSplineSet
EndChar

StartChar: seven
Encoding: 55 55 29
Width: 1201
GlyphClass: 2
Flags: W
LayerCount: 2
Fore
SplineSet
1077 1437 m 1,0,1
 1103 1368 1103 1368 1103 1285 c 1,2,-1
 626 188 l 2,3,4
 575 72 575 72 548 42 c 0,5,6
 501 -11 501 -11 426 -11 c 128,-1,7
 351 -11 351 -11 330 24 c 1,8,9
 341 57 341 57 357 89 c 2,10,-1
 937 1304 l 1,11,-1
 500 1304 l 2,12,13
 357 1304 357 1304 297 1281 c 1,14,-1
 271 1067 l 1,15,-1
 156 1067 l 1,16,-1
 111 1381 l 1,17,18
 215 1437 215 1437 613 1437 c 2,19,-1
 1077 1437 l 1,0,1
EndSplineSet
EndChar

StartChar: eight
Encoding: 56 56 30
Width: 1174
GlyphClass: 2
Flags: W
LayerCount: 2
Fore
SplineSet
837 1099 m 128,-1,1
 837 1156 837 1156 818 1200 c 0,2,3
 798 1244 798 1244 764 1274 c 0,4,5
 693 1336 693 1336 575 1337 c 0,6,7
 388 1336 388 1336 332 1200 c 0,8,9
 314 1156 314 1156 314 1100.5 c 128,-1,10
 314 1045 314 1045 335.5 999.5 c 0,11,12
 356 954 356 954 396 916 c 0,13,14
 473 843 473 843 614 800 c 1,15,16
 718 858 718 858 759 905.5 c 128,-1,17
 800 953 800 953 818.5 997.5 c 128,-1,0
 837 1042 837 1042 837 1099 c 128,-1,1
506 676 m 1,18,19
 289 566 289 566 289 356 c 0,20,21
 289 226 289 226 371 154 c 0,22,23
 448 86 448 86 575 87 c 0,24,25
 717 86 717 86 796 162 c 0,26,27
 868 231 868 231 868 333 c 0,28,29
 868 532 868 532 592 642 c 2,30,-1
 506 676 l 1,18,19
94 323 m 0,31,32
 94 606 94 606 379 735 c 1,33,34
 170 838 170 838 130 998 c 0,35,36
 116 1051 116 1051 116 1123.5 c 128,-1,37
 116 1196 116 1196 153 1260.5 c 128,-1,38
 190 1325 190 1325 253 1369 c 0,39,40
 380 1458 380 1458 575 1458 c 0,41,42
 766 1458 766 1458 893 1369 c 0,43,44
 1030 1273 1030 1273 1030 1108 c 0,45,46
 1030 948 1030 948 870 816 c 0,47,48
 824 778 824 778 775 740 c 1,49,50
 1080 603 1080 603 1080 367 c 0,51,52
 1080 166 1080 166 934 60 c 0,53,54
 800 -36 800 -36 575 -37 c 0,55,56
 366 -37 366 -37 232 58 c 0,57,58
 94 156 94 156 94 323 c 0,31,32
EndSplineSet
EndChar

StartChar: nine
Encoding: 57 57 31
Width: 1223
GlyphClass: 2
Flags: W
LayerCount: 2
Fore
SplineSet
887 707 m 1,0,1
 707 541 707 541 510 541 c 0,2,3
 334 540 334 540 220 660 c 0,4,5
 104 783 104 783 104 987 c 0,6,7
 104 1197 104 1197 238 1326 c 0,8,9
 375 1458 375 1458 598 1458 c 0,10,11
 1098 1458 1098 1458 1098 792 c 0,12,13
 1098 172 1098 172 790 16 c 0,14,15
 684 -38 684 -38 537 -37 c 0,16,17
 358 -38 358 -38 232 24 c 0,18,19
 192 44 192 44 168 70 c 1,20,-1
 168 374 l 1,21,-1
 295 363 l 1,22,-1
 337 133 l 1,23,24
 441 87 441 87 528.5 87 c 128,-1,25
 616 87 616 87 682.5 128.5 c 128,-1,26
 749 170 749 170 795 244 c 0,27,28
 891 399 891 399 891 649 c 0,29,30
 891 677 891 677 887 707 c 1,0,1
879 945 m 1,31,32
 879 1234 879 1234 707 1312 c 0,33,34
 653 1336 653 1336 589.5 1336.5 c 128,-1,35
 526 1337 526 1337 475.5 1314 c 0,36,37
 425 1290 425 1290 389 1246 c 0,38,39
 313 1152 313 1152 313 990 c 0,40,41
 312 758 312 758 442 691 c 0,42,43
 482 670 482 670 546 670 c 128,-1,44
 610 670 610 670 673 697 c 128,-1,45
 736 724 736 724 781 766 c 0,46,47
 875 852 875 852 879 945 c 1,31,32
EndSplineSet
EndChar

StartChar: colon
Encoding: 58 58 32
Width: 608
GlyphClass: 2
Flags: W
LayerCount: 2
Fore
SplineSet
200.5 819 m 128,-1,1
 166 859 166 859 166 920 c 128,-1,2
 166 981 166 981 205 1018 c 128,-1,3
 244 1055 244 1055 292 1055 c 128,-1,4
 340 1055 340 1055 364.5 1044.5 c 128,-1,5
 389 1034 389 1034 407 1016 c 0,6,7
 444 979 444 979 444 934 c 128,-1,8
 444 889 444 889 433 861 c 128,-1,9
 422 833 422 833 404 815 c 0,10,11
 368 779 368 779 301.5 779 c 128,-1,0
 235 779 235 779 200.5 819 c 128,-1,1
205 208.5 m 128,-1,13
 244 244 244 244 289.5 244 c 128,-1,14
 335 244 335 244 360 231.5 c 128,-1,15
 385 219 385 219 403 199 c 0,16,17
 442 156 442 156 442 109.5 c 128,-1,18
 442 63 442 63 430 38 c 128,-1,19
 418 13 418 13 400 -3 c 0,20,21
 364 -34 364 -34 319 -34 c 128,-1,22
 274 -34 274 -34 246 -23 c 128,-1,23
 218 -12 218 -12 200 6 c 0,24,25
 166 42 166 42 166 107.5 c 128,-1,12
 166 173 166 173 205 208.5 c 128,-1,13
EndSplineSet
EndChar

StartChar: semicolon
Encoding: 59 59 33
Width: 474
GlyphClass: 2
Flags: W
LayerCount: 2
Fore
SplineSet
41 -278 m 1,0,1
 152 -111 152 -111 160 41 c 1,2,3
 103 41 103 41 84 88 c 0,4,5
 77 105 77 105 79 142.5 c 128,-1,6
 81 180 81 180 114 214 c 128,-1,7
 147 248 147 248 198 248 c 128,-1,8
 249 248 249 248 276 239 c 128,-1,9
 303 230 303 230 318 214 c 0,10,11
 345 186 345 186 345 126.5 c 128,-1,12
 345 67 345 67 326.5 2.5 c 128,-1,13
 308 -62 308 -62 278 -121 c 0,14,15
 216 -243 216 -243 128 -314 c 1,16,17
 122 -316 122 -316 104 -316 c 0,18,19
 60 -316 60 -316 41 -278 c 1,0,1
81 919 m 0,20,21
 81 1031 81 1031 186 1051 c 1,22,23
 201 1055 201 1055 227.5 1055 c 128,-1,24
 254 1055 254 1055 279 1044.5 c 128,-1,25
 304 1034 304 1034 322 1016 c 0,26,27
 359 979 359 979 359 934 c 128,-1,28
 359 889 359 889 348 861 c 128,-1,29
 337 833 337 833 319 815 c 0,30,31
 283 779 283 779 236 779 c 128,-1,32
 189 779 189 779 161 789.5 c 128,-1,33
 133 800 133 800 115 819 c 0,34,35
 81 855 81 855 81 919 c 0,20,21
EndSplineSet
EndChar

StartChar: less
Encoding: 60 60 34
Width: 1387
GlyphClass: 2
Flags: W
LayerCount: 2
Fore
SplineSet
133 552 m 1,0,-1
 132 588 l 1,1,-1
 132 595 l 2,2,3
 132 630 132 630 163 644 c 0,4,5
 345 727 345 727 485 791 c 2,6,-1
 730 903 l 2,7,8
 835 951 835 951 909 985 c 128,-1,9
 983 1019 983 1019 1033.5 1041.5 c 128,-1,10
 1084 1064 1084 1064 1114 1077.5 c 128,-1,11
 1144 1091 1144 1091 1161.5 1098 c 128,-1,12
 1179 1105 1179 1105 1187 1108.5 c 128,-1,13
 1195 1112 1195 1112 1201 1114 c 1,14,15
 1220 1099 1220 1099 1254 985 c 1,16,-1
 347 569 l 1,17,-1
 1252 157 l 1,18,19
 1226 56 1226 56 1216 42.5 c 128,-1,20
 1206 29 1206 29 1201 25 c 1,21,22
 1103 66 1103 66 133 510 c 1,23,-1
 133 552 l 1,0,-1
EndSplineSet
EndChar

StartChar: equal
Encoding: 61 61 35
Width: 1288
GlyphClass: 2
Flags: W
LayerCount: 2
Fore
SplineSet
1155 410 m 2,0,1
 1155 347 1155 347 1108 332 c 1,2,-1
 133 332 l 1,3,-1
 133 399 l 2,4,5
 133 449 133 449 145 459 c 0,6,7
 163 475 163 475 213 475 c 2,8,-1
 1155 475 l 1,9,-1
 1155 410 l 2,0,1
1155 811 m 2,10,11
 1155 748 1155 748 1108 733 c 1,12,-1
 133 733 l 1,13,-1
 133 802 l 2,14,15
 133 874 133 874 190 877 c 0,16,17
 208 878 208 878 231 878 c 2,18,-1
 1155 878 l 1,19,-1
 1155 811 l 2,10,11
EndSplineSet
EndChar

StartChar: greater
Encoding: 62 62 36
Width: 1386
GlyphClass: 2
Flags: W
LayerCount: 2
Fore
SplineSet
1253 509 m 1,0,1
 205 29 205 29 186 24 c 1,2,3
 155 40 155 40 135 155 c 1,4,-1
 1039 571 l 1,5,-1
 133 984 l 1,6,-1
 195 1115 l 1,7,-1
 1228 643 l 2,8,9
 1253 631 1253 631 1253 573 c 2,10,-1
 1253 509 l 1,0,1
EndSplineSet
EndChar

StartChar: question
Encoding: 63 63 37
Width: 984
GlyphClass: 2
Flags: W
LayerCount: 2
Fore
SplineSet
509 552 m 0,0,1
 509 479 509 479 540 377 c 1,2,-1
 462 377 l 1,3,4
 378 425 378 425 342 505 c 0,5,6
 329 534 329 534 329 575.5 c 128,-1,7
 329 617 329 617 353.5 659.5 c 128,-1,8
 378 702 378 702 414.5 741.5 c 128,-1,9
 451 781 451 781 493.5 820.5 c 128,-1,10
 536 860 536 860 572 904 c 0,11,12
 658 1007 658 1007 658 1112 c 0,13,14
 658 1264 658 1264 548 1310 c 0,15,16
 514 1324 514 1324 474 1324 c 128,-1,17
 434 1324 434 1324 396.5 1319 c 128,-1,18
 359 1314 359 1314 326 1298 c 0,19,20
 252 1261 252 1261 225 1161 c 1,21,-1
 88 1161 l 1,22,23
 92 1372 92 1372 306 1434 c 0,24,25
 386 1458 386 1458 476 1458 c 128,-1,26
 566 1458 566 1458 640.5 1434.5 c 128,-1,27
 715 1411 715 1411 768 1366 c 0,28,29
 880 1271 880 1271 880 1108 c 0,30,31
 880 930 880 930 694 768 c 0,32,33
 570 659 570 659 539.5 622 c 128,-1,34
 509 585 509 585 509 552 c 0,0,1
576.5 148 m 128,-1,36
 587 122 587 122 587 90.5 c 128,-1,37
 587 59 587 59 575 34 c 128,-1,38
 563 9 563 9 544 -7 c 0,39,40
 507 -38 507 -38 462.5 -38 c 128,-1,41
 418 -38 418 -38 390 -26.5 c 0,42,43
 362 -14 362 -14 344 4 c 0,44,45
 310 39 310 39 310.5 103.5 c 128,-1,46
 311 168 311 168 348.5 204 c 128,-1,47
 386 240 386 240 432.5 240 c 128,-1,48
 479 240 479 240 504 227.5 c 128,-1,49
 529 215 529 215 547.5 194.5 c 128,-1,35
 566 174 566 174 576.5 148 c 128,-1,36
EndSplineSet
EndChar

StartChar: at
Encoding: 64 64 38
Width: 1859
GlyphClass: 2
Flags: W
LayerCount: 2
Fore
SplineSet
1184 906 m 1,0,1
 1167 1005 1167 1005 1064 1005 c 0,2,3
 948 1005 948 1005 850 855 c 0,4,5
 754 706 754 706 754 533 c 0,6,7
 754 446 754 446 794 388 c 0,8,9
 834 329 834 329 891.5 329.5 c 128,-1,10
 949 330 949 330 986 354.5 c 128,-1,11
 1023 379 1023 379 1051.5 420.5 c 128,-1,12
 1080 462 1080 462 1101 518.5 c 128,-1,13
 1122 575 1122 575 1138 639 c 0,14,15
 1162 734 1162 734 1184 906 c 1,0,1
1067 1096 m 0,16,17
 1183 1096 1183 1096 1237 987 c 1,18,-1
 1276 1052 l 1,19,-1
 1383 1052 l 1,20,-1
 1267 552 l 2,21,22
 1254 496 1254 496 1254 441 c 0,23,24
 1254 324 1254 324 1362 324 c 0,25,26
 1464 324 1464 324 1548 458 c 0,27,28
 1632 593 1632 593 1633 772 c 0,29,30
 1632 1024 1632 1024 1460 1190 c 0,31,32
 1282 1362 1282 1362 1001 1362 c 0,33,34
 867 1362 867 1362 742.5 1313 c 128,-1,35
 618 1264 618 1264 522 1170 c 0,36,37
 312 964 312 964 313 623 c 0,38,39
 314 314 314 314 518 117 c 0,40,41
 714 -72 714 -72 996.5 -72 c 128,-1,42
 1279 -72 1279 -72 1515 73 c 1,43,-1
 1554 0 l 1,44,45
 1285 -172 1285 -172 992 -172 c 0,46,47
 616 -172 616 -172 370 66 c 0,48,49
 218 213 218 213 161 419 c 0,50,51
 133 521 133 521 133 637.5 c 128,-1,52
 133 754 133 754 164.5 864 c 128,-1,53
 196 974 196 974 252.5 1067 c 128,-1,54
 309 1160 309 1160 388.5 1234.5 c 128,-1,55
 468 1309 468 1309 565 1361 c 0,56,57
 765 1468 765 1468 1003 1468 c 0,58,59
 1326 1468 1326 1468 1536 1276 c 0,60,61
 1752 1080 1752 1080 1751 767 c 0,62,63
 1752 558 1752 558 1636 395 c 0,64,65
 1514 223 1514 223 1340 223 c 0,66,67
 1209 224 1209 224 1146 328 c 0,68,69
 1127 360 1127 360 1117 395 c 1,70,-1
 1109 395 l 1,71,72
 1067 319 1067 319 999.5 271 c 128,-1,73
 932 223 932 223 860.5 223 c 128,-1,74
 789 223 789 223 739.5 241 c 128,-1,75
 690 259 690 259 652 297 c 0,76,77
 570 381 570 381 570 533 c 0,78,79
 570 759 570 759 706 924 c 0,80,81
 848 1096 848 1096 1067 1096 c 0,16,17
EndSplineSet
EndChar

StartChar: A
Encoding: 65 65 39
Width: 1581
GlyphClass: 2
Flags: W
LayerCount: 2
Fore
SplineSet
498 -14 m 1,0,1
 390 5 390 5 233 0.5 c 128,-1,2
 76 -4 76 -4 0 -14 c 1,3,-1
 30 126 l 1,4,-1
 76 126 l 2,5,6
 144 126 144 126 172 135 c 1,7,8
 205 179 205 179 225 234 c 128,-1,9
 245 289 245 289 271 357 c 0,10,11
 297 424 297 424 332 514 c 0,12,13
 423 746 423 746 489 913 c 2,14,-1
 697 1437 l 1,15,-1
 789 1437 l 2,16,17
 863 1437 863 1437 911 1421 c 1,18,-1
 1352 259 l 2,19,20
 1381 182 1381 182 1412 135 c 1,21,22
 1446 126 1446 126 1508 126 c 2,23,-1
 1552 126 l 1,24,-1
 1581 -14 l 1,25,26
 1487 0 1487 0 1317 0 c 128,-1,27
 1147 0 1147 0 1041 -14 c 1,28,-1
 1022 126 l 1,29,-1
 1039 126 l 2,30,31
 1112 126 1112 126 1138 135 c 1,32,33
 1136 188 1136 188 1109 256 c 2,34,-1
 1043 423 l 1,35,-1
 466 423 l 1,36,-1
 412 259 l 2,37,38
 389 190 389 190 389 147 c 0,39,40
 389 126 389 126 461 126 c 2,41,-1
 507 126 l 1,42,-1
 498 -14 l 1,0,1
750 1259 m 1,43,-1
 499 526 l 1,44,-1
 1005 526 l 1,45,-1
 759 1259 l 1,46,-1
 750 1259 l 1,43,-1
EndSplineSet
EndChar

StartChar: B
Encoding: 66 66 40
Width: 1457
GlyphClass: 2
Flags: W
LayerCount: 2
Fore
SplineSet
793 4 m 0,0,1
 703 0 703 0 530.5 0 c 128,-1,2
 358 0 358 0 98 -14 c 1,3,-1
 98 126 l 1,4,-1
 187 126 l 2,5,6
 262 126 262 126 290 135 c 1,7,8
 306 176 306 176 306 256 c 2,9,-1
 306 1154 l 2,10,11
 306 1246 306 1246 290 1298 c 1,12,13
 248 1303 248 1303 227 1303 c 128,-1,14
 206 1303 206 1303 78 1299 c 1,15,-1
 78 1413 l 1,16,17
 362 1453 362 1453 770 1453 c 0,18,19
 1295 1453 1295 1453 1295 1070 c 0,20,21
 1295 950 1295 950 1211.5 859 c 128,-1,22
 1128 768 1128 768 996 748 c 1,23,24
 1332 703 1332 703 1332 393 c 0,25,26
 1332 140 1332 140 1111 58 c 0,27,28
 984 10 984 10 793 4 c 0,0,1
529 804 m 1,29,30
 641 796 641 796 714 796 c 128,-1,31
 787 796 787 796 856.5 812.5 c 0,32,33
 926 828 926 828 974 862 c 0,34,35
 1076 932 1076 932 1076 1064 c 0,36,37
 1076 1260 1076 1260 885 1308 c 0,38,39
 818 1324 818 1324 723 1324 c 1,40,-1
 529 1316 l 1,41,-1
 529 804 l 1,29,30
737 680 m 0,42,43
 657 680 657 680 603 680 c 128,-1,44
 549 680 549 680 529 678 c 1,45,-1
 529 126 l 1,46,-1
 775 126 l 2,47,48
 948 126 948 126 1027.5 194.5 c 128,-1,49
 1107 263 1107 263 1107 398 c 0,50,51
 1107 680 1107 680 737 680 c 0,42,43
EndSplineSet
EndChar

StartChar: C
Encoding: 67 67 41
Width: 1375
GlyphClass: 2
Flags: W
LayerCount: 2
Fore
SplineSet
1291 221 m 1,0,-1
 1306 82 l 1,1,2
 1103 -37 1103 -37 814 -37 c 0,3,4
 500 -36 500 -36 315 142 c 0,5,6
 117 333 117 333 117 685 c 0,7,8
 117 1054 117 1054 305 1256 c 128,-1,9
 493 1458 493 1458 839 1458 c 0,10,11
 1042 1458 1042 1458 1212 1389 c 0,12,13
 1256 1371 1256 1371 1283 1355 c 1,14,-1
 1259 1076 l 1,15,-1
 1136 1076 l 1,16,17
 1082 1220 1082 1220 1025 1274 c 0,18,19
 958 1337 958 1337 833 1337 c 128,-1,20
 708 1337 708 1337 618 1290 c 0,21,22
 528 1244 528 1244 470 1162 c 0,23,24
 358 1003 358 1003 358 728 c 0,25,26
 358 414 358 414 486 251 c 0,27,28
 607 98 607 98 817 98 c 128,-1,29
 1027 98 1027 98 1291 221 c 1,0,-1
EndSplineSet
EndChar

StartChar: D
Encoding: 68 68 42
Width: 1618
GlyphClass: 2
Flags: W
LayerCount: 2
Fore
SplineSet
753 1314 m 1,0,-1
 515 1310 l 1,1,-1
 515 126 l 1,2,3
 531 124 531 124 546 124 c 128,-1,4
 561 124 561 124 625.5 124 c 128,-1,5
 690 124 690 124 785 134.5 c 128,-1,6
 880 145 880 145 956 170.5 c 128,-1,7
 1032 196 1032 196 1089.5 239.5 c 128,-1,8
 1147 283 1147 283 1185 349 c 0,9,10
 1261 481 1261 481 1261 683 c 128,-1,11
 1261 885 1261 885 1230.5 999.5 c 128,-1,12
 1200 1114 1200 1114 1137 1184 c 0,13,14
 1020 1314 1020 1314 753 1314 c 1,0,-1
78 1416 m 1,15,16
 374 1453 374 1453 781 1453 c 0,17,18
 1240 1454 1240 1454 1404 1162 c 0,19,20
 1500 991 1500 991 1501 710 c 0,21,22
 1502 243 1502 243 1188 100 c 0,23,24
 1007 18 1007 18 705 6 c 0,25,26
 564 0 564 0 422 0 c 128,-1,27
 280 0 280 0 91 -14 c 1,28,-1
 91 127 l 1,29,-1
 181 127 l 2,30,31
 256 127 256 127 284 136 c 1,32,33
 299 181 299 181 299 257 c 2,34,-1
 299 1145 l 2,35,36
 299 1226 299 1226 284 1288 c 1,37,38
 254 1299 254 1299 181 1299 c 2,39,-1
 78 1299 l 1,40,-1
 78 1416 l 1,15,16
EndSplineSet
EndChar

StartChar: E
Encoding: 69 69 43
Width: 1356
GlyphClass: 2
Flags: W
LayerCount: 2
Fore
SplineSet
78 1407 m 1,0,1
 240 1437 240 1437 592 1437 c 2,2,-1
 1204 1437 l 1,3,-1
 1231 1308 l 1,4,5
 1258 1173 1258 1173 1258 1144 c 1,6,-1
 1111 1138 l 1,7,-1
 1103 1188 l 1,8,9
 1092 1246 1092 1246 1080 1282 c 1,10,11
 1019 1310 1019 1310 823 1310 c 0,12,13
 795 1310 795 1310 515 1303 c 1,14,-1
 515 799 l 1,15,-1
 855 799 l 2,16,17
 903 799 903 799 921 812 c 0,18,19
 955 836 955 836 976 910 c 1,20,-1
 1028 910 l 1,21,22
 1028 730 1028 730 1015 555 c 1,23,-1
 952 555 l 1,24,25
 928 630 928 630 907 649 c 0,26,27
 875 679 875 679 822 679 c 2,28,-1
 515 679 l 1,29,-1
 515 126 l 1,30,-1
 971 126 l 2,31,32
 1080 126 1080 126 1119 160 c 1,33,34
 1137 213 1137 213 1146 327 c 1,35,-1
 1270 325 l 1,36,-1
 1270 209 l 2,37,38
 1270 141 1270 141 1260 21 c 1,39,40
 1167 -7 1167 -7 1059.5 -10.5 c 128,-1,41
 952 -14 952 -14 869 -14 c 1,42,-1
 407 0 l 1,43,44
 202 0 202 0 89 -14 c 1,45,-1
 89 126 l 1,46,-1
 178 126 l 2,47,48
 254 126 254 126 281 135 c 1,49,50
 297 177 297 177 297 256 c 2,51,-1
 297 1174 l 2,52,53
 297 1244 297 1244 280 1289 c 1,54,55
 256 1299 256 1299 189 1299 c 2,56,-1
 78 1299 l 1,57,-1
 78 1407 l 1,0,1
EndSplineSet
EndChar

StartChar: F
Encoding: 70 70 44
Width: 1339
GlyphClass: 2
Flags: W
LayerCount: 2
Fore
SplineSet
1078 1282 m 1,0,1
 1020 1310 1020 1310 911.5 1310 c 128,-1,2
 803 1310 803 1310 523 1303 c 1,3,-1
 523 803 l 1,4,-1
 820 803 l 2,5,6
 866 803 866 803 885 817 c 0,7,8
 920 843 920 843 940 910 c 1,9,-1
 992 910 l 1,10,11
 992 717 992 717 980 555 c 1,12,-1
 917 555 l 1,13,14
 893 626 893 626 873 644 c 0,15,16
 842 672 842 672 787 672 c 2,17,-1
 523 672 l 1,18,-1
 523 259 l 2,19,20
 523 184 523 184 538 135 c 1,21,22
 566 126 566 126 641 126 c 2,23,-1
 731 126 l 1,24,-1
 731 -14 l 1,25,26
 485 0 485 0 399.5 0 c 128,-1,27
 314 0 314 0 119 -13 c 1,28,-1
 98 -14 l 1,29,-1
 98 126 l 1,30,-1
 187 126 l 2,31,32
 262 126 262 126 290 135 c 1,33,34
 305 174 305 174 305 243 c 2,35,-1
 305 1178 l 2,36,37
 305 1251 305 1251 289 1289 c 1,38,39
 264 1299 264 1299 197 1299 c 2,40,-1
 78 1299 l 1,41,-1
 78 1407 l 1,42,43
 337 1437 337 1437 772 1437 c 2,44,-1
 1212 1437 l 1,45,46
 1242 1250 1242 1250 1246 1201.5 c 128,-1,47
 1250 1153 1250 1153 1251 1144 c 1,48,-1
 1105 1138 l 1,49,50
 1105 1206 1105 1206 1078 1282 c 1,0,1
EndSplineSet
EndChar

StartChar: G
Encoding: 71 71 45
Width: 1395
GlyphClass: 2
Flags: W
LayerCount: 2
Fore
SplineSet
1350 101 m 1,0,1
 1148 -37 1148 -37 842 -37 c 0,2,3
 519 -38 519 -38 327 136 c 0,4,5
 117 326 117 326 117 683 c 0,6,7
 116 1064 116 1064 328 1266 c 0,8,9
 529 1458 529 1458 896 1458 c 0,10,11
 1091 1458 1091 1458 1256 1389 c 0,12,13
 1299 1371 1299 1371 1324 1355 c 1,14,-1
 1299 1076 l 1,15,-1
 1176 1076 l 1,16,17
 1122 1221 1122 1221 1064 1274 c 0,18,19
 996 1337 996 1337 868.5 1337 c 128,-1,20
 741 1337 741 1337 644.5 1293 c 0,21,22
 548 1250 548 1250 484 1168 c 0,23,24
 358 1008 358 1008 358 705 c 0,25,26
 358 427 358 427 482 265 c 0,27,28
 611 97 611 97 844 97 c 0,29,30
 1026 97 1026 97 1140 152 c 1,31,-1
 1140 384 l 2,32,33
 1140 469 1140 469 1126 513 c 1,34,35
 1088 527 1088 527 1019 527 c 2,36,-1
 901 527 l 1,37,-1
 901 635 l 1,38,39
 918 636 918 636 944.5 639 c 128,-1,40
 971 642 971 642 1012 645 c 0,41,42
 1121 653 1121 653 1198 653 c 2,43,-1
 1301 653 l 2,44,45
 1327 653 1327 653 1356 652 c 1,46,47
 1350 508 1350 508 1350 485 c 2,48,-1
 1350 101 l 1,0,1
EndSplineSet
EndChar

StartChar: H
Encoding: 72 72 46
Width: 1696
GlyphClass: 2
Flags: W
LayerCount: 2
Fore
SplineSet
1614 -14 m 1,0,1
 1501 0 1501 0 1297 0 c 128,-1,2
 1093 0 1093 0 981 -14 c 1,3,-1
 981 126 l 1,4,-1
 1070 126 l 2,5,6
 1145 126 1145 126 1173 135 c 1,7,8
 1189 176 1189 176 1189 256 c 2,9,-1
 1189 676 l 1,10,-1
 506 676 l 1,11,-1
 506 259 l 2,12,13
 506 181 506 181 520 135 c 1,14,15
 550 126 550 126 623 126 c 2,16,-1
 713 126 l 1,17,-1
 713 -14 l 1,18,19
 600 0 600 0 396 0 c 128,-1,20
 192 0 192 0 80 -14 c 1,21,-1
 80 126 l 1,22,-1
 169 126 l 2,23,24
 244 126 244 126 272 135 c 1,25,26
 288 179 288 179 288 256 c 2,27,-1
 288 1181 l 2,28,29
 288 1252 288 1252 271 1301 c 1,30,31
 241 1312 241 1312 168 1312 c 2,32,-1
 78 1312 l 1,33,-1
 78 1422 l 1,34,35
 207 1437 207 1437 418.5 1437 c 128,-1,36
 630 1437 630 1437 716 1422 c 1,37,-1
 716 1312 l 1,38,-1
 623 1312 l 2,39,40
 552 1312 552 1312 520 1301 c 1,41,42
 506 1255 506 1255 506 1181 c 2,43,-1
 506 811 l 1,44,-1
 1189 811 l 1,45,-1
 1189 1181 l 2,46,47
 1189 1255 1189 1255 1173 1301 c 1,48,49
 1143 1312 1143 1312 1070 1312 c 2,50,-1
 980 1312 l 1,51,-1
 980 1422 l 1,52,53
 1109 1437 1109 1437 1320.5 1437 c 128,-1,54
 1532 1437 1532 1437 1618 1422 c 1,55,-1
 1618 1312 l 1,56,-1
 1525 1312 l 2,57,58
 1452 1312 1452 1312 1422 1301 c 1,59,60
 1406 1248 1406 1248 1406 1181 c 2,61,-1
 1406 259 l 2,62,63
 1406 184 1406 184 1421 135 c 1,64,65
 1449 126 1449 126 1524 126 c 2,66,-1
 1614 126 l 1,67,-1
 1614 -14 l 1,0,1
EndSplineSet
EndChar

StartChar: I
Encoding: 73 73 47
Width: 792
GlyphClass: 2
Flags: W
LayerCount: 2
Fore
SplineSet
712 -14 m 1,0,1
 603 0 603 0 404.5 0 c 128,-1,2
 206 0 206 0 79 -14 c 1,3,-1
 79 126 l 1,4,-1
 168 126 l 2,5,6
 243 126 243 126 271 135 c 1,7,8
 287 179 287 179 287 256 c 2,9,-1
 287 1187 l 2,10,11
 287 1255 287 1255 271 1301 c 1,12,13
 241 1312 241 1312 168 1312 c 2,14,-1
 78 1312 l 1,15,-1
 78 1422 l 1,16,17
 207 1437 207 1437 419.5 1437 c 128,-1,18
 632 1437 632 1437 714 1422 c 1,19,-1
 714 1312 l 1,20,-1
 622 1312 l 2,21,22
 551 1312 551 1312 519 1301 c 1,23,24
 505 1247 505 1247 505 1187 c 2,25,-1
 505 259 l 2,26,27
 505 189 505 189 519 135 c 1,28,29
 553 126 553 126 622 126 c 2,30,-1
 712 126 l 1,31,-1
 712 -14 l 1,0,1
EndSplineSet
EndChar

StartChar: J
Encoding: 74 74 48
Width: 1023
GlyphClass: 2
Flags: W
LayerCount: 2
Fore
SplineSet
328 1422 m 1,0,1
 457 1437 457 1437 668.5 1437 c 128,-1,2
 880 1437 880 1437 966 1422 c 1,3,-1
 966 1312 l 1,4,-1
 874 1312 l 2,5,6
 800 1312 800 1312 771 1301 c 1,7,8
 755 1257 755 1257 755 1180 c 2,9,-1
 755 316 l 2,10,11
 755 -48 755 -48 547 -146 c 0,12,13
 481 -177 481 -177 426 -177 c 128,-1,14
 371 -177 371 -177 322.5 -172.5 c 128,-1,15
 274 -168 274 -168 222 -160 c 0,16,17
 96 -139 96 -139 47 -106 c 1,18,19
 47 -73 47 -73 67 214 c 1,20,-1
 208 208 l 1,21,22
 218 111 218 111 250 -36 c 1,23,24
 325 -51 325 -51 375 -51 c 128,-1,25
 425 -51 425 -51 458.5 -23 c 128,-1,26
 492 5 492 5 509 57 c 0,27,28
 537 143 537 143 537 351 c 2,29,-1
 537 1181 l 2,30,31
 537 1260 537 1260 521 1301 c 1,32,33
 492 1312 492 1312 418 1312 c 2,34,-1
 328 1312 l 1,35,-1
 328 1422 l 1,0,1
EndSplineSet
EndChar

StartChar: K
Encoding: 75 75 49
Width: 1465
GlyphClass: 2
Flags: W
LayerCount: 2
Fore
SplineSet
894 1422 m 1,0,1
 1036 1437 1036 1437 1222 1437 c 128,-1,2
 1408 1437 1408 1437 1469 1422 c 1,3,-1
 1462 1312 l 1,4,-1
 1384 1312 l 2,5,6
 1323 1312 1323 1312 1289 1301 c 1,7,8
 1204 1230 1204 1230 1124 1143 c 0,9,10
 936 937 936 937 864.5 860.5 c 128,-1,11
 793 784 793 784 763 751 c 1,12,-1
 1160 256 l 2,13,14
 1222 177 1222 177 1268 135 c 1,15,16
 1299 126 1299 126 1367 126 c 2,17,-1
 1446 126 l 1,18,-1
 1460 -14 l 1,19,20
 1345 0 1345 0 1157 0 c 128,-1,21
 969 0 969 0 843 -14 c 1,22,-1
 843 126 l 1,23,-1
 862 126 l 2,24,25
 937 126 937 126 959 135 c 1,26,27
 943 175 943 175 883 256 c 2,28,-1
 574 668 l 1,29,30
 551 691 551 691 534 725 c 1,31,32
 588 802 588 802 982 1221 c 0,33,34
 1020 1262 1020 1262 1022.5 1278 c 128,-1,35
 1025 1294 1025 1294 1025 1301 c 1,36,37
 1003 1312 1003 1312 940 1312 c 2,38,-1
 885 1312 l 1,39,-1
 894 1422 l 1,0,1
78 1422 m 1,40,41
 207 1437 207 1437 419.5 1437 c 128,-1,42
 632 1437 632 1437 714 1422 c 1,43,-1
 714 1312 l 1,44,-1
 622 1312 l 2,45,46
 551 1312 551 1312 519 1301 c 1,47,48
 505 1247 505 1247 505 1181 c 2,49,-1
 505 256 l 2,50,51
 505 179 505 179 521 135 c 1,52,53
 549 126 549 126 624 126 c 2,54,-1
 713 126 l 1,55,-1
 713 -14 l 1,56,57
 587 0 587 0 396.5 0 c 128,-1,58
 206 0 206 0 80 -14 c 1,59,-1
 80 126 l 1,60,-1
 169 126 l 2,61,62
 244 126 244 126 272 135 c 1,63,64
 287 174 287 174 287 243 c 2,65,-1
 287 1181 l 2,66,67
 287 1255 287 1255 271 1301 c 1,68,69
 241 1312 241 1312 168 1312 c 2,70,-1
 78 1312 l 1,71,-1
 78 1422 l 1,40,41
EndSplineSet
EndChar

StartChar: L
Encoding: 76 76 50
Width: 1331
GlyphClass: 2
Flags: W
LayerCount: 2
Fore
SplineSet
78 1422 m 1,0,1
 207 1437 207 1437 420 1437 c 128,-1,2
 633 1437 633 1437 716 1422 c 1,3,-1
 716 1312 l 1,4,-1
 623 1312 l 2,5,6
 552 1312 552 1312 520 1301 c 1,7,8
 506 1255 506 1255 506 1181 c 2,9,-1
 506 126 l 1,10,-1
 887 126 l 2,11,12
 1009 126 1009 126 1049 148 c 0,13,14
 1124 189 1124 189 1159 327 c 1,15,-1
 1245 315 l 1,16,-1
 1208 0 l 1,17,18
 1003 -14 1003 -14 862.5 -14 c 128,-1,19
 722 -14 722 -14 601.5 -7 c 128,-1,20
 481 0 481 0 343 0 c 128,-1,21
 205 0 205 0 79 -14 c 1,22,-1
 79 126 l 1,23,-1
 168 126 l 2,24,25
 243 126 243 126 271 135 c 1,26,27
 287 179 287 179 287 256 c 2,28,-1
 287 1181 l 2,29,30
 287 1255 287 1255 271 1301 c 1,31,32
 241 1312 241 1312 168 1312 c 2,33,-1
 78 1312 l 1,34,-1
 78 1422 l 1,0,1
EndSplineSet
EndChar

StartChar: M
Encoding: 77 77 51
Width: 2204
GlyphClass: 2
Flags: W
LayerCount: 2
Fore
SplineSet
2126 -14 m 1,0,1
 2008 0 2008 0 1812 0 c 128,-1,2
 1616 0 1616 0 1503 -14 c 1,3,-1
 1491 126 l 1,4,-1
 1572 126 l 2,5,6
 1638 126 1638 126 1653 138 c 0,7,8
 1677 155 1677 155 1677 193.5 c 128,-1,9
 1677 232 1677 232 1674 292.5 c 128,-1,10
 1671 353 1671 353 1666.5 429 c 128,-1,11
 1662 505 1662 505 1655.5 591.5 c 128,-1,12
 1649 678 1649 678 1638.5 820.5 c 128,-1,13
 1628 963 1628 963 1610 1194 c 1,14,15
 1275 252 1275 252 1177 0 c 1,16,-1
 989 0 l 1,17,18
 943 123 943 123 887.5 283.5 c 128,-1,19
 832 444 832 444 798 544 c 0,20,21
 738 717 738 717 581 1184 c 1,22,23
 519 264 519 264 519 227.5 c 128,-1,24
 519 191 519 191 523.5 172.5 c 128,-1,25
 528 154 528 154 540 144 c 0,26,27
 559 126 559 126 622 126 c 2,28,-1
 703 126 l 1,29,-1
 691 -14 l 1,30,31
 527 6 527 6 343.5 1 c 128,-1,32
 160 -4 160 -4 78 -14 c 1,33,-1
 100 126 l 1,34,-1
 200 126 l 2,35,36
 274 126 274 126 305 135 c 1,37,38
 341 198 341 198 348 253.5 c 128,-1,39
 355 309 355 309 363 387 c 128,-1,40
 371 465 371 465 379 554 c 128,-1,41
 387 643 387 643 394 736 c 0,42,43
 402 830 402 830 408 912 c 0,44,45
 428 1172 428 1172 428 1210 c 0,46,47
 428 1268 428 1268 418 1296 c 1,48,49
 376 1312 376 1312 310 1312 c 2,50,-1
 206 1312 l 1,51,-1
 206 1422 l 1,52,53
 315 1437 315 1437 433 1437 c 0,54,55
 603 1437 603 1437 698 1422 c 1,56,57
 792 1202 792 1202 1008 530 c 0,58,59
 1102 237 1102 237 1112 224 c 1,60,61
 1386 1055 1386 1055 1530 1422 c 1,62,63
 1630 1437 1630 1437 1738 1437 c 0,64,65
 1882 1437 1882 1437 2002 1422 c 1,66,-1
 2012 1312 l 1,67,-1
 1926 1312 l 2,68,69
 1846 1312 1846 1312 1821 1292 c 1,70,71
 1817 1273 1817 1273 1817 1251 c 0,72,73
 1817 1225 1817 1225 1822 1167 c 2,74,-1
 1892 256 l 2,75,76
 1895 212 1895 212 1918 138 c 1,77,78
 1969 126 1969 126 2051 126 c 2,79,-1
 2104 126 l 1,80,-1
 2126 -14 l 1,0,1
EndSplineSet
EndChar

StartChar: N
Encoding: 78 78 52
Width: 1666
GlyphClass: 2
Flags: W
LayerCount: 2
Fore
SplineSet
682 -14 m 1,0,1
 581 0 581 0 399 0 c 128,-1,2
 217 0 217 0 101 -14 c 1,3,-1
 101 126 l 1,4,-1
 190 126 l 2,5,6
 265 126 265 126 293 135 c 1,7,8
 309 176 309 176 309 256 c 2,9,-1
 308 1181 l 2,10,11
 308 1260 308 1260 292 1301 c 1,12,13
 262 1312 262 1312 189 1312 c 2,14,-1
 78 1312 l 1,15,-1
 78 1422 l 1,16,17
 262 1437 262 1437 334 1437 c 0,18,19
 481 1437 481 1437 531 1424 c 1,20,21
 974 741 974 741 1256 265 c 1,22,-1
 1242 1181 l 1,23,24
 1242 1260 1242 1260 1226 1301 c 1,25,26
 1191 1312 1191 1312 1123 1312 c 2,27,-1
 1022 1312 l 1,28,-1
 1022 1422 l 1,29,30
 1134 1437 1134 1437 1334 1437 c 128,-1,31
 1534 1437 1534 1437 1608 1422 c 1,32,-1
 1608 1312 l 1,33,-1
 1528 1312 l 2,34,35
 1460 1312 1460 1312 1425 1301 c 1,36,37
 1410 1258 1410 1258 1410 1100.5 c 128,-1,38
 1410 943 1410 943 1381 -14 c 1,39,-1
 1277 -14 l 2,40,41
 1222 -14 1222 -14 1186 7 c 1,42,-1
 460 1162 l 1,43,44
 469 901 469 901 471.5 559 c 128,-1,45
 474 217 474 217 477.5 187.5 c 128,-1,46
 481 158 481 158 488 135 c 1,47,48
 521 126 521 126 591 126 c 2,49,-1
 682 126 l 1,50,-1
 682 -14 l 1,0,1
EndSplineSet
EndChar

StartChar: O
Encoding: 79 79 53
Width: 1567
GlyphClass: 2
Flags: W
LayerCount: 2
Fore
SplineSet
1450 715 m 0,0,1
 1450 538 1450 538 1403.5 398.5 c 0,2,3
 1356 258 1356 258 1270 162 c 0,4,5
 1091 -37 1091 -37 784 -37 c 0,6,7
 475 -37 475 -37 295 162.5 c 128,-1,8
 115 362 115 362 115 714 c 0,9,10
 115 1067 115 1067 295 1264 c 0,11,12
 473 1458 473 1458 784 1458 c 0,13,14
 1092 1458 1092 1458 1270 1264 c 0,15,16
 1450 1067 1450 1067 1450 715 c 0,0,1
356 711 m 0,17,18
 356 408 356 408 462.5 247.5 c 128,-1,19
 569 87 569 87 784 87 c 0,20,21
 1098 87 1098 87 1182 436 c 0,22,23
 1210 554 1210 554 1210 714 c 0,24,25
 1210 1025 1210 1025 1099.5 1181 c 128,-1,26
 989 1337 989 1337 784 1337 c 0,27,28
 472 1336 472 1336 385 986 c 0,29,30
 356 868 356 868 356 711 c 0,17,18
EndSplineSet
EndChar

StartChar: P
Encoding: 80 80 54
Width: 1345
GlyphClass: 2
Flags: W
LayerCount: 2
Fore
SplineSet
732 -14 m 1,0,1
 623 0 623 0 424 0 c 128,-1,2
 225 0 225 0 99 -14 c 1,3,-1
 99 126 l 1,4,-1
 188 126 l 2,5,6
 263 126 263 126 291 135 c 1,7,8
 307 176 307 176 307 256 c 2,9,-1
 306 1186 l 2,10,11
 306 1266 306 1266 290 1305 c 1,12,13
 262 1312 262 1312 188 1312 c 2,14,-1
 78 1312 l 1,15,-1
 78 1422 l 1,16,17
 272 1448 272 1448 535 1448 c 128,-1,18
 798 1448 798 1448 913.5 1428 c 128,-1,19
 1029 1408 1029 1408 1107 1358 c 0,20,21
 1265 1257 1265 1257 1265 1012 c 0,22,23
 1265 583 1265 583 688 583 c 0,24,25
 604 583 604 583 524 588 c 1,26,-1
 524 259 l 2,27,28
 524 184 524 184 539 135 c 1,29,30
 572 126 572 126 642 126 c 2,31,-1
 732 126 l 1,32,-1
 732 -14 l 1,0,1
524 709 m 1,33,34
 586 707 586 707 682.5 707 c 128,-1,35
 779 707 779 707 849.5 729 c 0,36,37
 920 750 920 750 962 790 c 0,38,39
 1040 863 1040 863 1041 1011 c 0,40,41
 1041 1178 1041 1178 957 1246 c 0,42,43
 876 1312 876 1312 695 1312 c 2,44,-1
 524 1312 l 1,45,-1
 524 709 l 1,33,34
EndSplineSet
EndChar

StartChar: Q
Encoding: 81 81 55
Width: 1616
GlyphClass: 2
Flags: W
LayerCount: 2
Fore
SplineSet
779 84 m 0,0,1
 1205 84 1205 84 1205 712 c 0,2,3
 1206 1178 1206 1178 960 1298 c 0,4,5
 880 1337 880 1337 779 1337 c 128,-1,6
 678 1337 678 1337 598.5 1298 c 0,7,8
 518 1259 518 1259 464 1181 c 0,9,10
 352 1021 352 1021 352.5 709 c 128,-1,11
 353 397 353 397 462 240.5 c 128,-1,12
 571 84 571 84 779 84 c 0,0,1
1499 -118 m 1,13,14
 1301 -205 1301 -205 1128 -205 c 0,15,16
 880 -205 880 -205 696 -31 c 1,17,18
 274 16 274 16 155 416 c 0,19,20
 115 550 115 550 115 724 c 128,-1,21
 115 898 115 898 161.5 1034 c 128,-1,22
 208 1170 208 1170 294 1264 c 0,23,24
 470 1458 470 1458 779 1458 c 0,25,26
 1068 1458 1068 1458 1250 1266 c 0,27,28
 1438 1067 1438 1067 1440 736 c 1,29,30
 1440 484 1440 484 1332 290 c 0,31,32
 1207 64 1207 64 966 0 c 1,33,34
 1045 -66 1045 -66 1238 -66 c 0,35,36
 1279 -66 1279 -66 1472 -13 c 1,37,-1
 1499 -118 l 1,13,14
EndSplineSet
EndChar

StartChar: R
Encoding: 82 82 56
Width: 1443
GlyphClass: 2
Flags: W
LayerCount: 2
Fore
SplineSet
732 -14 m 1,0,1
 623 0 623 0 424 0 c 128,-1,2
 225 0 225 0 99 -14 c 1,3,-1
 99 126 l 1,4,-1
 188 126 l 2,5,6
 263 126 263 126 291 135 c 1,7,8
 307 176 307 176 307 256 c 2,9,-1
 306 1195 l 2,10,11
 306 1269 306 1269 290 1304 c 1,12,13
 263 1312 263 1312 198 1312 c 2,14,-1
 78 1312 l 1,15,-1
 78 1422 l 1,16,17
 243 1447 243 1447 661 1447 c 0,18,19
 976 1446 976 1446 1122 1356 c 0,20,21
 1280 1258 1280 1258 1281 1032 c 0,22,23
 1282 883 1282 883 1198 779 c 0,24,25
 1127 690 1127 690 994 644 c 1,26,27
 1030 458 1030 458 1166 288 c 0,28,29
 1244 190 1244 190 1322 146 c 0,30,31
 1358 126 1358 126 1387 126 c 2,32,-1
 1443 126 l 1,33,-1
 1443 -14 l 1,34,-1
 1292 -14 l 2,35,36
 1128 -14 1128 -14 1012 104 c 0,37,38
 886 232 886 232 825 494 c 0,39,40
 810 559 810 559 800 608 c 1,41,42
 639 608 639 608 524 613 c 1,43,-1
 524 259 l 2,44,45
 524 184 524 184 539 135 c 1,46,47
 572 126 572 126 642 126 c 2,48,-1
 732 126 l 1,49,-1
 732 -14 l 1,0,1
704 727 m 0,50,51
 1056 727 1056 727 1056 1023 c 0,52,53
 1056 1186 1056 1186 968 1250 c 0,54,55
 883 1312 883 1312 679 1312 c 2,56,-1
 524 1312 l 1,57,-1
 524 729 l 1,58,59
 600 727 600 727 704 727 c 0,50,51
EndSplineSet
EndChar

StartChar: S
Encoding: 83 83 57
Width: 1225
GlyphClass: 2
Flags: W
LayerCount: 2
Fore
SplineSet
1057 1360 m 1,0,1
 1032 1135 1032 1135 1025 1079 c 1,2,-1
 894 1088 l 1,3,4
 894 1234 894 1234 839 1286 c 0,5,6
 785 1338 785 1338 629 1337 c 0,7,8
 498 1337 498 1337 420 1274 c 0,9,10
 342 1212 342 1212 342 1108 c 0,11,12
 342 982 342 982 497 902 c 0,13,14
 546 876 546 876 634 841 c 128,-1,15
 722 806 722 806 817 761 c 128,-1,16
 912 716 912 716 980 662 c 0,17,18
 1122 550 1122 550 1121 387 c 0,19,20
 1121 186 1121 186 972 70 c 0,21,22
 833 -37 833 -37 614 -37 c 0,23,24
 278 -37 278 -37 98 132 c 1,25,-1
 145 400 l 1,26,-1
 295 394 l 1,27,28
 295 243 295 243 337 163 c 1,29,30
 423 84 423 84 614 84 c 0,31,32
 732 84 732 84 816 153 c 0,33,34
 898 222 898 222 899 327 c 0,35,36
 898 443 898 443 788 527 c 0,37,38
 706 590 706 590 560 648 c 128,-1,39
 414 706 414 706 345 744.5 c 128,-1,40
 276 783 276 783 228 831 c 0,41,42
 126 932 126 932 125 1076 c 0,43,44
 125 1247 125 1247 265 1349 c 0,45,46
 415 1458 415 1458 678 1458 c 0,47,48
 890 1458 890 1458 1002 1404 c 0,49,50
 1040 1386 1040 1386 1057 1360 c 1,0,1
EndSplineSet
EndChar

StartChar: T
Encoding: 84 84 58
Width: 1389
GlyphClass: 2
Flags: W
LayerCount: 2
Fore
SplineSet
1348 1422 m 1,0,-1
 1338 1068 l 1,1,-1
 1213 1068 l 1,2,3
 1213 1240 1213 1240 1179 1312 c 1,4,-1
 811 1312 l 1,5,-1
 811 259 l 2,6,7
 811 178 811 178 826 135 c 1,8,9
 859 126 859 126 929 126 c 2,10,-1
 1019 126 l 1,11,-1
 1019 -14 l 1,12,13
 910 0 910 0 710.5 0 c 128,-1,14
 511 0 511 0 385 -14 c 1,15,-1
 385 126 l 1,16,-1
 474 126 l 2,17,18
 550 126 550 126 577 135 c 1,19,20
 592 174 592 174 592 243 c 2,21,-1
 592 1312 l 1,22,-1
 224 1312 l 1,23,24
 190 1240 190 1240 190 1068 c 1,25,-1
 52 1068 l 1,26,-1
 41 1422 l 1,27,28
 71 1437 71 1437 277 1437 c 1,29,-1
 712 1430 l 1,30,-1
 1109 1437 l 1,31,32
 1315 1437 1315 1437 1348 1422 c 1,0,-1
EndSplineSet
EndChar

StartChar: U
Encoding: 85 85 59
Width: 1605
GlyphClass: 2
Flags: W
LayerCount: 2
Fore
SplineSet
986 1423 m 1,0,1
 1102 1437 1102 1437 1299.5 1437 c 128,-1,2
 1497 1437 1497 1437 1575 1422 c 1,3,-1
 1575 1312 l 1,4,-1
 1483 1312 l 2,5,6
 1409 1312 1409 1312 1380 1301 c 1,7,8
 1365 1258 1365 1258 1365 1181 c 2,9,-1
 1365 516 l 2,10,11
 1364 252 1364 252 1204 103 c 0,12,13
 1053 -37 1053 -37 794 -37 c 0,14,15
 240 -37 240 -37 240 586 c 2,16,-1
 240 1181 l 2,17,18
 240 1260 240 1260 224 1301 c 1,19,20
 194 1312 194 1312 121 1312 c 2,21,-1
 31 1312 l 1,22,-1
 31 1423 l 1,23,24
 152 1437 152 1437 369 1437 c 128,-1,25
 586 1437 586 1437 669 1422 c 1,26,-1
 669 1312 l 1,27,-1
 576 1312 l 2,28,29
 505 1312 505 1312 473 1301 c 1,30,31
 459 1257 459 1257 459 1181 c 2,32,-1
 459 501 l 2,33,34
 458 194 458 194 674 111 c 0,35,36
 742 85 742 85 824 85 c 0,37,38
 1014 85 1014 85 1104.5 205 c 128,-1,39
 1195 325 1195 325 1195 577 c 2,40,-1
 1195 1181 l 2,41,42
 1195 1260 1195 1260 1179 1301 c 1,43,44
 1149 1312 1149 1312 1076 1312 c 2,45,-1
 986 1312 l 1,46,-1
 986 1423 l 1,0,1
EndSplineSet
EndChar

StartChar: V
Encoding: 86 86 60
Width: 1633
GlyphClass: 2
Flags: W
LayerCount: 2
Fore
SplineSet
568 1312 m 2,0,1
 496 1312 496 1312 469 1301 c 1,2,3
 469 1278 469 1278 480.5 1249 c 128,-1,4
 492 1220 492 1220 507 1181 c 2,5,-1
 879 215 l 1,6,-1
 889 215 l 1,7,-1
 1238 1181 l 2,8,9
 1261 1244 1261 1244 1263 1301 c 1,10,11
 1235 1312 1235 1312 1163 1312 c 2,12,-1
 1093 1312 l 1,13,-1
 1098 1422 l 1,14,15
 1212 1437 1212 1437 1331 1437 c 0,16,17
 1566 1437 1566 1437 1633 1422 c 1,18,-1
 1609 1312 l 1,19,-1
 1557 1312 l 2,20,21
 1485 1312 1485 1312 1451 1301 c 1,22,23
 1422 1253 1422 1253 1383 1146 c 128,-1,24
 1344 1039 1344 1039 1288 888 c 128,-1,25
 1232 737 1232 737 1174 585 c 0,26,27
 1045 245 1045 245 945 0 c 1,28,-1
 841 0 l 2,29,30
 796 0 796 0 767 8 c 128,-1,31
 738 16 738 16 726 46 c 2,32,-1
 272 1181 l 2,33,34
 245 1247 245 1247 205 1301 c 1,35,36
 169 1312 169 1312 98 1312 c 2,37,-1
 23 1312 l 1,38,-1
 0 1422 l 1,39,40
 114 1437 114 1437 251 1437 c 0,41,42
 535 1437 535 1437 627 1422 c 1,43,-1
 640 1312 l 1,44,-1
 568 1312 l 2,0,1
EndSplineSet
EndChar

StartChar: W
Encoding: 87 87 61
Width: 2403
GlyphClass: 2
Flags: W
LayerCount: 2
Fore
SplineSet
18 1422 m 1,0,1
 132 1437 132 1437 269 1437 c 0,2,3
 553 1437 553 1437 645 1422 c 1,4,-1
 658 1312 l 1,5,-1
 586 1312 l 2,6,7
 514 1312 514 1312 487 1301 c 1,8,9
 491 1269 491 1269 525 1181 c 1,10,-1
 838 216 l 1,11,-1
 848 216 l 1,12,13
 939 470 939 470 1111 1103 c 0,14,15
 1132 1179 1132 1179 1140.5 1271 c 128,-1,16
 1149 1363 1149 1363 1154 1393 c 1,17,-1
 1275 1393 l 2,18,19
 1326 1392 1326 1392 1343 1362 c 0,20,21
 1349 1352 1349 1352 1354 1339 c 2,22,-1
 1719 209 l 1,23,-1
 1729 209 l 1,24,25
 1771 348 1771 348 1805 460 c 128,-1,26
 1839 572 1839 572 1866 663.5 c 128,-1,27
 1893 755 1893 755 1914.5 828.5 c 128,-1,28
 1936 902 1936 902 1954 964 c 0,29,30
 2019 1193 2019 1193 2023 1226 c 128,-1,31
 2027 1259 2027 1259 2027 1272 c 2,32,-1
 2027 1290 l 2,33,34
 2027 1296 2027 1296 2026 1301 c 1,35,36
 1997 1312 1997 1312 1925 1312 c 2,37,-1
 1855 1312 l 1,38,-1
 1849 1422 l 1,39,40
 1961 1437 1961 1437 2080 1437 c 0,41,42
 2315 1437 2315 1437 2385 1422 c 1,43,-1
 2371 1312 l 1,44,-1
 2319 1312 l 2,45,46
 2247 1312 2247 1312 2214 1301 c 1,47,48
 2187 1244 2187 1244 2158.5 1143.5 c 128,-1,49
 2130 1043 2130 1043 2087 895.5 c 128,-1,50
 2044 748 2044 748 1996 597 c 0,51,52
 1889 262 1889 262 1784 0 c 1,53,-1
 1617 0 l 2,54,55
 1583 0 1583 0 1573 14 c 0,56,57
 1548 48 1548 48 1544.5 71.5 c 128,-1,58
 1541 95 1541 95 1539 99 c 2,59,-1
 1244 1006 l 1,60,61
 1093 454 1093 454 906 0 c 1,62,-1
 746 0 l 2,63,64
 689 0 689 0 674 46 c 2,65,-1
 290 1181 l 2,66,67
 270 1237 270 1237 223 1301 c 1,68,69
 187 1312 187 1312 116 1312 c 2,70,-1
 41 1312 l 1,71,-1
 18 1422 l 1,0,1
EndSplineSet
EndChar

StartChar: X
Encoding: 88 88 62
Width: 1615
GlyphClass: 2
Flags: W
LayerCount: 2
Fore
SplineSet
1513 -14 m 1,0,1
 1409 0 1409 0 1222.5 0 c 128,-1,2
 1036 0 1036 0 921 -14 c 1,3,-1
 921 126 l 1,4,-1
 971 126 l 2,5,6
 1041 126 1041 126 1068 135 c 1,7,8
 1043 192 1043 192 997 259 c 2,9,-1
 767 589 l 1,10,-1
 528 259 l 2,11,12
 488 204 488 204 461 135 c 1,13,14
 488 126 488 126 558 126 c 2,15,-1
 609 126 l 1,16,-1
 609 -14 l 1,17,18
 496 0 496 0 377 -0 c 2,19,-1
 224 0 l 2,20,21
 120 0 120 0 16 -14 c 1,22,-1
 16 126 l 1,23,-1
 104 126 l 2,24,25
 172 126 172 126 203 135 c 1,26,27
 227 158 227 158 250.5 189.5 c 128,-1,28
 274 221 274 221 308 256 c 1,29,-1
 684 704 l 1,30,-1
 348 1181 l 2,31,32
 321 1219 321 1219 302.5 1248.5 c 128,-1,33
 284 1278 284 1278 261 1301 c 1,34,35
 225 1312 225 1312 152 1312 c 2,36,-1
 78 1312 l 1,37,-1
 63 1422 l 1,38,39
 164 1437 164 1437 294 1437 c 0,40,41
 578 1437 578 1437 680 1422 c 1,42,-1
 694 1312 l 1,43,-1
 633 1312 l 2,44,45
 560 1312 560 1312 537 1301 c 1,46,47
 544 1274 544 1274 561.5 1249.5 c 128,-1,48
 579 1225 579 1225 592 1206 c 2,49,-1
 827 859 l 1,50,-1
 1079 1181 l 2,51,52
 1132 1248 1132 1248 1155 1301 c 1,53,54
 1132 1312 1132 1312 1060 1312 c 2,55,-1
 1020 1312 l 1,56,-1
 1034 1422 l 1,57,58
 1169 1437 1169 1437 1290 1437 c 0,59,60
 1512 1437 1512 1437 1568 1422 c 1,61,-1
 1556 1312 l 1,62,-1
 1474 1312 l 2,63,64
 1402 1312 1402 1312 1363 1301 c 1,65,66
 1326 1265 1326 1265 1257 1180 c 128,-1,67
 1188 1095 1188 1095 1133.5 1028.5 c 0,68,69
 1078 962 1078 962 1036 911 c 0,70,71
 965 826 965 826 900 753 c 1,72,-1
 1267 256 l 2,73,74
 1340 158 1340 158 1366 135 c 1,75,76
 1397 126 1397 126 1465 126 c 2,77,-1
 1513 126 l 1,78,-1
 1513 -14 l 1,0,1
EndSplineSet
EndChar

StartChar: Y
Encoding: 89 89 63
Width: 1588
GlyphClass: 2
Flags: W
LayerCount: 2
Fore
SplineSet
564 1312 m 2,0,1
 491 1312 491 1312 466 1301 c 1,2,3
 469 1267 469 1267 506 1206 c 1,4,-1
 827 659 l 1,5,6
 900 790 900 790 943.5 870.5 c 128,-1,7
 987 951 987 951 1013 999 c 128,-1,8
 1039 1047 1039 1047 1061 1089 c 0,9,10
 1140 1240 1140 1240 1153 1301 c 1,11,12
 1127 1312 1127 1312 1055 1312 c 2,13,-1
 985 1312 l 1,14,-1
 1009 1422 l 1,15,16
 1135 1437 1135 1437 1263 1437 c 0,17,18
 1523 1437 1523 1437 1594 1422 c 1,19,-1
 1554 1312 l 1,20,-1
 1469 1312 l 2,21,22
 1397 1312 1397 1312 1361 1301 c 1,23,24
 1350 1285 1350 1285 1338 1269 c 128,-1,25
 1326 1253 1326 1253 1320 1241 c 128,-1,26
 1314 1229 1314 1229 1294.5 1195.5 c 0,27,28
 1274 1162 1274 1162 1244 1111 c 0,29,30
 1183 1009 1183 1009 1095 860 c 128,-1,31
 1007 711 1007 711 891 517 c 1,32,-1
 891 259 l 2,33,34
 891 184 891 184 906 135 c 1,35,36
 939 126 939 126 1008 126 c 2,37,-1
 1099 126 l 1,38,-1
 1099 -14 l 1,39,40
 990 0 990 0 791 0 c 128,-1,41
 592 0 592 0 466 -14 c 1,42,-1
 466 126 l 1,43,-1
 555 126 l 2,44,45
 628 126 628 126 658 135 c 1,46,47
 670 170 670 170 677 256 c 1,48,-1
 677 490 l 1,49,-1
 268 1181 l 2,50,51
 245 1219 245 1219 231 1248.5 c 128,-1,52
 217 1278 217 1278 200 1301 c 1,53,54
 166 1312 166 1312 93 1312 c 2,55,-1
 19 1312 l 1,56,-1
 -10 1422 l 1,57,58
 108 1437 108 1437 243 1437 c 0,59,60
 524 1437 524 1437 618 1422 c 1,61,-1
 635 1312 l 1,62,-1
 564 1312 l 2,0,1
EndSplineSet
EndChar

StartChar: Z
Encoding: 90 90 64
Width: 1230
GlyphClass: 2
Flags: W
LayerCount: 2
Fore
SplineSet
155 1125 m 1,0,-1
 113 1405 l 1,1,2
 228 1437 228 1437 631 1437 c 2,3,-1
 1098 1437 l 1,4,5
 1140 1415 1140 1415 1140 1362 c 2,6,-1
 1140 1306 l 1,7,-1
 306 126 l 1,8,-1
 816 126 l 2,9,10
 894 126 894 126 932 172 c 0,11,12
 982 233 982 233 982 393 c 1,13,-1
 1144 393 l 1,14,-1
 1144 86 l 2,15,16
 1144 69 1144 69 1135 24 c 1,17,18
 1091 6 1091 6 1031 3 c 128,-1,19
 971 0 971 0 888 0 c 2,20,-1
 106 0 l 1,21,22
 74 24 74 24 74 81 c 2,23,-1
 74 133 l 1,24,-1
 888 1312 l 1,25,-1
 612 1312 l 2,26,27
 356 1312 356 1312 278 1263 c 0,28,29
 259 1251 259 1251 259 1235 c 0,30,31
 259 1180 259 1180 264 1127 c 1,32,33
 215 1127 215 1127 155 1125 c 1,0,-1
EndSplineSet
EndChar

StartChar: bracketleft
Encoding: 91 91 65
Width: 648
GlyphClass: 2
Flags: W
LayerCount: 2
Fore
SplineSet
575 -125 m 1,0,-1
 575 -160 l 2,1,2
 574 -224 574 -224 520 -228 c 0,3,4
 504 -230 504 -230 484 -229 c 2,5,-1
 205 -229 l 1,6,-1
 205 1564 l 1,7,-1
 475 1564 l 2,8,9
 530 1564 530 1564 545 1556 c 0,10,11
 575 1541 575 1541 575 1494 c 2,12,-1
 575 1461 l 1,13,-1
 366 1461 l 1,14,-1
 366 -125 l 1,15,-1
 575 -125 l 1,0,-1
EndSplineSet
EndChar

StartChar: backslash
Encoding: 92 92 66
Width: 891
GlyphClass: 2
Flags: W
LayerCount: 2
Fore
SplineSet
891 -66 m 1,0,-1
 782 -66 l 2,1,2
 733 -66 733 -66 706 -37 c 1,3,-1
 0 1490 l 1,4,-1
 102 1490 l 2,5,6
 138 1490 138 1490 157 1477.5 c 128,-1,7
 176 1465 176 1465 194 1443 c 1,8,-1
 891 -66 l 1,0,-1
EndSplineSet
EndChar

StartChar: bracketright
Encoding: 93 93 67
Width: 651
GlyphClass: 2
Flags: W
LayerCount: 2
Fore
SplineSet
285 -125 m 1,0,-1
 285 1461 l 1,1,-1
 76 1461 l 1,2,-1
 76 1494 l 2,3,4
 76 1527 76 1527 86 1542.5 c 128,-1,5
 96 1558 96 1558 122 1564 c 1,6,-1
 446 1564 l 1,7,-1
 446 -229 l 1,8,-1
 194 -229 l 2,9,10
 132 -230 132 -230 113 -222 c 0,11,12
 76 -207 76 -207 76 -160 c 2,13,-1
 76 -125 l 1,14,-1
 285 -125 l 1,0,-1
EndSplineSet
EndChar

StartChar: asciicircum
Encoding: 94 94 68
Width: 1191
GlyphClass: 2
Flags: W
LayerCount: 2
Fore
SplineSet
1059 505 m 1,0,1
 1084 455 1084 455 1084 428 c 128,-1,2
 1084 401 1084 401 1069 380 c 1,3,-1
 967 362 l 1,4,-1
 597 1003 l 1,5,-1
 234 364 l 1,6,-1
 165 380 l 2,7,8
 123 389 123 389 104 415 c 1,9,10
 124 469 124 469 144 505 c 2,11,-1
 540 1208 l 1,12,-1
 607 1208 l 2,13,14
 656 1208 656 1208 677 1172 c 2,15,-1
 1059 505 l 1,0,1
EndSplineSet
EndChar

StartChar: underscore
Encoding: 95 95 69
Width: 965
GlyphClass: 2
Flags: W
LayerCount: 2
Fore
SplineSet
975 -270 m 2,0,1
 975 -327 975 -327 929 -339 c 1,2,-1
 -10 -339 l 1,3,-1
 -10 -278 l 2,4,5
 -10 -215 -10 -215 52 -212 c 0,6,7
 70 -211 70 -211 93 -211 c 2,8,-1
 975 -211 l 1,9,-1
 975 -270 l 2,0,1
EndSplineSet
EndChar

StartChar: grave
Encoding: 96 96 70
Width: 1223
GlyphClass: 2
Flags: W
LayerCount: 2
Fore
SplineSet
393 1587 m 1,0,-1
 643 1587 l 1,1,-1
 832 1264 l 1,2,-1
 694 1264 l 1,3,-1
 393 1587 l 1,0,-1
EndSplineSet
EndChar

StartChar: a
Encoding: 97 97 71
Width: 1247
GlyphClass: 2
Flags: W
LayerCount: 2
Fore
SplineSet
982 269 m 2,0,1
 982 174 982 174 999 101 c 1,2,-1
 1159 101 l 1,3,-1
 1159 19 l 1,4,5
 1068 -13 1068 -13 902 -13 c 0,6,7
 811 -12 811 -12 790 -0 c 0,8,9
 753 22 753 22 753 95 c 1,10,-1
 751 115 l 1,11,12
 597 -24 597 -24 427 -24 c 0,13,14
 198 -24 198 -24 126 142 c 0,15,16
 102 197 102 197 102 271 c 0,17,18
 102 603 102 603 623 603 c 2,19,-1
 770 603 l 1,20,-1
 770 671 l 2,21,22
 770 822 770 822 728 888 c 0,23,24
 684 956 684 956 578 955 c 0,25,26
 418 955 418 955 320 830 c 0,27,28
 292 794 292 794 269 755 c 1,29,-1
 130 843 l 1,30,31
 145 930 145 930 259 993 c 0,32,33
 382 1061 382 1061 566 1061 c 0,34,35
 982 1061 982 1061 982 682 c 2,36,-1
 982 269 l 2,0,1
317 280 m 0,37,38
 317 101 317 101 516 101 c 0,39,40
 615 101 615 101 754 205 c 1,41,42
 770 349 770 349 770 489 c 1,43,-1
 612 489 l 2,44,45
 469 489 469 489 393 436 c 128,-1,46
 317 383 317 383 317 280 c 0,37,38
EndSplineSet
EndChar

StartChar: b
Encoding: 98 98 72
Width: 1337
GlyphClass: 2
Flags: W
LayerCount: 2
Fore
SplineSet
768 -13 m 1,0,-1
 218 0 l 1,1,-1
 198 0 l 2,2,3
 182 0 182 0 154 -1 c 128,-1,4
 126 -2 126 -2 119 -2 c 1,5,-1
 131 105 l 1,6,7
 183 122 183 122 200 143 c 0,8,9
 228 178 228 178 228 237 c 2,10,-1
 228 1323 l 2,11,12
 228 1392 228 1392 221 1441 c 1,13,14
 179 1455 179 1455 134 1455 c 2,15,-1
 37 1455 l 1,16,-1
 37 1542 l 1,17,18
 137 1569 137 1569 364 1569 c 0,19,20
 406 1569 406 1569 433 1566 c 1,21,22
 442 1526 442 1526 442 1464 c 2,23,-1
 442 913 l 1,24,25
 585 1062 585 1062 793 1062 c 0,26,27
 992 1062 992 1062 1108 929 c 0,28,29
 1224 795 1224 795 1225 551 c 0,30,31
 1225 291 1225 291 1087 133 c 0,32,33
 959 -13 959 -13 768 -13 c 1,0,-1
999 544 m 0,34,35
 999 947 999 947 749 947 c 0,36,37
 596 947 596 947 462 825 c 1,38,39
 442 689 442 689 442 546 c 0,40,41
 442 311 442 311 455 101 c 1,42,43
 597 87 597 87 684.5 87 c 128,-1,44
 772 87 772 87 826.5 116 c 0,45,46
 882 145 882 145 920 203 c 0,47,48
 1000 323 1000 323 999 544 c 0,34,35
EndSplineSet
EndChar

StartChar: c
Encoding: 99 99 73
Width: 1082
GlyphClass: 2
Flags: W
LayerCount: 2
Fore
SplineSet
988 184 m 1,0,-1
 1002 54 l 1,1,2
 870 -24 870 -24 648 -24 c 0,3,4
 410 -24 410 -24 264 114 c 0,5,6
 114 256 114 256 113 505 c 0,7,8
 112 764 112 764 270 916 c 0,9,10
 421 1060 421 1060 663 1061 c 0,11,12
 818 1062 818 1062 935 1006 c 0,13,14
 972 988 972 988 999 966 c 1,15,-1
 982 765 l 1,16,-1
 910 765 l 1,17,18
 862 859 862 859 798.5 903 c 128,-1,19
 735 947 735 947 654.5 947 c 128,-1,20
 574 947 574 947 517 918.5 c 128,-1,21
 460 890 460 890 419 839 c 0,22,23
 332 731 332 731 332 560 c 0,24,25
 332 330 332 330 432 210 c 0,26,27
 523 102 523 102 687.5 101.5 c 128,-1,28
 852 101 852 101 988 184 c 1,0,-1
EndSplineSet
EndChar

StartChar: d
Encoding: 100 100 74
Width: 1339
GlyphClass: 2
Flags: W
LayerCount: 2
Fore
SplineSet
709 1542 m 1,0,1
 824 1569 824 1569 1048 1569 c 0,2,3
 1088 1569 1088 1569 1105 1566 c 1,4,5
 1113 1539 1113 1539 1113 1486 c 2,6,-1
 1113 269 l 2,7,8
 1113 174 1113 174 1130 101 c 1,9,-1
 1303 101 l 1,10,-1
 1303 15 l 1,11,12
 1163 -20 1163 -20 984 -10 c 0,13,14
 932 -8 932 -8 916 28 c 0,15,16
 908 48 908 48 907 84 c 2,17,-1
 907 132 l 1,18,19
 784 -24 784 -24 557 -24 c 0,20,21
 366 -24 366 -24 244 108 c 0,22,23
 114 250 114 250 113 503 c 0,24,25
 114 772 114 772 234 922 c 0,26,27
 353 1070 353 1070 560 1069.5 c 128,-1,28
 767 1069 767 1069 900 936 c 1,29,-1
 900 1354 l 2,30,31
 900 1406 900 1406 893 1441 c 1,32,33
 849 1455 849 1455 806 1455 c 2,34,-1
 709 1455 l 1,35,-1
 709 1542 l 1,0,1
628 947 m 0,36,37
 342 947 342 947 342 524 c 128,-1,38
 342 101 342 101 623 101 c 0,39,40
 777 100 777 100 861 242 c 0,41,42
 888 288 888 288 903 345 c 1,43,44
 903 641 903 641 891 838 c 1,45,46
 822 914 822 914 698 940 c 0,47,48
 662 948 662 948 628 947 c 0,36,37
EndSplineSet
EndChar

StartChar: e
Encoding: 101 101 75
Width: 1171
GlyphClass: 2
Flags: W
LayerCount: 2
Fore
SplineSet
432.5 197.5 m 128,-1,1
 524 101 524 101 684 101 c 128,-1,2
 844 101 844 101 960 205 c 1,3,-1
 1046 167 l 1,4,5
 937 -24 937 -24 646 -24 c 0,6,7
 400 -24 400 -24 258 118 c 0,8,9
 112 264 112 264 113 519 c 0,10,11
 113 771 113 771 256 916 c 128,-1,12
 399 1061 399 1061 642 1061 c 0,13,14
 828 1060 828 1060 946 954 c 0,15,16
 1068 844 1068 844 1068 659 c 0,17,18
 1068 552 1068 552 1030 516 c 0,19,20
 1000 487 1000 487 916 487 c 2,21,-1
 330 487 l 1,22,0
 341 294 341 294 432.5 197.5 c 128,-1,1
851 604 m 1,23,24
 853 608 853 608 853 612 c 2,25,-1
 853 621 l 2,26,27
 854 850 854 850 722 924 c 0,28,29
 676 950 676 950 608 950 c 0,30,31
 347 950 347 950 329 604 c 1,32,-1
 851 604 l 1,23,24
EndSplineSet
EndChar

StartChar: f
Encoding: 102 102 76
Width: 786
GlyphClass: 2
Flags: W
LayerCount: 2
Fore
SplineSet
665 -13 m 1,0,1
 360 10 360 10 134 -13 c 1,2,-1
 136 71 l 1,3,4
 239 82 239 82 257.5 101.5 c 128,-1,5
 276 121 276 121 278.5 143.5 c 128,-1,6
 281 166 281 166 281 200 c 2,7,-1
 281 912 l 1,8,-1
 55 912 l 1,9,-1
 55 987 l 1,10,11
 79 1032 79 1032 162 1032 c 2,12,-1
 281 1032 l 1,13,-1
 281 1124 l 2,14,15
 281 1462 281 1462 533 1540 c 0,16,17
 612 1564 612 1564 725 1564 c 128,-1,18
 838 1564 838 1564 929 1512 c 1,19,-1
 929 1288 l 1,20,-1
 832 1288 l 1,21,22
 786 1452 786 1452 673 1452 c 0,23,24
 578 1452 578 1452 538 1392 c 0,25,26
 496 1328 496 1328 495 1170 c 2,27,-1
 495 1032 l 1,28,-1
 779 1032 l 1,29,-1
 779 980 l 2,30,31
 779 924 779 924 731 912 c 1,32,-1
 495 912 l 1,33,-1
 495 238 l 2,34,35
 495 194 495 194 497.5 165 c 128,-1,36
 500 136 500 136 516 118 c 0,37,38
 544 85 544 85 657 71 c 1,39,-1
 665 -13 l 1,0,1
EndSplineSet
EndChar

StartChar: g
Encoding: 103 103 77
Width: 1102
GlyphClass: 2
Flags: W
LayerCount: 2
Fore
SplineSet
689 883 m 128,-1,1
 631 947 631 947 518 947 c 128,-1,2
 405 947 405 947 352 882 c 128,-1,3
 299 817 299 817 299 686 c 0,4,5
 299 504 299 504 434 462 c 0,6,7
 475 450 475 450 523 449.5 c 128,-1,8
 571 449 571 449 612 462 c 0,9,10
 653 476 653 476 683 504 c 0,11,12
 747 565 747 565 747 692 c 128,-1,0
 747 819 747 819 689 883 c 128,-1,1
828.5 -221.5 m 128,-1,14
 841 -188 841 -188 841 -147 c 128,-1,15
 841 -106 841 -106 831 -71.5 c 0,16,17
 822 -37 822 -37 788 -12 c 0,18,19
 718 40 718 40 522 40 c 0,20,21
 482 40 482 40 422 37.5 c 128,-1,22
 362 35 362 35 330 34 c 1,23,24
 235 -82 235 -82 235 -149 c 0,25,26
 235 -273 235 -273 376 -316 c 0,27,28
 432 -333 432 -333 527 -333 c 128,-1,29
 622 -333 622 -333 684 -319 c 128,-1,30
 746 -305 746 -305 781 -280 c 128,-1,13
 816 -255 816 -255 828.5 -221.5 c 128,-1,14
533 1062 m 0,31,32
 630 1062 630 1062 750 1018 c 1,33,-1
 1003 1052 l 1,34,35
 1053 1052 1053 1052 1063 1033 c 0,36,37
 1075 1010 1075 1010 1075 936 c 2,38,-1
 1075 918 l 1,39,-1
 853 918 l 1,40,41
 937 817 937 817 937 716 c 128,-1,42
 937 615 937 615 911 544.5 c 128,-1,43
 885 474 885 474 829 424 c 0,44,45
 710 318 710 318 475 318 c 0,46,47
 419 318 419 318 338 332 c 1,48,49
 313 291 313 291 313 260.5 c 128,-1,50
 313 230 313 230 318.5 217 c 128,-1,51
 324 204 324 204 344 196 c 0,52,53
 385 180 385 180 503.5 180 c 128,-1,54
 622 180 622 180 716 168 c 128,-1,55
 810 156 810 156 880 122 c 0,56,57
 1030 48 1030 48 1029 -138 c 0,58,59
 1030 -358 1030 -358 750 -425 c 0,60,61
 650 -449 650 -449 515 -449 c 128,-1,62
 380 -449 380 -449 294 -424.5 c 128,-1,63
 208 -400 208 -400 153 -360 c 0,64,65
 47 -282 47 -282 47 -153 c 0,66,67
 47 7 47 7 229 60 c 1,68,-1
 229 65 l 1,69,70
 173 70 173 70 156 144 c 0,71,72
 151 166 151 166 151 214.5 c 128,-1,73
 151 263 151 263 181.5 318.5 c 128,-1,74
 212 374 212 374 275 390 c 1,75,-1
 275 394 l 1,76,77
 110 493 110 493 110 697 c 0,78,79
 110 862 110 862 226 962 c 0,80,81
 341 1062 341 1062 533 1062 c 0,31,32
EndSplineSet
EndChar

StartChar: h
Encoding: 104 104 78
Width: 1362
GlyphClass: 2
Flags: W
LayerCount: 2
Fore
SplineSet
1135 269 m 2,0,1
 1135 174 1135 174 1152 101 c 1,2,-1
 1305 101 l 1,3,-1
 1305 12 l 1,4,5
 1213 -13 1213 -13 1041 -13 c 0,6,7
 915 -13 915 -13 915 73 c 1,8,9
 921 281 l 1,10,-1
 921 644 l 2,11,12
 921 828 921 828 879 892 c 0,13,14
 844 946 844 946 751 946 c 0,15,16
 640 946 640 946 544 880 c 0,17,18
 451 815 451 815 442 747 c 1,19,-1
 442 226 l 2,20,21
 442 140 442 140 456 118 c 0,22,23
 478 84 478 84 562 71 c 1,24,-1
 570 -13 l 1,25,26
 296 10 296 10 100 -13 c 1,27,-1
 104 71 l 1,28,29
 191 82 191 82 207.5 102 c 128,-1,30
 224 122 224 122 226 144.5 c 128,-1,31
 228 167 228 167 228 200 c 2,32,-1
 228 1353 l 2,33,34
 228 1409 228 1409 220 1441 c 1,35,36
 180 1455 180 1455 135 1455 c 2,37,-1
 37 1455 l 1,38,-1
 37 1542 l 1,39,40
 151 1570 151 1570 355 1570 c 0,41,42
 417 1570 417 1570 428 1556 c 0,43,44
 442 1539 442 1539 442 1475 c 2,45,-1
 442 918 l 1,46,47
 515 987 515 987 616 1024 c 128,-1,48
 717 1061 717 1061 826 1061 c 0,49,50
 988 1061 988 1061 1061.5 983.5 c 128,-1,51
 1135 906 1135 906 1135 745 c 2,52,-1
 1135 269 l 2,0,1
EndSplineSet
EndChar

StartChar: i
Encoding: 105 105 79
Width: 640
GlyphClass: 2
Flags: W
LayerCount: 2
Fore
SplineSet
443 269 m 2,0,1
 443 174 443 174 460 101 c 1,2,-1
 604 101 l 1,3,-1
 614 11 l 1,4,5
 518 -13 518 -13 349 -13 c 0,6,7
 223 -13 223 -13 223 73 c 1,8,9
 230 281 l 1,10,-1
 230 842 l 2,11,12
 230 891 230 891 223 921 c 1,13,14
 187 936 187 936 137 936 c 2,15,-1
 40 936 l 1,16,-1
 40 1032 l 1,17,18
 120 1052 120 1052 256 1052 c 128,-1,19
 392 1052 392 1052 443 1032 c 1,20,-1
 443 269 l 2,0,1
208 1351.5 m 128,-1,22
 198 1377 198 1377 198 1424 c 128,-1,23
 198 1471 198 1471 236.5 1509 c 128,-1,24
 275 1547 275 1547 320 1547 c 128,-1,25
 365 1547 365 1547 390 1537 c 128,-1,26
 415 1527 415 1527 433 1509 c 0,27,28
 472 1470 472 1470 472 1423.5 c 128,-1,29
 472 1377 472 1377 461.5 1351.5 c 128,-1,30
 451 1326 451 1326 433 1307.5 c 128,-1,31
 415 1289 415 1289 390 1279 c 128,-1,32
 365 1269 365 1269 335 1269 c 128,-1,33
 305 1269 305 1269 280 1279 c 128,-1,34
 255 1289 255 1289 236.5 1307.5 c 128,-1,21
 218 1326 218 1326 208 1351.5 c 128,-1,22
EndSplineSet
EndChar

StartChar: j
Encoding: 106 106 80
Width: 810
GlyphClass: 2
Flags: W
LayerCount: 2
Fore
SplineSet
358.5 1351.5 m 128,-1,1
 348 1377 348 1377 348 1408 c 128,-1,2
 348 1439 348 1439 358.5 1465 c 128,-1,3
 369 1491 369 1491 387 1509 c 128,-1,4
 405 1527 405 1527 430 1537 c 128,-1,5
 455 1547 455 1547 485 1547 c 128,-1,6
 515 1547 515 1547 540 1537 c 128,-1,7
 565 1527 565 1527 583 1509 c 0,8,9
 622 1470 622 1470 622 1423.5 c 128,-1,10
 622 1377 622 1377 611.5 1351.5 c 128,-1,11
 601 1326 601 1326 583 1307.5 c 128,-1,12
 565 1289 565 1289 540 1279 c 128,-1,13
 515 1269 515 1269 485 1269 c 128,-1,14
 455 1269 455 1269 430 1279 c 128,-1,15
 405 1289 405 1289 387 1307.5 c 128,-1,0
 369 1326 369 1326 358.5 1351.5 c 128,-1,1
189 1032 m 1,16,17
 269 1052 269 1052 405 1052 c 128,-1,18
 541 1052 541 1052 592 1032 c 1,19,-1
 592 86 l 2,20,21
 592 -144 592 -144 507 -259 c 128,-1,22
 422 -374 422 -374 259 -374 c 0,23,24
 137 -374 137 -374 0 -333 c 1,25,-1
 47 -56 l 1,26,27
 107 -67 107 -67 153 -74 c 1,28,29
 153 -152 153 -152 167 -240 c 1,30,31
 251 -252 251 -252 281 -252 c 128,-1,32
 311 -252 311 -252 331.5 -222 c 128,-1,33
 352 -192 352 -192 362 -142 c 0,34,35
 378 -64 378 -64 379 104 c 2,36,-1
 379 842 l 2,37,38
 379 891 379 891 372 921 c 1,39,40
 336 936 336 936 286 936 c 2,41,-1
 189 936 l 1,42,-1
 189 1032 l 1,16,17
EndSplineSet
EndChar

StartChar: k
Encoding: 107 107 81
Width: 1245
GlyphClass: 2
Flags: W
LayerCount: 2
Fore
SplineSet
567 -13 m 1,0,1
 307 10 307 10 101 -13 c 1,2,-1
 104 72 l 1,3,4
 191 83 191 83 207.5 103 c 128,-1,5
 224 123 224 123 226 145.5 c 128,-1,6
 228 168 228 168 228 201 c 2,7,-1
 228 1337 l 2,8,9
 228 1400 228 1400 220 1440 c 1,10,11
 180 1454 180 1454 134 1454 c 2,12,-1
 37 1454 l 1,13,-1
 37 1541 l 1,14,15
 135 1562 135 1562 392 1572 c 1,16,17
 425 1550 425 1550 433.5 1522.5 c 128,-1,18
 442 1495 442 1495 442 1456 c 2,19,-1
 442 523 l 1,20,-1
 706 778 l 2,21,22
 820 887 820 887 821 918 c 0,23,24
 821 936 821 936 783 936 c 1,25,-1
 783 1032 l 1,26,-1
 1216 1032 l 1,27,-1
 1216 936 l 1,28,-1
 1178 936 l 2,29,30
 1114 936 1114 936 1044 894 c 0,31,32
 1024 882 1024 882 1012 872 c 2,33,-1
 669 566 l 1,34,-1
 1039 145 l 1,35,36
 1074 103 1074 103 1158 86 c 0,37,38
 1182 81 1182 81 1202 81 c 128,-1,39
 1222 81 1222 81 1234 84 c 1,40,-1
 1247 -14 l 1,41,42
 1022 12 1022 12 750 -13 c 1,43,-1
 750 75 l 1,44,45
 773 75 773 75 786 77 c 128,-1,46
 799 79 799 79 799 92 c 1,47,48
 780 124 780 124 734 179 c 1,49,-1
 495 470 l 1,50,-1
 442 432 l 1,51,-1
 442 226 l 2,52,53
 442 141 442 141 456 119 c 0,54,55
 478 85 478 85 562 72 c 1,56,-1
 567 -13 l 1,0,1
EndSplineSet
EndChar

StartChar: l
Encoding: 108 108 82
Width: 638
GlyphClass: 2
Flags: W
LayerCount: 2
Fore
SplineSet
212 73 m 1,0,-1
 219 281 l 1,1,-1
 219 1339 l 2,2,3
 219 1398 219 1398 210 1441 c 1,4,5
 170 1455 170 1455 123 1455 c 2,6,-1
 27 1455 l 1,7,-1
 27 1542 l 1,8,9
 151 1569 151 1569 323 1569 c 0,10,11
 409 1569 409 1569 430 1543 c 1,12,-1
 430 269 l 2,13,14
 430 174 430 174 447 101 c 1,15,-1
 611 101 l 1,16,-1
 611 11 l 1,17,18
 511 -13 511 -13 338 -13 c 0,19,20
 212 -13 212 -13 212 73 c 1,0,-1
EndSplineSet
EndChar

StartChar: m
Encoding: 109 109 83
Width: 2006
GlyphClass: 2
Flags: W
LayerCount: 2
Fore
SplineSet
1557 73 m 1,0,-1
 1564 281 l 1,1,-1
 1562 660 l 2,2,3
 1562 821 1562 821 1528 880 c 0,4,5
 1495 936 1495 936 1405 936 c 0,6,7
 1310 936 1310 936 1222 871 c 0,8,9
 1149 817 1149 817 1118 746 c 1,10,-1
 1118 237 l 2,11,12
 1118 142 1118 142 1132 121 c 0,13,14
 1157 85 1157 85 1248 72 c 1,15,-1
 1257 -13 l 1,16,17
 979 15 979 15 776 -13 c 1,18,-1
 780 72 l 1,19,20
 868 83 868 83 884 102 c 128,-1,21
 900 121 900 121 902 143 c 128,-1,22
 904 165 904 165 904 199 c 2,23,-1
 904 660 l 2,24,25
 904 825 904 825 870 881 c 0,26,27
 837 936 837 936 746 936 c 0,28,29
 656 936 656 936 567 872 c 0,30,31
 485 813 485 813 461 746 c 1,32,-1
 461 236 l 2,33,34
 460 142 460 142 474 121 c 0,35,36
 497 85 497 85 581 72 c 1,37,-1
 589 -13 l 1,38,39
 316 16 316 16 119 -13 c 1,40,-1
 122 72 l 1,41,42
 211 83 211 83 227 104.5 c 128,-1,43
 243 126 243 126 245 150 c 128,-1,44
 247 174 247 174 247 209 c 2,45,-1
 247 841 l 2,46,47
 247 889 247 889 240 921 c 1,48,49
 205 936 205 936 154 936 c 2,50,-1
 57 936 l 1,51,-1
 57 1032 l 1,52,53
 137 1052 137 1052 271 1052 c 128,-1,54
 405 1052 405 1052 456 1032 c 1,55,-1
 456 905 l 1,56,57
 633 1062 633 1062 839 1062 c 128,-1,58
 1045 1062 1045 1062 1101 885 c 1,59,60
 1258 1062 1258 1062 1480 1062 c 0,61,62
 1634 1062 1634 1062 1706 986.5 c 128,-1,63
 1778 911 1778 911 1778 748 c 2,64,-1
 1778 269 l 2,65,66
 1778 174 1778 174 1795 101 c 1,67,-1
 1939 101 l 1,68,-1
 1949 12 l 1,69,70
 1849 -13 1849 -13 1683 -13 c 0,71,72
 1557 -13 1557 -13 1557 73 c 1,0,-1
EndSplineSet
EndChar

StartChar: n
Encoding: 110 110 84
Width: 1382
GlyphClass: 2
Flags: W
LayerCount: 2
Fore
SplineSet
57 1032 m 1,0,1
 137 1052 137 1052 272 1052 c 128,-1,2
 407 1052 407 1052 456 1032 c 1,3,-1
 456 906 l 1,4,5
 571 1018 571 1018 735 1052 c 0,6,7
 786 1062 786 1062 842 1062 c 128,-1,8
 898 1062 898 1062 955.5 1044 c 128,-1,9
 1013 1026 1013 1026 1057 988 c 0,10,11
 1153 904 1153 904 1153 744 c 2,12,-1
 1153 269 l 2,13,14
 1153 174 1153 174 1170 101 c 1,15,-1
 1314 101 l 1,16,-1
 1325 12 l 1,17,18
 1224 -13 1224 -13 1058 -13 c 0,19,20
 934 -13 934 -13 934 74 c 1,21,-1
 940 289 l 1,22,-1
 940 651 l 2,23,24
 940 874 940 874 834 922 c 0,25,26
 802 936 802 936 764.5 936 c 128,-1,27
 727 936 727 936 683.5 921.5 c 128,-1,28
 640 907 640 907 599 883 c 0,29,30
 513 833 513 833 461 766 c 1,31,-1
 461 237 l 2,32,33
 460 142 460 142 474 121 c 0,34,35
 497 85 497 85 581 72 c 1,36,-1
 589 -13 l 1,37,38
 316 16 316 16 119 -13 c 1,39,-1
 122 72 l 1,40,41
 212 83 212 83 227.5 103.5 c 128,-1,42
 243 124 243 124 245 147 c 128,-1,43
 247 170 247 170 247 206 c 2,44,-1
 247 845 l 2,45,46
 247 891 247 891 240 921 c 1,47,48
 214 936 214 936 170 936 c 2,49,-1
 57 936 l 1,50,-1
 57 1032 l 1,0,1
EndSplineSet
EndChar

StartChar: o
Encoding: 111 111 85
Width: 1285
GlyphClass: 2
Flags: W
LayerCount: 2
Fore
SplineSet
342 519 m 0,0,1
 342 297 342 297 414.5 192 c 128,-1,2
 487 87 487 87 642 87 c 0,3,4
 876 87 876 87 926 330 c 0,5,6
 942 411 942 411 943 519 c 0,7,8
 943 733 943 733 870.5 839.5 c 128,-1,9
 798 946 798 946 642 946 c 0,10,11
 411 946 411 946 359 703 c 0,12,13
 342 623 342 623 342 519 c 0,0,1
1172 516 m 0,14,15
 1172 384 1172 384 1129.5 282.5 c 128,-1,16
 1087 181 1087 181 1015 113 c 0,17,18
 870 -24 870 -24 643 -24 c 0,19,20
 412 -24 412 -24 266 117 c 0,21,22
 112 265 112 265 113 518 c 0,23,24
 112 768 112 768 266 918 c 0,25,26
 414 1062 414 1062 643 1062 c 0,27,28
 872 1062 872 1062 1019 918 c 0,29,30
 1172 768 1172 768 1172 516 c 0,14,15
EndSplineSet
EndChar

StartChar: p
Encoding: 112 112 86
Width: 1327
GlyphClass: 2
Flags: W
LayerCount: 2
Fore
SplineSet
27 1032 m 1,0,1
 108 1052 108 1052 212 1052 c 0,2,3
 379 1052 379 1052 428 1032 c 1,4,-1
 430 917 l 1,5,6
 569 1062 569 1062 788 1062 c 0,7,8
 986 1062 986 1062 1100 924 c 0,9,10
 1216 785 1216 785 1215 537 c 0,11,12
 1214 266 1214 266 1078 114 c 0,13,14
 953 -24 953 -24 769 -24 c 128,-1,15
 585 -24 585 -24 432 91 c 1,16,-1
 432 -240 l 2,17,18
 432 -331 432 -331 446 -352 c 0,19,20
 469 -388 469 -388 553 -401 c 1,21,-1
 561 -489 l 1,22,23
 449 -471 449 -471 312.5 -471 c 128,-1,24
 176 -471 176 -471 90 -489 c 1,25,-1
 95 -401 l 1,26,27
 184 -388 184 -388 199.5 -368 c 128,-1,28
 215 -348 215 -348 217 -325 c 128,-1,29
 219 -302 219 -302 219 -266 c 2,30,-1
 219 831 l 2,31,32
 219 893 219 893 212 921 c 1,33,34
 176 936 176 936 124 936 c 2,35,-1
 27 936 l 1,36,-1
 27 1032 l 1,0,1
432 292 m 1,37,38
 481 198 481 198 546 149.5 c 128,-1,39
 611 101 611 101 694.5 101 c 128,-1,40
 778 101 778 101 832 131 c 128,-1,41
 886 161 886 161 920 216 c 0,42,43
 988 324 988 324 988 529 c 128,-1,44
 988 734 988 734 932 840 c 128,-1,45
 876 946 876 946 755 946 c 0,46,47
 579 946 579 946 442 802 c 1,48,-1
 432 292 l 1,37,38
EndSplineSet
EndChar

StartChar: q
Encoding: 113 113 87
Width: 1337
GlyphClass: 2
Flags: W
LayerCount: 2
Fore
SplineSet
624 101 m 0,0,1
 780 101 780 101 886 212 c 1,2,-1
 886 832 l 1,3,4
 747 946 747 946 573 946 c 0,5,6
 452 946 452 946 396 840 c 128,-1,7
 340 734 340 734 340 522 c 0,8,9
 340 218 340 218 496 131 c 0,10,11
 550 101 550 101 624 101 c 0,0,1
900 947 m 1,12,-1
 900 1032 l 1,13,14
 980 1052 980 1052 1115 1052 c 128,-1,15
 1250 1052 1250 1052 1301 1032 c 1,16,-1
 1301 936 l 1,17,-1
 1204 936 l 2,18,19
 1152 936 1152 936 1116 921 c 1,20,21
 1109 893 1109 893 1109 831 c 2,22,-1
 1109 -266 l 2,23,24
 1108 -343 1108 -343 1122 -360 c 0,25,26
 1144 -388 1144 -388 1233 -401 c 1,27,-1
 1238 -489 l 1,28,29
 1152 -471 1152 -471 1016 -471 c 128,-1,30
 880 -471 880 -471 767 -489 c 1,31,-1
 775 -401 l 1,32,33
 860 -388 860 -388 880 -354 c 0,34,35
 896 -328 896 -328 896 -235 c 2,36,-1
 896 91 l 1,37,38
 743 -24 743 -24 570 -24 c 0,39,40
 374 -24 374 -24 250 114 c 0,41,42
 114 266 114 266 113 537 c 0,43,44
 112 785 112 785 228 924 c 0,45,46
 342 1062 342 1062 547.5 1062 c 128,-1,47
 753 1062 753 1062 900 947 c 1,12,-1
EndSplineSet
EndChar

StartChar: r
Encoding: 114 114 88
Width: 994
GlyphClass: 2
Flags: W
LayerCount: 2
Fore
SplineSet
68 1032 m 1,0,1
 148 1052 148 1052 280 1052 c 128,-1,2
 412 1052 412 1052 463 1032 c 1,3,-1
 463 791 l 1,4,5
 552 932 552 932 603 977 c 0,6,7
 701 1062 701 1062 806.5 1062 c 128,-1,8
 912 1062 912 1062 963 1032 c 1,9,-1
 938 756 l 1,10,-1
 848 756 l 1,11,-1
 824 902 l 1,12,13
 797 905 797 905 782 907 c 128,-1,14
 767 909 767 909 738 909 c 128,-1,15
 709 909 709 909 658.5 880.5 c 128,-1,16
 608 852 608 852 566 804 c 0,17,18
 470 695 470 695 470 568 c 2,19,-1
 470 231 l 2,20,21
 470 140 470 140 484 119 c 0,22,23
 506 84 506 84 591 71 c 1,24,-1
 600 -13 l 1,25,26
 327 10 327 10 129 -13 c 1,27,-1
 133 71 l 1,28,29
 223 82 223 82 238.5 102.5 c 128,-1,30
 254 123 254 123 256 146 c 128,-1,31
 258 169 258 169 258 205 c 2,32,-1
 258 852 l 2,33,34
 258 895 258 895 250 921 c 1,35,36
 220 936 220 936 181 936 c 2,37,-1
 68 936 l 1,38,-1
 68 1032 l 1,0,1
EndSplineSet
EndChar

StartChar: s
Encoding: 115 115 89
Width: 1010
GlyphClass: 2
Flags: W
LayerCount: 2
Fore
SplineSet
854 997 m 1,0,1
 854 975 854 975 844 921 c 0,2,3
 820 798 820 798 811 750 c 1,4,-1
 711 767 l 1,5,6
 707 866 707 866 703 911 c 1,7,8
 639 946 639 946 517 946 c 128,-1,9
 395 946 395 946 350 909 c 128,-1,10
 305 872 305 872 305 821 c 128,-1,11
 305 770 305 770 321 742 c 0,12,13
 336 714 336 714 364 693 c 0,14,15
 408 659 408 659 510 624 c 2,16,-1
 612 588 l 2,17,18
 775 530 775 530 845 466 c 0,19,20
 920 397 920 397 920 306 c 128,-1,21
 920 215 920 215 888 155 c 0,22,23
 856 96 856 96 799 56 c 0,24,25
 684 -23 684 -23 493 -24 c 0,26,27
 316 -24 316 -24 162 42 c 0,28,29
 118 60 118 60 92 78 c 1,30,-1
 141 338 l 1,31,-1
 245 325 l 1,32,33
 257 186 257 186 263 132 c 1,34,35
 351 87 351 87 512 87 c 0,36,37
 664 87 664 87 706 184 c 0,38,39
 718 212 718 212 718 243.5 c 128,-1,40
 718 275 718 275 704 300 c 128,-1,41
 690 325 690 325 664 346 c 0,42,43
 622 381 622 381 523 419 c 2,44,-1
 437 452 l 2,45,46
 257 522 257 522 207 565 c 128,-1,47
 157 608 157 608 137 653 c 128,-1,48
 117 698 117 698 117 764.5 c 128,-1,49
 117 831 117 831 146 886.5 c 128,-1,50
 175 942 175 942 230 981 c 0,51,52
 344 1062 344 1062 549 1062 c 128,-1,53
 754 1062 754 1062 854 997 c 1,0,1
EndSplineSet
EndChar

StartChar: t
Encoding: 116 116 90
Width: 894
GlyphClass: 2
Flags: W
LayerCount: 2
Fore
SplineSet
538 -11 m 0,0,1
 242 -11 242 -11 242 299 c 2,2,-1
 242 912 l 1,3,-1
 39 912 l 1,4,-1
 39 966 l 2,5,6
 39 992 39 992 50.5 1000 c 128,-1,7
 62 1008 62 1008 86 1011 c 2,8,-1
 253 1032 l 1,9,-1
 280 1217 l 1,10,11
 283 1253 283 1253 305 1307 c 1,12,-1
 323 1355 l 1,13,-1
 455 1355 l 1,14,-1
 455 1032 l 1,15,-1
 777 1032 l 1,16,-1
 777 980 l 2,17,18
 776 937 776 937 764 926 c 0,19,20
 747 912 747 912 706 912 c 2,21,-1
 455 912 l 1,22,-1
 455 319 l 2,23,24
 455 100 455 100 600 100 c 0,25,26
 629 100 629 100 683 118 c 1,27,28
 687 151 687 151 691 182 c 128,-1,29
 695 213 695 213 698.5 246 c 128,-1,30
 702 279 702 279 706 309 c 1,31,-1
 837 319 l 1,32,-1
 847 48 l 1,33,34
 729 -11 729 -11 538 -11 c 0,0,1
EndSplineSet
EndChar

StartChar: u
Encoding: 117 117 91
Width: 1353
GlyphClass: 2
Flags: W
LayerCount: 2
Fore
SplineSet
739 1032 m 1,0,1
 826 1052 826 1052 956 1052 c 128,-1,2
 1086 1052 1086 1052 1128 1032 c 1,3,-1
 1128 269 l 2,4,5
 1128 174 1128 174 1145 101 c 1,6,-1
 1306 101 l 1,7,-1
 1306 15 l 1,8,9
 1194 -13 1194 -13 1099 -13 c 128,-1,10
 1004 -13 1004 -13 976.5 -10.5 c 128,-1,11
 949 -8 949 -8 932 2 c 0,12,13
 899 20 899 20 899 81 c 2,14,-1
 899 115 l 1,15,16
 800 42 800 42 749 21 c 0,17,18
 644 -24 644 -24 504 -24 c 0,19,20
 224 -24 224 -24 224 299 c 2,21,-1
 224 829 l 2,22,23
 224 881 224 881 213 925 c 1,24,25
 180 936 180 936 130 936 c 2,26,-1
 47 936 l 1,27,-1
 47 1032 l 1,28,29
 134 1052 134 1052 263 1052 c 128,-1,30
 392 1052 392 1052 436 1032 c 1,31,-1
 436 352 l 2,32,33
 436 223 436 223 456 182 c 0,34,35
 496 101 496 101 616 101 c 0,36,37
 698 100 698 100 806 150 c 0,38,39
 846 168 846 168 872 185 c 128,-1,40
 898 202 898 202 899 205 c 0,41,42
 916 309 916 309 916 531 c 2,43,-1
 916 829 l 2,44,45
 916 886 916 886 904 925 c 1,46,47
 873 936 873 936 822 936 c 2,48,-1
 739 936 l 1,49,-1
 739 1032 l 1,0,1
EndSplineSet
EndChar

StartChar: v
Encoding: 118 118 92
Width: 1319
GlyphClass: 2
Flags: W
LayerCount: 2
Fore
SplineSet
8 1032 m 1,0,1
 72 1052 72 1052 203 1052 c 0,2,3
 446 1052 446 1052 535 1032 c 1,4,-1
 552 936 l 1,5,-1
 497 936 l 2,6,7
 445 936 445 936 417 921 c 1,8,9
 421 901 421 901 430.5 879.5 c 128,-1,10
 440 858 440 858 482 739 c 0,11,12
 583 455 583 455 710 157 c 1,13,-1
 966 835 l 2,14,15
 975 858 975 858 981 879.5 c 128,-1,16
 987 901 987 901 993 921 c 1,17,18
 967 936 967 936 914 936 c 2,19,-1
 859 936 l 1,20,-1
 870 1032 l 1,21,22
 941 1052 941 1052 1098 1052 c 128,-1,23
 1255 1052 1255 1052 1313 1032 c 1,24,-1
 1313 936 l 1,25,-1
 1259 936 l 2,26,27
 1209 936 1209 936 1167 921 c 1,28,29
 1131 873 1131 873 1055 687 c 0,30,31
 979 502 979 502 947 424 c 0,32,33
 867 231 867 231 838 166 c 2,34,-1
 759 -8 l 1,35,-1
 647 -8 l 2,36,37
 597 -8 597 -8 584 0.5 c 128,-1,38
 571 9 571 9 562 20 c 1,39,-1
 218 835 l 2,40,41
 196 885 196 885 171 921 c 1,42,43
 132 936 132 936 79 936 c 2,44,-1
 24 936 l 1,45,-1
 8 1032 l 1,0,1
EndSplineSet
EndChar

StartChar: w
Encoding: 119 119 93
Width: 1906
GlyphClass: 2
Flags: W
LayerCount: 2
Fore
SplineSet
2 1032 m 1,0,1
 62 1052 62 1052 190 1052 c 0,2,3
 429 1052 429 1052 518 1032 c 1,4,-1
 535 936 l 1,5,-1
 480 936 l 2,6,7
 427 936 427 936 402 921 c 1,8,-1
 657 146 l 1,9,-1
 767 489 l 2,10,11
 789 558 789 558 812.5 631 c 128,-1,12
 836 704 836 704 858 772.5 c 128,-1,13
 880 841 880 841 899.5 900.5 c 128,-1,14
 919 960 919 960 933 1004 c 1,15,-1
 988 1004 l 2,16,17
 1030 1004 1030 1004 1055 998.5 c 128,-1,18
 1080 993 1080 993 1088 969 c 2,19,-1
 1360 133 l 1,20,-1
 1556 835 l 2,21,22
 1563 858 1563 858 1565.5 879.5 c 128,-1,23
 1568 901 1568 901 1577 921 c 1,24,25
 1551 936 1551 936 1504 936 c 2,26,-1
 1449 936 l 1,27,-1
 1460 1032 l 1,28,29
 1531 1052 1531 1052 1688 1052 c 128,-1,30
 1845 1052 1845 1052 1903 1032 c 1,31,-1
 1903 936 l 1,32,-1
 1849 936 l 2,33,34
 1797 936 1797 936 1757 921 c 1,35,36
 1721 822 1721 822 1685.5 722.5 c 128,-1,37
 1650 623 1650 623 1616 529.5 c 128,-1,38
 1582 436 1582 436 1551.5 351 c 128,-1,39
 1521 266 1521 266 1496 195.5 c 128,-1,40
 1471 125 1471 125 1452 72.5 c 128,-1,41
 1433 20 1433 20 1423 -8 c 1,42,-1
 1308 -8 l 2,43,44
 1246 -8 1246 -8 1228 8 c 0,45,46
 1204 29 1204 29 1186 83 c 2,47,-1
 974 710 l 1,48,49
 851 346 851 346 719 -8 c 1,50,-1
 604 -8 l 2,51,52
 508 -8 508 -8 496 35 c 1,53,-1
 210 835 l 2,54,55
 197 872 197 872 163 921 c 1,56,57
 124 936 124 936 72 936 c 2,58,-1
 18 936 l 1,59,-1
 2 1032 l 1,0,1
EndSplineSet
EndChar

StartChar: x
Encoding: 120 120 94
Width: 1241
GlyphClass: 2
Flags: W
LayerCount: 2
Fore
SplineSet
887 921 m 1,0,1
 865 936 865 936 819 936 c 2,2,-1
 764 936 l 1,3,-1
 788 1032 l 1,4,5
 870 1052 870 1052 985 1052 c 0,6,7
 1183 1052 1183 1052 1231 1032 c 1,8,-1
 1197 936 l 1,9,-1
 1154 936 l 2,10,11
 1103 936 1103 936 1057 921 c 1,12,-1
 934 771 l 1,13,14
 793 602 793 602 753 559 c 1,15,-1
 987 222 l 1,16,17
 1039 145 1039 145 1063 125 c 0,18,19
 1106 92 1106 92 1181 81 c 1,20,-1
 1221 -13 l 1,21,22
 1147 0 1147 0 971 0 c 128,-1,23
 795 0 795 0 732 -13 c 1,24,-1
 723 71 l 1,25,26
 809 82 809 82 809 112 c 0,27,28
 809 131 809 131 747 221 c 2,29,-1
 598 434 l 1,30,-1
 459 242 l 2,31,32
 386 142 386 142 386 113 c 128,-1,33
 386 84 386 84 460 71 c 1,34,-1
 426 -13 l 1,35,36
 344 8 344 8 102 -4 c 0,37,38
 42 -7 42 -7 10 -13 c 1,39,-1
 46 71 l 1,40,41
 148 82 148 82 180.5 106 c 128,-1,42
 213 130 213 130 233.5 156 c 128,-1,43
 254 182 254 182 286 221 c 2,44,-1
 528 515 l 1,45,-1
 295 835 l 2,46,47
 268 871 268 871 216 921 c 1,48,49
 171 936 171 936 119 936 c 2,50,-1
 86 936 l 1,51,-1
 59 1032 l 1,52,53
 120 1052 120 1052 256 1052 c 0,54,55
 504 1052 504 1052 596 1032 c 1,56,-1
 613 936 l 1,57,-1
 557 936 l 2,58,59
 506 936 506 936 484 921 c 1,60,61
 496 901 496 901 513 880 c 128,-1,62
 530 859 530 859 547 835 c 2,63,-1
 687 642 l 1,64,65
 754 727 754 727 887 921 c 1,0,1
EndSplineSet
EndChar

StartChar: y
Encoding: 121 121 95
Width: 1317
GlyphClass: 2
Flags: W
LayerCount: 2
Fore
SplineSet
8 1031 m 1,0,1
 75 1052 75 1052 205 1052 c 0,2,3
 443 1052 443 1052 536 1031 c 1,4,-1
 551 935 l 1,5,-1
 496 935 l 2,6,7
 437 935 437 935 411 920 c 1,8,9
 414 907 414 907 474 756 c 128,-1,10
 534 605 534 605 561 536 c 2,11,-1
 706 171 l 1,12,-1
 970 835 l 1,13,14
 977 858 977 858 984 879.5 c 128,-1,15
 991 901 991 901 996 921 c 1,16,17
 970 936 970 936 918 936 c 2,18,-1
 862 936 l 1,19,-1
 874 1032 l 1,20,21
 945 1052 945 1052 1102 1052 c 128,-1,22
 1259 1052 1259 1052 1317 1032 c 1,23,-1
 1317 936 l 1,24,-1
 1263 936 l 2,25,26
 1209 936 1209 936 1171 921 c 1,27,28
 1165 915 1165 915 1097 761 c 2,29,-1
 682 -196 l 2,30,31
 578 -435 578 -435 406 -475 c 0,32,33
 350 -488 350 -488 304 -488 c 128,-1,34
 258 -488 258 -488 232.5 -485.5 c 0,35,36
 207 -484 207 -484 186 -480 c 0,37,38
 142 -473 142 -473 130 -460 c 1,39,-1
 152 -321 l 1,40,41
 228 -349 228 -349 288.5 -349 c 128,-1,42
 349 -349 349 -349 383 -340 c 0,43,44
 416 -332 416 -332 448 -300 c 0,45,46
 505 -243 505 -243 590 -47 c 1,47,-1
 217 834 l 2,48,49
 193 890 193 890 170 920 c 1,50,51
 131 935 131 935 79 935 c 2,52,-1
 25 935 l 1,53,-1
 8 1031 l 1,0,1
EndSplineSet
EndChar

StartChar: z
Encoding: 122 122 96
Width: 1095
GlyphClass: 2
Flags: W
LayerCount: 2
Fore
SplineSet
108 1037 m 1,0,-1
 405 1032 l 1,1,-1
 865 1032 l 1,2,3
 913 1030 913 1030 927 1021 c 0,4,5
 952 1004 952 1004 952 955 c 2,6,-1
 952 877 l 1,7,-1
 295 105 l 1,8,-1
 698 105 l 2,9,10
 796 105 796 105 834 127 c 1,11,-1
 876 279 l 1,12,13
 924 283 924 283 972 283 c 1,14,-1
 978 115 l 2,15,16
 979 101 979 101 979 89.5 c 128,-1,17
 979 78 979 78 980 70 c 1,18,-1
 980 -10 l 1,19,20
 900 0 900 0 778 0 c 2,21,-1
 133 0 l 2,22,23
 107 0 107 0 99 10 c 0,24,25
 86 29 86 29 86 81 c 2,26,-1
 86 140 l 1,27,-1
 756 927 l 1,28,-1
 390 927 l 2,29,30
 292 927 292 927 254 905 c 1,31,-1
 212 753 l 1,32,33
 164 749 164 749 116 749 c 1,34,35
 108 877 108 877 108 944 c 2,36,-1
 108 1037 l 1,0,-1
EndSplineSet
EndChar

StartChar: braceleft
Encoding: 123 123 97
Width: 702
GlyphClass: 2
Flags: W
LayerCount: 2
Fore
SplineSet
394 1554 m 0,0,1
 446 1564 446 1564 522.5 1564 c 128,-1,2
 599 1564 599 1564 599 1510 c 2,3,-1
 599 1494 l 1,4,5
 466 1486 466 1486 427 1449 c 0,6,7
 393 1417 393 1417 393 1317 c 2,8,-1
 393 910 l 2,9,10
 393 708 393 708 258 665 c 1,11,12
 396 621 396 621 396 422 c 2,13,-1
 396 16 l 2,14,15
 396 -68 396 -68 414 -92.5 c 128,-1,16
 432 -117 432 -117 448.5 -125.5 c 0,17,18
 466 -134 466 -134 488 -142 c 0,19,20
 526 -155 526 -155 599 -161 c 1,21,-1
 599 -177 l 2,22,23
 599 -209 599 -209 587 -222 c 1,24,25
 551 -232 551 -232 494.5 -232 c 128,-1,26
 438 -232 438 -232 388.5 -221.5 c 128,-1,27
 339 -211 339 -211 304 -183 c 0,28,29
 232 -125 232 -125 232 17 c 2,30,-1
 232 437 l 2,31,32
 232 521 232 521 202 570.5 c 128,-1,33
 172 620 172 620 102 646 c 1,34,35
 101 660 101 660 101.5 676 c 128,-1,36
 102 692 102 692 100 703 c 1,37,38
 171 738 171 738 194 770 c 0,39,40
 232 823 232 823 232 896 c 2,41,-1
 232 1323 l 2,42,43
 232 1522 232 1522 394 1554 c 0,0,1
EndSplineSet
EndChar

StartChar: bar
Encoding: 124 124 98
Width: 1168
GlyphClass: 2
Flags: W
LayerCount: 2
Fore
SplineSet
580 1595 m 2,0,1
 641 1595 641 1595 656 1548 c 1,2,-1
 656 -248 l 1,3,-1
 586 -248 l 2,4,5
 548 -248 548 -248 519 -237 c 1,6,7
 510 -165 510 -165 510 -66 c 2,8,-1
 510 1595 l 1,9,-1
 580 1595 l 2,0,1
EndSplineSet
EndChar

StartChar: braceright
Encoding: 125 125 99
Width: 701
GlyphClass: 2
Flags: W
LayerCount: 2
Fore
SplineSet
102 1510 m 2,0,1
 102 1564 102 1564 183.5 1564 c 128,-1,2
 265 1564 265 1564 317 1552 c 128,-1,3
 369 1540 369 1540 402 1510 c 0,4,5
 465 1453 465 1453 465 1295 c 2,6,-1
 465 922 l 2,7,8
 464 846 464 846 484 815 c 0,9,10
 518 762 518 762 598 732 c 1,11,-1
 598 646 l 1,12,13
 481 606 481 606 469 472 c 0,14,15
 465 428 465 428 465 370 c 2,16,-1
 465 17 l 2,17,18
 465 -131 465 -131 391 -186 c 0,19,20
 330 -232 330 -232 191 -232 c 0,21,22
 102 -232 102 -232 102 -177 c 2,23,-1
 102 -161 l 1,24,25
 232 -152 232 -152 270 -118 c 0,26,27
 306 -85 306 -85 307 16 c 2,28,-1
 307 358 l 2,29,30
 307 489 307 489 326.5 542 c 128,-1,31
 346 595 346 595 372.5 623 c 128,-1,32
 399 651 399 651 443 665 c 1,33,34
 307 701 307 701 307 924 c 2,35,-1
 307 1293 l 2,36,37
 307 1420 307 1420 262 1456 c 0,38,39
 226 1485 226 1485 102 1494 c 1,40,-1
 102 1510 l 2,0,1
EndSplineSet
EndChar

StartChar: asciitilde
Encoding: 126 126 100
Width: 1205
GlyphClass: 2
Flags: W
LayerCount: 2
Fore
SplineSet
189 398 m 1,0,1
 126 465 126 465 113 495 c 1,2,3
 132 572 132 572 220 624 c 0,4,5
 299 672 299 672 352 671.5 c 128,-1,6
 405 671 405 671 444 661 c 128,-1,7
 483 651 483 651 523.5 636.5 c 128,-1,8
 564 622 564 622 604.5 604.5 c 0,9,10
 646 586 646 586 684 572 c 0,11,12
 776 538 776 538 820 538 c 128,-1,13
 864 538 864 538 897 548.5 c 128,-1,14
 930 559 930 559 956 575 c 0,15,16
 1002 604 1002 604 1026 645 c 1,17,18
 1076 580 1076 580 1090 543 c 1,19,20
 1068 473 1068 473 994 431 c 0,21,22
 929 394 929 394 866.5 394 c 128,-1,23
 804 394 804 394 762 404 c 128,-1,24
 720 414 720 414 680 429 c 128,-1,25
 640 444 640 444 601 462 c 128,-1,26
 562 480 562 480 524 495 c 0,27,28
 434 530 434 530 374 530 c 0,29,30
 270 530 270 530 189 398 c 1,0,1
EndSplineSet
EndChar

StartChar: cent
Encoding: 162 162 103
Width: 1206
GlyphClass: 2
Flags: W
LayerCount: 2
Fore
SplineSet
713 213 m 1,0,1
 880 213 880 213 999 350 c 1,2,-1
 1077 312 l 1,3,4
 1001 109 1001 109 713 90 c 1,5,-1
 713 -76 l 1,6,-1
 668 -76 l 2,7,8
 622 -76 622 -76 613 -62 c 0,9,10
 601 -45 601 -45 601 2 c 2,11,-1
 601 92 l 1,12,13
 396 114 396 114 280 247 c 0,14,15
 162 382 162 382 162 602 c 0,16,17
 162 832 162 832 285 983 c 0,18,19
 401 1125 401 1125 601 1168 c 1,20,-1
 601 1347 l 1,21,-1
 645 1347 l 2,22,23
 688 1346 688 1346 699 1334 c 0,24,25
 713 1317 713 1317 713 1274 c 2,26,-1
 713 1184 l 1,27,28
 734 1187 734 1187 753 1187 c 128,-1,29
 772 1187 772 1187 796 1186 c 128,-1,30
 820 1185 820 1185 851 1182 c 128,-1,31
 882 1179 882 1179 916 1173.5 c 128,-1,32
 950 1168 950 1168 981 1159 c 0,33,34
 1052 1138 1052 1138 1072 1108 c 1,35,36
 1072 1086 1072 1086 1069 1061 c 1,37,-1
 1020 885 l 1,38,-1
 920 906 l 1,39,40
 885 984 885 984 836.5 1024 c 128,-1,41
 788 1064 788 1064 713 1072 c 1,42,-1
 713 213 l 1,0,1
601 1064 m 1,43,44
 500 1024 500 1024 441 917.5 c 128,-1,45
 382 811 382 811 382 636 c 0,46,47
 382 398 382 398 512 288 c 0,48,49
 552 254 552 254 601 235 c 1,50,-1
 601 1064 l 1,43,44
EndSplineSet
EndChar

StartChar: sterling
Encoding: 163 163 104
Width: 1218
GlyphClass: 2
Flags: W
LayerCount: 2
Fore
SplineSet
551 529 m 0,0,1
 551 310 551 310 430 118 c 1,2,-1
 702 118 l 2,3,4
 779 118 779 118 834.5 121.5 c 128,-1,5
 890 125 890 125 933 145 c 0,6,7
 1014 183 1014 183 1079 333 c 1,8,-1
 1158 299 l 1,9,10
 1158 142 1158 142 1132 10 c 1,11,12
 1013 -7 1013 -7 821.5 -7 c 128,-1,13
 630 -7 630 -7 552 -6.5 c 128,-1,14
 474 -6 474 -6 399 -5 c 0,15,16
 319 -4 319 -4 150 0 c 1,17,18
 118 14 118 14 109 35.5 c 128,-1,19
 100 57 100 57 100 92 c 1,20,21
 238 135 238 135 296 196 c 0,22,23
 356 259 356 259 356 390.5 c 128,-1,24
 356 522 356 522 340 698 c 1,25,-1
 131 698 l 1,26,-1
 131 748 l 2,27,28
 132 788 132 788 142 795 c 0,29,30
 155 805 155 805 192 805 c 2,31,-1
 325 805 l 1,32,33
 294 991 294 991 294 1080.5 c 128,-1,34
 294 1170 294 1170 314 1228 c 128,-1,35
 334 1286 334 1286 367.5 1328 c 128,-1,36
 401 1370 401 1370 445.5 1397 c 128,-1,37
 490 1424 490 1424 540 1440 c 0,38,39
 627 1468 627 1468 705 1468 c 128,-1,40
 783 1468 783 1468 841.5 1463.5 c 128,-1,41
 900 1459 900 1459 956 1448 c 0,42,43
 1091 1422 1091 1422 1126 1375 c 1,44,45
 1127 1321 1127 1321 1127.5 1264.5 c 128,-1,46
 1128 1208 1128 1208 1131 1151 c 1,47,-1
 1008 1130 l 1,48,49
 978 1242 978 1242 914 1290 c 0,50,51
 848 1340 848 1340 732 1340.5 c 128,-1,52
 616 1341 616 1341 560.5 1271.5 c 128,-1,53
 505 1202 505 1202 505 1078 c 0,54,55
 505 1008 505 1008 512 955 c 2,56,-1
 530 805 l 1,57,-1
 867 805 l 1,58,-1
 867 756 l 2,59,60
 866 717 866 717 854 709 c 0,61,62
 839 698 839 698 802 698 c 2,63,-1
 543 698 l 1,64,65
 551 602 551 602 551 529 c 0,0,1
EndSplineSet
EndChar

StartChar: currency
Encoding: 164 164 105
Width: 1251
GlyphClass: 2
Flags: W
LayerCount: 2
Fore
SplineSet
308 730 m 0,0,1
 308 660 308 660 333 601 c 128,-1,2
 358 542 358 542 402 499 c 0,3,4
 494 408 494 408 627 408 c 0,5,6
 763 408 763 408 855 502 c 0,7,8
 947 595 947 595 947 731 c 0,9,10
 947 868 947 868 855 962 c 128,-1,11
 763 1056 763 1056 627 1055.5 c 0,12,13
 491 1054 491 1054 400 962 c 0,14,15
 308 868 308 868 308 730 c 0,0,1
356 1093 m 1,16,17
 478 1184 478 1184 624 1184 c 128,-1,18
 770 1184 770 1184 895 1092 c 1,19,-1
 1027 1224 l 1,20,21
 1065 1186 1065 1186 1081 1166.5 c 128,-1,22
 1097 1147 1097 1147 1097 1128.5 c 128,-1,23
 1097 1110 1097 1110 1096 1108 c 2,24,-1
 989 1002 l 1,25,26
 1079 885 1079 885 1079 729.5 c 128,-1,27
 1079 574 1079 574 988 462 c 1,28,-1
 1118 330 l 1,29,30
 1052 264 1052 264 1024 252 c 1,31,32
 995 263 995 263 953.5 308.5 c 128,-1,33
 912 354 912 354 897 369 c 1,34,35
 773 279 773 279 624.5 279 c 128,-1,36
 476 279 476 279 357 369 c 1,37,-1
 226 240 l 1,38,39
 159 304 159 304 146 328 c 1,40,41
 159 356 159 356 184 381 c 2,42,-1
 266 462 l 1,43,44
 176 576 176 576 176 731 c 128,-1,45
 176 886 176 886 266 1000 c 1,46,-1
 133 1131 l 1,47,48
 156 1152 156 1152 179.5 1176 c 128,-1,49
 203 1200 203 1200 226 1210 c 1,50,51
 257 1192 257 1192 276 1173 c 2,52,-1
 356 1093 l 1,16,17
EndSplineSet
EndChar

StartChar: yen
Encoding: 165 165 106
Width: 1624
GlyphClass: 2
Flags: W
LayerCount: 2
Fore
SplineSet
579 1328 m 2,0,1
 506 1328 506 1328 481 1317 c 1,2,3
 484 1283 484 1283 521 1222 c 1,4,-1
 847 659 l 1,5,6
 985 895 985 895 1060.5 1050.5 c 128,-1,7
 1136 1206 1136 1206 1146 1230 c 0,8,9
 1170 1290 1170 1290 1176 1317 c 1,10,11
 1150 1328 1150 1328 1078 1328 c 2,12,-1
 1008 1328 l 1,13,-1
 1029 1430 l 1,14,15
 1138 1443 1138 1443 1275 1443 c 0,16,17
 1543 1443 1543 1443 1614 1428 c 1,18,-1
 1574 1328 l 1,19,-1
 1492 1328 l 2,20,21
 1420 1328 1420 1328 1384 1317 c 1,22,23
 1343 1262 1343 1262 1310 1197 c 2,24,-1
 1291 1161 l 2,25,26
 1204 995 1204 995 1077 789 c 2,27,-1
 960 598 l 1,28,-1
 1186 598 l 1,29,-1
 1186 557 l 2,30,31
 1186 515 1186 515 1174 507 c 0,32,33
 1159 497 1159 497 1120 497 c 2,34,-1
 911 497 l 1,35,-1
 911 389 l 1,36,-1
 1186 389 l 1,37,-1
 1186 349 l 2,38,39
 1186 307 1186 307 1174 299 c 0,40,41
 1158 289 1158 289 1119 289 c 2,42,-1
 911 289 l 1,43,-1
 911 250 l 2,44,45
 911 175 911 175 926 126 c 1,46,47
 959 117 959 117 1028 117 c 2,48,-1
 1119 117 l 1,49,-1
 1119 -19 l 1,50,51
 967 0 967 0 812 0 c 128,-1,52
 657 0 657 0 486 -19 c 1,53,-1
 486 117 l 1,54,-1
 575 117 l 2,55,56
 648 117 648 117 678 126 c 1,57,58
 693 171 693 171 693 247 c 2,59,-1
 693 289 l 1,60,-1
 426 289 l 1,61,-1
 426 356 l 1,62,63
 454 389 454 389 527 389 c 2,64,-1
 693 389 l 1,65,-1
 693 488 l 1,66,-1
 688 497 l 1,67,-1
 426 497 l 1,68,-1
 426 564 l 1,69,70
 457 598 457 598 531 598 c 2,71,-1
 633 598 l 1,72,-1
 283 1197 l 2,73,74
 260 1235 260 1235 246.5 1264 c 128,-1,75
 233 1293 233 1293 215 1317 c 1,76,77
 181 1328 181 1328 108 1328 c 2,78,-1
 34 1328 l 1,79,-1
 10 1430 l 1,80,81
 112 1443 112 1443 255 1443 c 0,82,83
 544 1443 544 1443 638 1428 c 1,84,-1
 650 1328 l 1,85,-1
 579 1328 l 2,0,1
EndSplineSet
EndChar

StartChar: brokenbar
Encoding: 166 166 107
Width: 551
GlyphClass: 2
Flags: W
LayerCount: 2
Fore
SplineSet
265 354 m 2,0,1
 328 354 328 354 343 308 c 1,2,-1
 343 -447 l 1,3,-1
 285 -447 l 2,4,5
 232 -446 232 -446 222 -430 c 0,6,7
 208 -409 208 -409 209 -358 c 2,8,-1
 209 354 l 1,9,-1
 265 354 l 2,0,1
265 1535 m 2,10,11
 328 1535 328 1535 343 1488 c 1,12,-1
 343 732 l 1,13,-1
 285 732 l 2,14,15
 233 732 233 732 222 749 c 0,16,17
 209 771 209 771 209 822 c 2,18,-1
 209 1535 l 1,19,-1
 265 1535 l 2,10,11
EndSplineSet
EndChar

StartChar: section
Encoding: 167 167 108
Width: 1063
GlyphClass: 2
Flags: W
LayerCount: 2
Fore
SplineSet
670 483 m 1,0,1
 795 546 795 546 795 648 c 0,2,3
 796 742 796 742 576 846 c 0,4,5
 512 876 512 876 443 906 c 1,6,7
 325 845 325 845 325 744 c 0,8,9
 325 696 325 696 346 669 c 0,10,11
 381 624 381 624 441 592 c 0,12,13
 506 558 506 558 670 483 c 1,0,1
959 688 m 0,14,15
 959 495 959 495 801 419 c 1,16,17
 873 377 873 377 907 311.5 c 128,-1,18
 941 246 941 246 941 172.5 c 128,-1,19
 941 99 941 99 911.5 40.5 c 128,-1,20
 882 -18 882 -18 830 -58 c 0,21,22
 724 -138 724 -138 541 -137 c 0,23,24
 388 -136 388 -136 232 -66 c 0,25,26
 186 -46 186 -46 164 -23 c 1,27,28
 164 92 164 92 169 187 c 1,29,-1
 265 198 l 1,30,31
 320 25 320 25 454 -7 c 0,32,33
 500 -18 500 -18 552 -18 c 128,-1,34
 604 -18 604 -18 642.5 -8 c 128,-1,35
 681 2 681 2 709 22 c 0,36,37
 769 65 769 65 769 141 c 0,38,39
 770 212 770 212 678 266 c 0,40,41
 636 292 636 292 578 317 c 128,-1,42
 520 342 520 342 454.5 374.5 c 128,-1,43
 389 407 389 407 335 440.5 c 128,-1,44
 281 474 281 474 242 514 c 0,45,46
 160 598 160 598 160 704.5 c 128,-1,47
 160 811 160 811 200.5 871.5 c 128,-1,48
 241 932 241 932 326 971 c 1,49,50
 257 1022 257 1022 226 1080 c 128,-1,51
 195 1138 195 1138 195 1211.5 c 128,-1,52
 195 1285 195 1285 221 1341 c 128,-1,53
 247 1397 247 1397 298 1436 c 0,54,55
 405 1518 405 1518 615 1518 c 128,-1,56
 825 1518 825 1518 889 1442 c 1,57,-1
 852 1235 l 1,58,-1
 760 1254 l 1,59,60
 731 1339 731 1339 699 1362 c 0,61,62
 646 1400 646 1400 555 1400 c 128,-1,63
 464 1400 464 1400 413.5 1361.5 c 128,-1,64
 363 1323 363 1323 363 1251 c 0,65,66
 364 1187 364 1187 412 1141 c 0,67,68
 460 1096 460 1096 579 1043.5 c 128,-1,69
 698 991 698 991 773 949 c 128,-1,70
 848 907 848 907 889 867 c 0,71,72
 959 799 959 799 959 688 c 0,14,15
EndSplineSet
EndChar

StartChar: dieresis
Encoding: 168 168 109
Width: 877
GlyphClass: 2
Flags: W
LayerCount: 2
Fore
SplineSet
509 1367.5 m 128,-1,1
 500 1388 500 1388 500 1411.5 c 128,-1,2
 500 1435 500 1435 509 1455.5 c 128,-1,3
 518 1476 518 1476 533.5 1491 c 128,-1,4
 549 1506 549 1506 569.5 1515 c 128,-1,5
 590 1524 590 1524 613 1524 c 128,-1,6
 636 1524 636 1524 656.5 1515 c 0,7,8
 676 1506 676 1506 692 1491 c 0,9,10
 726 1459 726 1459 726 1423.5 c 128,-1,11
 726 1388 726 1388 717 1367.5 c 128,-1,12
 708 1347 708 1347 692.5 1332 c 128,-1,13
 677 1317 677 1317 656.5 1308 c 128,-1,14
 636 1299 636 1299 613 1299 c 128,-1,15
 590 1299 590 1299 569.5 1308 c 128,-1,16
 549 1317 549 1317 533.5 1332 c 128,-1,0
 518 1347 518 1347 509 1367.5 c 128,-1,1
165 1367.5 m 128,-1,18
 156 1388 156 1388 156 1411.5 c 128,-1,19
 156 1435 156 1435 165 1455.5 c 128,-1,20
 174 1476 174 1476 189.5 1491 c 128,-1,21
 205 1506 205 1506 225.5 1515 c 128,-1,22
 246 1524 246 1524 269 1524 c 128,-1,23
 292 1524 292 1524 312.5 1515 c 0,24,25
 332 1506 332 1506 348 1491 c 0,26,27
 382 1459 382 1459 382 1423.5 c 128,-1,28
 382 1388 382 1388 373 1367.5 c 128,-1,29
 364 1347 364 1347 348.5 1332 c 128,-1,30
 333 1317 333 1317 312.5 1308 c 128,-1,31
 292 1299 292 1299 269 1299 c 128,-1,32
 246 1299 246 1299 225.5 1308 c 128,-1,33
 205 1317 205 1317 189.5 1332 c 128,-1,17
 174 1347 174 1347 165 1367.5 c 128,-1,18
EndSplineSet
EndChar

StartChar: copyright
Encoding: 169 169 110
Width: 1774
GlyphClass: 2
Flags: W
LayerCount: 2
Fore
SplineSet
225 720 m 128,-1,1
 225 583 225 583 277 462.5 c 128,-1,2
 329 342 329 342 419 252 c 128,-1,3
 509 162 509 162 629.5 110 c 128,-1,4
 750 58 750 58 887 58 c 128,-1,5
 1024 58 1024 58 1144.5 110 c 128,-1,6
 1265 162 1265 162 1355 252 c 128,-1,7
 1445 342 1445 342 1497 462.5 c 128,-1,8
 1549 583 1549 583 1549 720 c 128,-1,9
 1549 857 1549 857 1497 977.5 c 128,-1,10
 1445 1098 1445 1098 1355 1188 c 128,-1,11
 1265 1278 1265 1278 1144.5 1330 c 128,-1,12
 1024 1382 1024 1382 887 1382 c 128,-1,13
 750 1382 750 1382 629.5 1330 c 128,-1,14
 509 1278 509 1278 419 1188 c 128,-1,15
 329 1098 329 1098 277 977.5 c 128,-1,0
 225 857 225 857 225 720 c 128,-1,1
113 720 m 128,-1,17
 113 827 113 827 140.5 925.5 c 128,-1,18
 168 1024 168 1024 218.5 1110 c 128,-1,19
 269 1196 269 1196 340 1267 c 128,-1,20
 411 1338 411 1338 497 1388.5 c 128,-1,21
 583 1439 583 1439 681.5 1466.5 c 128,-1,22
 780 1494 780 1494 887 1494 c 128,-1,23
 994 1494 994 1494 1092.5 1466.5 c 128,-1,24
 1191 1439 1191 1439 1277 1388.5 c 128,-1,25
 1363 1338 1363 1338 1434 1267 c 128,-1,26
 1505 1196 1505 1196 1555.5 1110 c 128,-1,27
 1606 1024 1606 1024 1633.5 925.5 c 128,-1,28
 1661 827 1661 827 1661 720 c 128,-1,29
 1661 613 1661 613 1633.5 514.5 c 128,-1,30
 1606 416 1606 416 1555.5 330 c 128,-1,31
 1505 244 1505 244 1434 173 c 128,-1,32
 1363 102 1363 102 1277 51.5 c 128,-1,33
 1191 1 1191 1 1092.5 -26.5 c 128,-1,34
 994 -54 994 -54 887 -54 c 128,-1,35
 780 -54 780 -54 681.5 -26.5 c 128,-1,36
 583 1 583 1 497 51.5 c 128,-1,37
 411 102 411 102 340 173 c 128,-1,38
 269 244 269 244 218.5 330 c 128,-1,39
 168 416 168 416 140.5 514.5 c 128,-1,16
 113 613 113 613 113 720 c 128,-1,17
1165 450 m 1,40,-1
 1176 347 l 1,41,42
 1069 282 1069 282 895 282 c 0,43,44
 706 282 706 282 590 393 c 0,45,46
 470 507 470 507 470 705 c 0,47,48
 470 915 470 915 594 1036 c 0,49,50
 713 1152 713 1152 898.5 1152 c 128,-1,51
 1084 1152 1084 1152 1173 1071 c 1,52,-1
 1160 911 l 1,53,-1
 1103 911 l 1,54,55
 1029 1062 1029 1062 890 1062 c 0,56,57
 783 1062 783 1062 713 975 c 0,58,59
 644 889 644 889 644 770 c 128,-1,60
 644 651 644 651 665.5 580.5 c 0,61,62
 688 510 688 510 724 465 c 0,63,64
 795 378 795 378 926.5 378 c 128,-1,65
 1058 378 1058 378 1165 450 c 1,40,-1
EndSplineSet
EndChar

StartChar: ordfeminine
Encoding: 170 170 111
Width: 793
GlyphClass: 2
Flags: W
LayerCount: 2
Fore
SplineSet
407 1119 m 2,0,1
 218 1119 218 1119 218 992 c 0,2,3
 218 949 218 949 248.5 921.5 c 128,-1,4
 279 894 279 894 325 894 c 0,5,6
 403 894 403 894 496 956 c 1,7,8
 507 1033 507 1033 507 1119 c 1,9,-1
 407 1119 l 2,0,1
652 1244 m 2,10,-1
 651 1024 l 2,11,12
 651 922 651 922 656 890 c 1,13,14
 686 881 686 881 759 881 c 1,15,-1
 759 826 l 1,16,17
 693 809 693 809 607.5 809 c 128,-1,18
 522 809 522 809 510 845 c 1,19,-1
 507 896 l 1,20,21
 404 798 404 798 287 798 c 0,22,23
 134 798 134 798 88 904 c 0,24,25
 72 939 72 939 72 985 c 0,26,27
 72 1192 72 1192 414 1192 c 2,28,-1
 507 1192 l 1,29,-1
 507 1248 l 2,30,31
 508 1380 508 1380 440 1406 c 0,32,33
 418 1414 418 1414 386.5 1414.5 c 128,-1,34
 355 1415 355 1415 326.5 1406 c 0,35,36
 298 1396 298 1396 274 1380 c 0,37,38
 233 1352 233 1352 185 1287 c 1,39,40
 106 1332 106 1332 91 1344 c 1,41,42
 91 1396 91 1396 164 1438 c 0,43,44
 242 1484 242 1484 345.5 1483.5 c 128,-1,45
 449 1483 449 1483 505 1464 c 0,46,47
 562 1444 562 1444 594 1412 c 0,48,49
 652 1354 652 1354 652 1244 c 2,10,-1
EndSplineSet
EndChar

StartChar: guillemotleft
Encoding: 171 171 112
Width: 1028
GlyphClass: 2
Flags: W
LayerCount: 2
Fore
SplineSet
561 138 m 1,0,1
 497 89 497 89 476 89 c 128,-1,2
 455 89 455 89 434 101 c 1,3,-1
 133 531 l 1,4,5
 145 575 145 575 171 612 c 2,6,-1
 421 962 l 2,7,8
 430 976 430 976 440 986 c 2,9,-1
 458 1003 l 1,10,11
 485 1003 485 1003 521 981 c 1,12,-1
 574 959 l 1,13,-1
 313 548 l 1,14,-1
 561 138 l 1,0,1
482 531 m 1,15,16
 485 564 485 564 519 612 c 2,17,-1
 741 928 l 2,18,19
 751 942 751 942 760 951 c 2,20,-1
 777 968 l 1,21,-1
 781 968 l 2,22,23
 796 968 796 968 842 948 c 2,24,-1
 895 925 l 1,25,-1
 662 548 l 1,26,-1
 882 171 l 1,27,28
 848 144 848 144 831 133 c 128,-1,29
 814 122 814 122 800 122 c 0,30,31
 770 122 770 122 754 134 c 1,32,-1
 482 531 l 1,15,16
EndSplineSet
EndChar

StartChar: logicalnot
Encoding: 172 172 113
Width: 1257
GlyphClass: 2
Flags: W
LayerCount: 2
Fore
SplineSet
1056 255 m 2,0,1
 993 255 993 255 980 301 c 1,2,-1
 980 685 l 1,3,-1
 133 685 l 1,4,-1
 133 752 l 2,5,6
 133 804 133 804 151 816 c 0,7,8
 172 829 172 829 227 829 c 2,9,-1
 1124 829 l 1,10,-1
 1124 255 l 1,11,-1
 1056 255 l 2,0,1
EndSplineSet
EndChar

StartChar: uni00AD
Encoding: 173 173 114
Width: 898
GlyphClass: 2
Flags: W
LayerCount: 2
Fore
SplineSet
728 537 m 2,0,1
 728 483 728 483 682 473 c 1,2,-1
 170 473 l 1,3,-1
 170 561 l 2,4,5
 170 601 170 601 186 610 c 0,6,7
 207 622 207 622 250 622 c 2,8,-1
 728 622 l 1,9,-1
 728 537 l 2,0,1
EndSplineSet
EndChar

StartChar: registered
Encoding: 174 174 115
Width: 1774
GlyphClass: 2
Flags: W
LayerCount: 2
Fore
SplineSet
882 712 m 0,0,1
 1065 712 1065 712 1065 883 c 0,2,3
 1066 977 1066 977 1020 1016 c 0,4,5
 977 1053 977 1053 868 1053 c 0,6,7
 818 1053 818 1053 778 1050 c 1,8,-1
 778 714 l 1,9,10
 824 712 824 712 882 712 c 0,0,1
898 282 m 1,11,12
 794 293 794 293 706.5 293 c 128,-1,13
 619 293 619 293 513 282 c 1,14,-1
 513 360 l 1,15,-1
 579 360 l 2,16,17
 609 360 609 360 624 366 c 1,18,19
 633 391 633 391 633 435 c 2,20,-1
 633 981 l 2,21,22
 633 1021 633 1021 624 1044 c 1,23,24
 612 1046 612 1046 600 1046 c 0,25,26
 550 1046 550 1046 501 1046 c 1,27,-1
 501 1106 l 1,28,29
 524 1108 524 1108 557 1114 c 128,-1,30
 590 1120 590 1120 644 1125 c 0,31,32
 709 1131 709 1131 826.5 1131 c 128,-1,33
 944 1131 944 1131 1011 1118.5 c 128,-1,34
 1078 1106 1078 1106 1124 1077 c 0,35,36
 1216 1019 1216 1019 1215 888 c 0,37,38
 1215 752 1215 752 1093 683 c 0,39,40
 1056 662 1056 662 1014 650 c 1,41,42
 1110 619 1110 619 1184 478 c 2,43,-1
 1221 407 l 2,44,45
 1231 388 1231 388 1239.5 372 c 128,-1,46
 1248 356 1248 356 1257.5 356 c 128,-1,47
 1267 356 1267 356 1338 393 c 1,48,-1
 1354 347 l 1,49,50
 1268 276 1268 276 1203 276 c 0,51,52
 1149 276 1149 276 1130.5 293 c 128,-1,53
 1112 310 1112 310 1104 330 c 0,54,55
 1029 513 1029 513 921 644 c 1,56,57
 831 644 831 644 778 647 c 1,58,-1
 778 437 l 2,59,60
 778 397 778 397 787 366 c 1,61,62
 807 360 807 360 846 360 c 2,63,-1
 898 360 l 1,64,-1
 898 282 l 1,11,12
225 720 m 128,-1,66
 225 583 225 583 277 462.5 c 128,-1,67
 329 342 329 342 419 252 c 128,-1,68
 509 162 509 162 629.5 110 c 128,-1,69
 750 58 750 58 887 58 c 128,-1,70
 1024 58 1024 58 1144.5 110 c 128,-1,71
 1265 162 1265 162 1355 252 c 128,-1,72
 1445 342 1445 342 1497 462.5 c 128,-1,73
 1549 583 1549 583 1549 720 c 128,-1,74
 1549 857 1549 857 1497 977.5 c 128,-1,75
 1445 1098 1445 1098 1355 1188 c 128,-1,76
 1265 1278 1265 1278 1144.5 1330 c 128,-1,77
 1024 1382 1024 1382 887 1382 c 128,-1,78
 750 1382 750 1382 629.5 1330 c 128,-1,79
 509 1278 509 1278 419 1188 c 128,-1,80
 329 1098 329 1098 277 977.5 c 128,-1,65
 225 857 225 857 225 720 c 128,-1,66
113 720 m 128,-1,82
 113 827 113 827 140.5 925.5 c 128,-1,83
 168 1024 168 1024 218.5 1110 c 128,-1,84
 269 1196 269 1196 340 1267 c 128,-1,85
 411 1338 411 1338 497 1388.5 c 128,-1,86
 583 1439 583 1439 681.5 1466.5 c 128,-1,87
 780 1494 780 1494 887 1494 c 128,-1,88
 994 1494 994 1494 1092.5 1466.5 c 128,-1,89
 1191 1439 1191 1439 1277 1388.5 c 128,-1,90
 1363 1338 1363 1338 1434 1267 c 128,-1,91
 1505 1196 1505 1196 1555.5 1110 c 128,-1,92
 1606 1024 1606 1024 1633.5 925.5 c 128,-1,93
 1661 827 1661 827 1661 720 c 128,-1,94
 1661 613 1661 613 1633.5 514.5 c 128,-1,95
 1606 416 1606 416 1555.5 330 c 128,-1,96
 1505 244 1505 244 1434 173 c 128,-1,97
 1363 102 1363 102 1277 51.5 c 128,-1,98
 1191 1 1191 1 1092.5 -26.5 c 128,-1,99
 994 -54 994 -54 887 -54 c 128,-1,100
 780 -54 780 -54 681.5 -26.5 c 128,-1,101
 583 1 583 1 497 51.5 c 128,-1,102
 411 102 411 102 340 173 c 128,-1,103
 269 244 269 244 218.5 330 c 128,-1,104
 168 416 168 416 140.5 514.5 c 128,-1,81
 113 613 113 613 113 720 c 128,-1,82
EndSplineSet
EndChar

StartChar: macron
Encoding: 175 175 116
Width: 591
GlyphClass: 2
Flags: W
LayerCount: 2
Fore
SplineSet
2 1421 m 1,0,-1
 589 1421 l 1,1,-1
 589 1298 l 1,2,-1
 2 1298 l 1,3,-1
 2 1421 l 1,0,-1
EndSplineSet
EndChar

StartChar: degree
Encoding: 176 176 117
Width: 839
GlyphClass: 2
Flags: W
LayerCount: 2
Fore
SplineSet
208 1126 m 0,0,1
 208 1082 208 1082 225 1043.5 c 0,2,3
 242 1004 242 1004 271 976 c 0,4,5
 333 916 333 916 417 916 c 0,6,7
 504 916 504 916 565.5 977.5 c 128,-1,8
 627 1039 627 1039 627 1126 c 0,9,10
 628 1211 628 1211 566 1274 c 128,-1,11
 504 1337 504 1337 417 1337 c 0,12,13
 332 1337 332 1337 270 1274 c 0,14,15
 208 1212 208 1212 208 1126 c 0,0,1
98 1126 m 0,16,17
 98 1192 98 1192 123 1251 c 128,-1,18
 148 1310 148 1310 192 1354 c 0,19,20
 286 1448 286 1448 417 1447 c 0,21,22
 552 1446 552 1446 646 1352 c 128,-1,23
 740 1258 740 1258 739.5 1125.5 c 0,24,25
 740 994 740 994 646 900 c 128,-1,26
 552 806 552 806 417 805 c 0,27,28
 286 806 286 806 192 900 c 0,29,30
 98 992 98 992 98 1126 c 0,16,17
EndSplineSet
EndChar

StartChar: plusminus
Encoding: 177 177 118
Width: 1257
GlyphClass: 2
Flags: W
LayerCount: 2
Fore
SplineSet
1124 112 m 2,0,1
 1124 50 1124 50 1076 35 c 1,2,-1
 133 35 l 1,3,-1
 133 103 l 2,4,5
 133 153 133 153 145 163 c 0,6,7
 163 179 163 179 213 179 c 2,8,-1
 1124 179 l 1,9,-1
 1124 112 l 2,0,1
1124 750 m 2,10,11
 1124 688 1124 688 1076 673 c 1,12,-1
 701 673 l 1,13,-1
 701 299 l 1,14,-1
 632 299 l 2,15,16
 581 300 581 300 570 312 c 0,17,18
 556 329 556 329 556 378 c 2,19,-1
 556 673 l 1,20,-1
 133 673 l 1,21,-1
 133 740 l 2,22,23
 132 791 132 791 146 801 c 0,24,25
 165 816 165 816 215 816 c 2,26,-1
 556 816 l 1,27,-1
 556 1191 l 1,28,-1
 623 1191 l 2,29,30
 674 1191 674 1191 684 1179 c 0,31,32
 701 1160 701 1160 701 1111 c 2,33,-1
 701 816 l 1,34,-1
 1124 816 l 1,35,-1
 1124 750 l 2,10,11
EndSplineSet
EndChar

StartChar: twosuperior
Encoding: 178 178 119
Width: 891
GlyphClass: 2
Flags: W
LayerCount: 2
Fore
SplineSet
197 574 m 2,0,1
 152 574 152 574 140 605 c 1,2,3
 140 616 140 616 148 656 c 1,4,5
 473 975 473 975 540 1077 c 0,6,7
 592 1156 592 1156 592 1234 c 0,8,9
 592 1391 592 1391 450 1391 c 0,10,11
 333 1392 333 1392 273 1300 c 0,12,13
 253 1270 253 1270 247 1229 c 1,14,-1
 158 1303 l 1,15,16
 175 1420 175 1420 342 1456 c 0,17,18
 390 1466 390 1466 449 1466 c 128,-1,19
 508 1466 508 1466 560 1449 c 128,-1,20
 612 1432 612 1432 648 1400 c 0,21,22
 720 1336 720 1336 720 1228 c 128,-1,23
 720 1120 720 1120 626 1002 c 0,24,25
 540 894 540 894 277 662 c 1,26,-1
 520 662 l 2,27,28
 660 662 660 662 711 782 c 1,29,-1
 750 775 l 1,30,31
 750 658 750 658 742 591 c 1,32,33
 697 576 697 576 625.5 575 c 128,-1,34
 554 574 554 574 504 574 c 2,35,-1
 197 574 l 2,0,1
EndSplineSet
EndChar

StartChar: threesuperior
Encoding: 179 179 120
Width: 875
GlyphClass: 2
Flags: W
LayerCount: 2
Fore
SplineSet
629 817 m 0,0,1
 629 990 629 990 367 990 c 2,2,-1
 342 990 l 1,3,-1
 342 1027 l 2,4,5
 342 1048 342 1048 348 1062 c 1,6,-1
 382 1062 l 2,7,8
 457 1062 457 1062 506.5 1096 c 128,-1,9
 556 1130 556 1130 579 1165 c 128,-1,10
 602 1200 602 1200 602 1242.5 c 128,-1,11
 602 1285 602 1285 589.5 1312.5 c 0,12,13
 578 1340 578 1340 556 1358 c 0,14,15
 514 1394 514 1394 464.5 1394.5 c 128,-1,16
 415 1395 415 1395 383 1385 c 128,-1,17
 351 1375 351 1375 324 1355 c 0,18,19
 263 1310 263 1310 252 1239 c 1,20,-1
 170 1306 l 1,21,22
 181 1382 181 1382 263 1428 c 0,23,24
 336 1468 336 1468 413.5 1468 c 128,-1,25
 491 1468 491 1468 541.5 1454.5 c 0,26,27
 592 1442 592 1442 632 1414 c 0,28,29
 721 1353 721 1353 721 1248 c 0,30,31
 720 1138 720 1138 598 1070 c 0,32,33
 558 1048 558 1048 505 1036 c 1,34,35
 752 1004 752 1004 752 810 c 0,36,37
 752 694 752 694 670 625 c 0,38,39
 589 557 589 557 453 557 c 0,40,41
 348 556 348 556 288 584 c 0,42,43
 185 631 185 631 167 681 c 1,44,45
 179 770 179 770 187 819 c 1,46,-1
 254 807 l 1,47,48
 254 715 254 715 315 670 c 0,49,50
 365 633 365 633 426.5 633 c 128,-1,51
 488 633 488 633 522 647.5 c 128,-1,52
 556 662 556 662 580 686 c 0,53,54
 629 736 629 736 629 817 c 0,0,1
EndSplineSet
EndChar

StartChar: acute
Encoding: 180 180 121
Width: 1225
GlyphClass: 2
Flags: W
LayerCount: 2
Fore
SplineSet
831 1587 m 1,0,1
 774 1520 774 1520 528 1264 c 1,2,3
 469 1264 469 1264 433 1264 c 128,-1,4
 397 1264 397 1264 391 1265 c 1,5,6
 577 1582 577 1582 580 1587 c 1,7,-1
 831 1587 l 1,0,1
EndSplineSet
EndChar

StartChar: mu
Encoding: 181 181 122
Width: 1521
GlyphClass: 2
Flags: W
LayerCount: 2
Fore
SplineSet
543 1054 m 0,0,1
 566 1054 566 1054 566 1007 c 2,2,-1
 566 284 l 2,3,4
 566 191 566 191 593 155 c 0,5,6
 642 91 642 91 745 91 c 0,7,8
 830 90 830 90 936 144 c 0,9,10
 976 164 976 164 1001.5 183 c 128,-1,11
 1027 202 1027 202 1028 205 c 0,12,13
 1045 309 1045 309 1045 531 c 2,14,-1
 1045 834 l 2,15,16
 1045 891 1045 891 1033 930 c 1,17,18
 1002 941 1002 941 951 941 c 2,19,-1
 868 941 l 1,20,-1
 868 1027 l 1,21,22
 999 1054 999 1054 1235 1054 c 0,23,24
 1257 1054 1257 1054 1257 1011 c 2,25,-1
 1257 269 l 2,26,27
 1257 159 1257 159 1280 102 c 1,28,29
 1318 98 1318 98 1364 98 c 2,30,-1
 1435 98 l 1,31,-1
 1435 15 l 1,32,33
 1323 -11 1323 -11 1228 -11 c 128,-1,34
 1133 -11 1133 -11 1105.5 -8.5 c 128,-1,35
 1078 -6 1078 -6 1061 3 c 0,36,37
 1028 20 1028 20 1028 81 c 1,38,-1
 1026 115 l 1,39,40
 824 -27 824 -27 691 -27 c 0,41,42
 625 -27 625 -27 566 -1 c 1,43,-1
 566 -120 l 2,44,45
 566 -186 566 -186 579 -231 c 1,46,47
 616 -257 616 -257 667 -257 c 1,48,-1
 667 -340 l 1,49,50
 599 -364 599 -364 472.5 -364 c 128,-1,51
 346 -364 346 -364 346 -278 c 1,52,-1
 353 -70 l 1,53,-1
 353 834 l 2,54,55
 353 886 353 886 342 930 c 1,56,57
 309 941 309 941 259 941 c 2,58,-1
 176 941 l 1,59,-1
 176 1027 l 1,60,61
 307 1054 307 1054 543 1054 c 0,0,1
EndSplineSet
EndChar

StartChar: paragraph
Encoding: 182 182 123
Width: 1208
GlyphClass: 2
Flags: W
LayerCount: 2
Fore
SplineSet
620 -183 m 1,0,1
 462 -183 462 -183 272 -202 c 1,2,-1
 272 -66 l 1,3,-1
 361 -66 l 2,4,5
 436 -66 436 -66 464 -57 c 1,6,7
 480 -13 480 -13 480 64 c 2,8,-1
 480 595 l 1,9,10
 178 596 178 596 105 836 c 0,11,12
 82 912 82 912 82 1009.5 c 128,-1,13
 82 1107 82 1107 117 1180 c 128,-1,14
 152 1253 152 1253 224 1299 c 0,15,16
 361 1387 361 1387 655 1387 c 2,17,-1
 797 1387 l 2,18,19
 1038 1387 1038 1387 1124 1372 c 1,20,-1
 1124 1272 l 1,21,-1
 1032 1272 l 2,22,23
 958 1272 958 1272 929 1261 c 1,24,25
 914 1218 914 1218 914 1141 c 2,26,-1
 914 64 l 2,27,28
 914 -13 914 -13 930 -57 c 1,29,30
 958 -66 958 -66 1033 -66 c 2,31,-1
 1122 -66 l 1,32,-1
 1122 -202 l 1,33,34
 927 -183 927 -183 774 -183 c 1,35,-1
 774 1311 l 1,36,-1
 620 1311 l 1,37,-1
 620 -183 l 1,0,1
EndSplineSet
EndChar

StartChar: periodcentered
Encoding: 183 183 124
Width: 554
GlyphClass: 2
Flags: W
LayerCount: 2
Fore
SplineSet
175 553.5 m 128,-1,1
 166 574 166 574 166 597.5 c 128,-1,2
 166 621 166 621 175 641.5 c 128,-1,3
 184 662 184 662 199.5 677 c 128,-1,4
 215 692 215 692 235.5 701 c 128,-1,5
 256 710 256 710 279 710 c 128,-1,6
 302 710 302 710 322.5 701 c 0,7,8
 342 692 342 692 358 677 c 0,9,10
 392 645 392 645 392 609.5 c 128,-1,11
 392 574 392 574 383 553.5 c 128,-1,12
 374 533 374 533 358.5 518 c 128,-1,13
 343 503 343 503 322.5 494 c 128,-1,14
 302 485 302 485 279 485 c 128,-1,15
 256 485 256 485 235.5 494 c 128,-1,16
 215 503 215 503 199.5 518 c 128,-1,0
 184 533 184 533 175 553.5 c 128,-1,1
EndSplineSet
EndChar

StartChar: cedilla
Encoding: 184 184 125
Width: 695
GlyphClass: 2
Flags: W
LayerCount: 2
Fore
SplineSet
260 -186 m 1,0,-1
 209 -163 l 1,1,-1
 294 11 l 1,2,-1
 395 11 l 1,3,-1
 339 -96 l 1,4,5
 450 -102 450 -102 491 -130.5 c 128,-1,6
 532 -159 532 -159 548 -191.5 c 128,-1,7
 564 -224 564 -224 564 -277 c 128,-1,8
 564 -330 564 -330 544.5 -372.5 c 0,9,10
 524 -415 524 -415 490 -443 c 0,11,12
 422 -498 422 -498 306 -498 c 0,13,14
 192 -498 192 -498 129 -457 c 1,15,16
 123 -441 123 -441 123 -417 c 128,-1,17
 123 -393 123 -393 129 -366 c 1,18,19
 208 -390 208 -390 267 -390 c 128,-1,20
 326 -390 326 -390 361.5 -363.5 c 128,-1,21
 397 -337 397 -337 397 -291 c 0,22,23
 397 -194 397 -194 297 -178 c 1,24,25
 289 -178 289 -178 260 -186 c 1,0,-1
EndSplineSet
EndChar

StartChar: onesuperior
Encoding: 185 185 126
Width: 707
GlyphClass: 2
Flags: W
LayerCount: 2
Fore
SplineSet
360 1451.5 m 128,-1,1
 391 1458 391 1458 417.5 1458 c 128,-1,2
 444 1458 444 1458 455 1440 c 1,3,-1
 455 731 l 2,4,5
 455 684 455 684 463 656 c 1,6,7
 484 650 484 650 525 650 c 2,8,-1
 580 650 l 1,9,-1
 580 568 l 1,10,11
 493 580 493 580 397.5 580 c 128,-1,12
 302 580 302 580 204 568 c 1,13,-1
 204 650 l 1,14,-1
 273 650 l 2,15,16
 305 650 305 650 320 656 c 1,17,18
 330 691 330 691 330 729 c 2,19,-1
 330 1330 l 1,20,21
 306 1348 306 1348 285 1348 c 128,-1,22
 264 1348 264 1348 237 1345 c 1,23,-1
 179 1334 l 1,24,-1
 168 1391 l 1,25,26
 197 1401 197 1401 230 1413 c 128,-1,27
 263 1425 263 1425 296 1435 c 128,-1,0
 329 1445 329 1445 360 1451.5 c 128,-1,1
EndSplineSet
EndChar

StartChar: ordmasculine
Encoding: 186 186 127
Width: 845
GlyphClass: 2
Flags: W
LayerCount: 2
Fore
SplineSet
244 1140 m 0,0,1
 244 875 244 875 425 875 c 0,2,3
 516 875 516 875 559 939.5 c 128,-1,4
 602 1004 602 1004 602 1141 c 128,-1,5
 602 1278 602 1278 559 1342.5 c 128,-1,6
 516 1407 516 1407 423.5 1407 c 128,-1,7
 331 1407 331 1407 287.5 1342.5 c 128,-1,8
 244 1278 244 1278 244 1140 c 0,0,1
773 1139 m 128,-1,10
 773 1058 773 1058 746.5 994.5 c 128,-1,11
 720 931 720 931 673 887.5 c 128,-1,12
 626 844 626 844 562.5 821 c 128,-1,13
 499 798 499 798 424 798 c 128,-1,14
 349 798 349 798 284.5 821 c 128,-1,15
 220 844 220 844 172.5 887.5 c 128,-1,16
 125 931 125 931 98.5 994.5 c 128,-1,17
 72 1058 72 1058 72 1139 c 128,-1,18
 72 1220 72 1220 99 1284 c 128,-1,19
 126 1348 126 1348 173.5 1392.5 c 128,-1,20
 221 1437 221 1437 285 1460 c 128,-1,21
 349 1483 349 1483 424 1483 c 128,-1,22
 499 1483 499 1483 562.5 1459.5 c 128,-1,23
 626 1436 626 1436 673 1392 c 128,-1,24
 720 1348 720 1348 746.5 1284 c 128,-1,9
 773 1220 773 1220 773 1139 c 128,-1,10
EndSplineSet
EndChar

StartChar: guillemotright
Encoding: 187 187 128
Width: 1028
GlyphClass: 2
Flags: W
LayerCount: 2
Fore
SplineSet
605 129 m 2,0,1
 594 114 594 114 585 105.5 c 128,-1,2
 576 97 576 97 568 89 c 1,3,4
 530 89 530 89 456 138 c 1,5,-1
 715 548 l 1,6,-1
 465 959 l 1,7,-1
 515 981 l 1,8,9
 549 1000 549 1000 577 1003 c 1,10,11
 602 978 602 978 613 962 c 2,12,-1
 856 612 l 1,13,14
 887 571 887 571 895 531 c 1,15,-1
 605 129 l 2,0,1
284 162 m 2,16,17
 272 144 272 144 249 122 c 1,18,19
 227 122 227 122 193 140 c 2,20,-1
 133 171 l 1,21,-1
 366 548 l 1,22,-1
 146 925 l 1,23,-1
 196 948 l 1,24,25
 244 968 244 968 257 968 c 1,26,27
 265 960 265 960 274.5 951 c 128,-1,28
 284 942 284 942 294 928 c 2,29,-1
 509 612 l 1,30,31
 540 572 540 572 547 531 c 1,32,-1
 284 162 l 2,16,17
EndSplineSet
EndChar

StartChar: onequarter
Encoding: 188 188 129
Width: 1716
GlyphClass: 2
Flags: W
LayerCount: 2
Fore
SplineSet
1293 322 m 1,0,-1
 1293 701 l 1,1,-1
 1291 730 l 1,2,-1
 1016 342 l 1,3,-1
 1005 322 l 1,4,-1
 1293 322 l 1,0,-1
1538 0 m 1,5,6
 1454 12 1454 12 1359.5 12 c 128,-1,7
 1265 12 1265 12 1167 0 c 1,8,-1
 1167 83 l 1,9,-1
 1221 83 l 2,10,11
 1267 83 1267 83 1283 88 c 1,12,13
 1293 115 1293 115 1293 162 c 2,14,-1
 1293 245 l 1,15,-1
 913 245 l 1,16,17
 889 264 889 264 889 298 c 1,18,19
 894 312 894 312 949 390.5 c 128,-1,20
 1004 469 1004 469 1073 567.5 c 128,-1,21
 1142 666 1142 666 1189 731 c 0,22,23
 1281 859 1281 859 1303 882 c 1,24,-1
 1357 882 l 2,25,26
 1393 882 1393 882 1403 873 c 128,-1,27
 1413 864 1413 864 1413 836 c 2,28,-1
 1413 322 l 1,29,-1
 1583 322 l 1,30,-1
 1583 289 l 2,31,32
 1583 258 1583 258 1572 251.5 c 128,-1,33
 1561 245 1561 245 1535 245 c 2,34,-1
 1413 245 l 1,35,-1
 1413 163 l 2,36,37
 1413 113 1413 113 1422 88 c 1,38,39
 1444 83 1444 83 1484 83 c 2,40,-1
 1538 83 l 1,41,-1
 1538 0 l 1,5,6
332 1451.5 m 128,-1,43
 363 1458 363 1458 389.5 1458 c 128,-1,44
 416 1458 416 1458 427 1440 c 1,45,-1
 427 731 l 2,46,47
 427 684 427 684 435 656 c 1,48,49
 456 650 456 650 497 650 c 2,50,-1
 552 650 l 1,51,-1
 552 568 l 1,52,53
 465 580 465 580 369.5 580 c 128,-1,54
 274 580 274 580 176 568 c 1,55,-1
 176 650 l 1,56,-1
 245 650 l 2,57,58
 277 650 277 650 292 656 c 1,59,60
 302 691 302 691 302 729 c 2,61,-1
 302 1330 l 1,62,63
 278 1348 278 1348 257 1348 c 128,-1,64
 236 1348 236 1348 209 1345 c 1,65,-1
 151 1334 l 1,66,-1
 140 1391 l 1,67,68
 169 1401 169 1401 202 1413 c 128,-1,69
 235 1425 235 1425 268 1435 c 128,-1,42
 301 1445 301 1445 332 1451.5 c 128,-1,43
351 -25 m 1,70,71
 364 -1 364 -1 1141 1472 c 1,72,-1
 1195 1472 l 2,73,74
 1248 1472 1248 1472 1260 1453 c 1,75,76
 1248 1426 1248 1426 1210 1355 c 2,77,-1
 473 -40 l 1,78,-1
 408 -40 l 2,79,80
 363 -40 363 -40 351 -25 c 1,70,71
EndSplineSet
EndChar

StartChar: onehalf
Encoding: 189 189 130
Width: 1797
GlyphClass: 2
Flags: W
LayerCount: 2
Fore
SplineSet
1098 0 m 2,0,1
 1053 0 1053 0 1041 31 c 1,2,3
 1041 42 1041 42 1049 82 c 1,4,5
 1374 401 1374 401 1441 503 c 0,6,7
 1493 582 1493 582 1493 660 c 0,8,9
 1493 817 1493 817 1351 817 c 0,10,11
 1234 818 1234 818 1174 726 c 0,12,13
 1154 696 1154 696 1148 655 c 1,14,-1
 1059 729 l 1,15,16
 1076 846 1076 846 1243 882 c 0,17,18
 1291 892 1291 892 1350 892 c 128,-1,19
 1409 892 1409 892 1461 875 c 0,20,21
 1512 858 1512 858 1548 826 c 0,22,23
 1620 762 1620 762 1620.5 654 c 128,-1,24
 1621 546 1621 546 1527 428 c 0,25,26
 1441 320 1441 320 1178 88 c 1,27,-1
 1421 88 l 2,28,29
 1561 88 1561 88 1612 208 c 1,30,-1
 1651 201 l 1,31,32
 1651 84 1651 84 1643 17 c 1,33,34
 1598 2 1598 2 1526.5 1 c 128,-1,35
 1455 0 1455 0 1405 0 c 2,36,-1
 1098 0 l 2,0,1
332 1451.5 m 128,-1,38
 363 1458 363 1458 389.5 1458 c 128,-1,39
 416 1458 416 1458 427 1440 c 1,40,-1
 427 731 l 2,41,42
 427 684 427 684 435 656 c 1,43,44
 456 650 456 650 497 650 c 2,45,-1
 552 650 l 1,46,-1
 552 568 l 1,47,48
 465 580 465 580 369.5 580 c 128,-1,49
 274 580 274 580 176 568 c 1,50,-1
 176 650 l 1,51,-1
 245 650 l 2,52,53
 277 650 277 650 292 656 c 1,54,55
 302 691 302 691 302 729 c 2,56,-1
 302 1330 l 1,57,58
 278 1348 278 1348 257 1348 c 128,-1,59
 236 1348 236 1348 209 1345 c 1,60,-1
 151 1334 l 1,61,-1
 140 1391 l 1,62,63
 169 1401 169 1401 202 1413 c 128,-1,64
 235 1425 235 1425 268 1435 c 128,-1,37
 301 1445 301 1445 332 1451.5 c 128,-1,38
1210 1472 m 2,65,66
 1262 1472 1262 1472 1275 1453 c 1,67,68
 1264 1430 1264 1430 1251 1406 c 128,-1,69
 1238 1382 1238 1382 1224 1355 c 2,70,-1
 487 -40 l 1,71,-1
 422 -40 l 2,72,73
 378 -40 378 -40 366 -25 c 1,74,75
 374 -3 374 -3 388.5 21.5 c 128,-1,76
 403 46 403 46 504 236 c 0,77,78
 628 469 628 469 1155 1472 c 1,79,-1
 1210 1472 l 2,65,66
EndSplineSet
EndChar

StartChar: threequarters
Encoding: 190 190 131
Width: 1830
GlyphClass: 2
Flags: W
LayerCount: 2
Fore
SplineSet
609 817 m 0,0,1
 609 990 609 990 347 990 c 2,2,-1
 322 990 l 1,3,-1
 322 1027 l 2,4,5
 322 1048 322 1048 328 1062 c 1,6,-1
 362 1062 l 2,7,8
 437 1062 437 1062 486.5 1096 c 128,-1,9
 536 1130 536 1130 559 1165 c 128,-1,10
 582 1200 582 1200 582 1242.5 c 128,-1,11
 582 1285 582 1285 569.5 1312.5 c 0,12,13
 558 1340 558 1340 536 1358 c 0,14,15
 494 1394 494 1394 444.5 1394.5 c 128,-1,16
 395 1395 395 1395 363 1385 c 128,-1,17
 331 1375 331 1375 304 1355 c 0,18,19
 243 1310 243 1310 232 1239 c 1,20,-1
 150 1306 l 1,21,22
 161 1382 161 1382 243 1428 c 0,23,24
 316 1468 316 1468 393.5 1468 c 128,-1,25
 471 1468 471 1468 521.5 1454.5 c 0,26,27
 572 1442 572 1442 612 1414 c 0,28,29
 701 1353 701 1353 701 1248 c 0,30,31
 700 1138 700 1138 578 1070 c 0,32,33
 538 1048 538 1048 485 1036 c 1,34,35
 732 1004 732 1004 732 810 c 0,36,37
 732 694 732 694 650 625 c 0,38,39
 569 557 569 557 433 557 c 0,40,41
 328 556 328 556 268 584 c 0,42,43
 165 631 165 631 147 681 c 1,44,-1
 150 704 l 2,45,46
 152 718 152 718 155.5 745.5 c 128,-1,47
 159 773 159 773 167 819 c 1,48,-1
 234 807 l 1,49,50
 234 715 234 715 295 670 c 0,51,52
 345 633 345 633 406.5 633 c 128,-1,53
 468 633 468 633 502 647.5 c 128,-1,54
 536 662 536 662 560 686 c 0,55,56
 609 736 609 736 609 817 c 0,0,1
1439 322 m 1,57,-1
 1439 701 l 1,58,-1
 1437 730 l 1,59,-1
 1162 342 l 1,60,-1
 1151 322 l 1,61,-1
 1439 322 l 1,57,-1
1684 0 m 1,62,63
 1600 12 1600 12 1505.5 12 c 128,-1,64
 1411 12 1411 12 1313 0 c 1,65,-1
 1313 83 l 1,66,-1
 1367 83 l 2,67,68
 1413 83 1413 83 1429 88 c 1,69,70
 1439 115 1439 115 1439 162 c 2,71,-1
 1439 245 l 1,72,-1
 1059 245 l 1,73,74
 1035 264 1035 264 1035 298 c 1,75,76
 1040 312 1040 312 1095 390.5 c 128,-1,77
 1150 469 1150 469 1219 567.5 c 128,-1,78
 1288 666 1288 666 1335 731 c 0,79,80
 1427 859 1427 859 1449 882 c 1,81,-1
 1503 882 l 2,82,83
 1539 882 1539 882 1549 873 c 128,-1,84
 1559 864 1559 864 1559 836 c 2,85,-1
 1559 322 l 1,86,-1
 1729 322 l 1,87,-1
 1729 289 l 2,88,89
 1729 258 1729 258 1718 251.5 c 128,-1,90
 1707 245 1707 245 1681 245 c 2,91,-1
 1559 245 l 1,92,-1
 1559 163 l 2,93,94
 1559 113 1559 113 1568 88 c 1,95,96
 1590 83 1590 83 1630 83 c 2,97,-1
 1684 83 l 1,98,-1
 1684 0 l 1,62,63
1343 1472 m 2,99,100
 1395 1472 1395 1472 1407 1453 c 1,101,102
 1394 1424 1394 1424 1353 1347 c 2,103,-1
 620 -40 l 1,104,-1
 555 -40 l 2,105,106
 512 -40 512 -40 497 -25 c 1,107,108
 510 -1 510 -1 524 26.5 c 128,-1,109
 538 54 538 54 556 84 c 1,110,-1
 1288 1472 l 1,111,-1
 1343 1472 l 2,99,100
EndSplineSet
EndChar

StartChar: AE
Encoding: 198 198 139
Width: 2265
GlyphClass: 2
Flags: W
LayerCount: 2
Fore
SplineSet
1084 526 m 1,0,-1
 949 1231 l 1,1,-1
 580 526 l 1,2,-1
 1084 526 l 1,0,-1
1795 -14 m 1,3,-1
 1330 0 l 1,4,5
 1138 0 1138 0 1026 -14 c 1,6,-1
 1026 126 l 1,7,-1
 1048 126 l 2,8,9
 1121 126 1121 126 1149 135 c 1,10,11
 1150 142 1150 142 1150 150 c 2,12,13
 1150 168 l 2,14,15
 1150 203 1150 203 1139 256 c 2,16,-1
 1106 423 l 1,17,-1
 531 423 l 1,18,-1
 452 259 l 2,19,20
 412 174 412 174 412 144 c 0,21,22
 412 126 412 126 479 126 c 2,23,-1
 526 126 l 1,24,-1
 496 -14 l 1,25,26
 346 14 346 14 74 -6 c 0,27,28
 38 -8 38 -8 0 -14 c 1,29,-1
 51 126 l 1,30,-1
 97 126 l 2,31,32
 162 126 162 126 193 135 c 1,33,34
 223 169 223 169 273 256 c 1,35,36
 289 289 289 289 326.5 357 c 128,-1,37
 364 425 364 425 413 514 c 0,38,39
 565 790 565 790 630 913 c 2,40,-1
 909 1437 l 1,41,-1
 1805 1437 l 1,42,43
 1916 1183 1916 1183 1925 1144 c 1,44,-1
 1779 1138 l 1,45,-1
 1760 1188 l 2,46,47
 1740 1242 1740 1242 1716 1282 c 1,48,49
 1645 1310 1645 1310 1414 1310 c 2,50,-1
 1376 1310 l 2,51,52
 1332 1310 1332 1310 1268 1308.5 c 128,-1,53
 1204 1307 1204 1307 1147 1306 c 1,54,-1
 1259 799 l 1,55,-1
 1599 799 l 2,56,57
 1647 799 1647 799 1663 812 c 0,58,59
 1692 836 1692 836 1696 910 c 1,60,-1
 1748 910 l 1,61,62
 1789 723 1789 723 1814 555 c 1,63,-1
 1751 555 l 1,64,65
 1708 630 1708 630 1685 649 c 0,66,67
 1648 679 1648 679 1593 679 c 2,68,-1
 1286 679 l 1,69,-1
 1410 126 l 1,70,-1
 1866 126 l 2,71,72
 1977 126 1977 126 2006 160 c 1,73,74
 2008 176 2008 176 2008 210 c 128,-1,75
 2008 244 2008 244 1997 327 c 1,76,-1
 2124 325 l 1,77,-1
 2146 209 l 2,78,79
 2173 67 2173 67 2179 21 c 1,80,81
 2070 -14 2070 -14 1795 -14 c 1,3,-1
EndSplineSet
EndChar

StartChar: Eth
Encoding: 208 208 149
Width: 1650
GlyphClass: 2
Flags: W
LayerCount: 2
Fore
SplineSet
741 1316 m 1,0,-1
 522 1313 l 1,1,-1
 522 793 l 1,2,-1
 853 793 l 1,3,-1
 853 738 l 2,4,5
 853 686 853 686 815 675 c 1,6,-1
 523 675 l 1,7,-1
 523 129 l 1,8,9
 612 122 612 122 729 122 c 128,-1,10
 846 122 846 122 948 151 c 128,-1,11
 1050 180 1050 180 1121 249 c 0,12,13
 1268 392 1268 392 1268 715 c 0,14,15
 1268 1048 1268 1048 1142 1185 c 0,16,17
 1022 1316 1022 1316 741 1316 c 1,0,-1
192 1305 m 1,18,-1
 84 1303 l 1,19,-1
 84 1396 l 1,20,21
 411 1442 411 1442 721 1442 c 0,22,23
 964 1442 964 1442 1116 1390 c 0,24,25
 1506 1256 1506 1256 1507 708 c 0,26,27
 1507 216 1507 216 1123 64 c 0,28,29
 961 0 961 0 732 0 c 2,30,-1
 289 0 l 2,31,32
 230 0 230 0 217 10 c 0,33,34
 195 27 195 27 195 89 c 1,35,36
 256 122 256 122 273 145 c 0,37,38
 304 187 304 187 304 270 c 2,39,-1
 304 675 l 1,40,-1
 86 675 l 1,41,-1
 86 730 l 2,42,43
 86 772 86 772 102 782 c 0,44,45
 121 793 121 793 163 793 c 2,46,-1
 304 793 l 1,47,-1
 304 1184 l 2,48,49
 304 1256 304 1256 288 1298 c 1,50,51
 261 1305 261 1305 192 1305 c 1,18,-1
EndSplineSet
EndChar

StartChar: multiply
Encoding: 215 215 156
Width: 1229
GlyphClass: 2
Flags: W
LayerCount: 2
Fore
SplineSet
977 1120 m 1,0,1
 1047 1050 1047 1050 1059 1026 c 1,2,3
 1046 1000 1046 1000 1018 972 c 2,4,-1
 709 662 l 1,5,-1
 1071 299 l 1,6,-1
 1026 256 l 2,7,8
 1011 242 1011 242 1000.5 232 c 128,-1,9
 990 222 990 222 979 220.5 c 128,-1,10
 968 219 968 219 961.5 222 c 128,-1,11
 955 225 955 225 949 231 c 128,-1,12
 943 237 943 237 937 244 c 128,-1,13
 931 251 931 251 924 259 c 2,14,-1
 614 568 l 1,15,-1
 252 206 l 1,16,-1
 207 250 l 2,17,18
 173 284 173 284 169 297 c 1,19,20
 182 325 182 325 210 353 c 2,21,-1
 520 662 l 1,22,-1
 158 1025 l 1,23,24
 193 1060 193 1060 214 1076 c 128,-1,25
 235 1092 235 1092 252 1092 c 2,26,-1
 272 1092 l 2,27,28
 276 1092 276 1092 281 1091 c 1,29,-1
 614 757 l 1,30,-1
 977 1120 l 1,0,1
EndSplineSet
EndChar

StartChar: Oslash
Encoding: 216 216 157
Width: 1520
GlyphClass: 2
Flags: W
LayerCount: 2
Fore
SplineSet
545 156 m 1,0,1
 640 85 640 85 763 85 c 128,-1,2
 886 85 886 85 965.5 123.5 c 128,-1,3
 1045 162 1045 162 1099 240 c 0,4,5
 1210 400 1210 400 1210 692 c 128,-1,6
 1210 984 1210 984 1126 1139 c 1,7,-1
 545 156 l 1,0,1
356 711 m 0,8,9
 356 412 356 412 459 252 c 1,10,-1
 1044 1244 l 1,11,12
 942 1337 942 1337 784 1337 c 0,13,14
 472 1336 472 1336 385 986 c 0,15,16
 356 868 356 868 356 711 c 0,8,9
800 1458 m 0,17,18
 971 1458 971 1458 1124 1378 c 1,19,-1
 1209 1523 l 1,20,21
 1257 1515 1257 1515 1286 1506 c 128,-1,22
 1315 1497 1315 1497 1323 1471 c 1,23,24
 1312 1457 1312 1457 1305 1443.5 c 128,-1,25
 1298 1430 1298 1430 1289 1415 c 2,26,-1
 1225 1307 l 1,27,28
 1389 1174 1389 1174 1435 900 c 0,29,30
 1450 812 1450 812 1450 675 c 128,-1,31
 1450 538 1450 538 1403.5 398.5 c 0,32,33
 1356 258 1356 258 1270 162 c 0,34,35
 1091 -37 1091 -37 784 -37 c 0,36,37
 619 -37 619 -37 506 14 c 2,38,-1
 471 30 l 1,39,-1
 394 -100 l 1,40,41
 345 -93 345 -93 316 -83.5 c 128,-1,42
 287 -74 287 -74 279 -46 c 1,43,44
 293 -21 293 -21 316 10 c 1,45,-1
 366 95 l 1,46,47
 115 305 115 305 115 714 c 0,48,49
 115 1067 115 1067 295 1264 c 0,50,51
 473 1458 473 1458 800 1458 c 0,17,18
EndSplineSet
EndChar

StartChar: Thorn
Encoding: 222 222 163
Width: 1293
GlyphClass: 2
Flags: W
LayerCount: 2
Fore
SplineSet
535 497 m 1,0,1
 597 495 597 495 693.5 495 c 128,-1,2
 790 495 790 495 860.5 515.5 c 0,3,4
 932 536 932 536 974 573 c 0,5,6
 1052 641 1052 641 1052 779 c 0,7,8
 1052 935 1052 935 968 1001 c 0,9,10
 887 1065 887 1065 706 1065 c 0,11,12
 598 1065 598 1065 535 1060 c 1,13,-1
 535 497 l 1,0,1
743 -19 m 1,14,15
 591 0 591 0 436 0 c 128,-1,16
 281 0 281 0 110 -19 c 1,17,-1
 110 117 l 1,18,-1
 199 117 l 2,19,20
 274 117 274 117 302 126 c 1,21,22
 318 167 318 167 318 247 c 2,23,-1
 317 1197 l 2,24,25
 317 1271 317 1271 301 1317 c 1,26,27
 271 1328 271 1328 198 1328 c 2,28,-1
 108 1328 l 1,29,-1
 108 1430 l 1,30,31
 220 1443 220 1443 441 1443 c 128,-1,32
 662 1443 662 1443 744 1428 c 1,33,-1
 744 1328 l 1,34,-1
 652 1328 l 2,35,36
 581 1328 581 1328 549 1317 c 1,37,38
 535 1263 535 1263 535 1198 c 1,39,40
 622 1201 622 1201 734 1201 c 128,-1,41
 846 1201 846 1201 949 1181 c 0,42,43
 1052 1160 1052 1160 1125 1112 c 0,44,45
 1276 1012 1276 1012 1276 780 c 0,46,47
 1276 587 1276 587 1143 480 c 0,48,49
 1007 371 1007 371 746 371 c 2,50,-1
 669 371 l 2,51,52
 600 371 600 371 535 376 c 1,53,-1
 535 250 l 2,54,55
 535 175 535 175 550 126 c 1,56,57
 583 117 583 117 653 117 c 2,58,-1
 743 117 l 1,59,-1
 743 -19 l 1,14,15
EndSplineSet
EndChar

StartChar: germandbls
Encoding: 223 223 164
Width: 1325
GlyphClass: 2
Flags: W
LayerCount: 2
Fore
SplineSet
1078 974 m 1,0,1
 1027 985 1027 985 978.5 985 c 128,-1,2
 930 985 930 985 891.5 973.5 c 128,-1,3
 853 962 853 962 828 942 c 0,4,5
 778 902 778 902 778 851 c 128,-1,6
 778 800 778 800 793.5 771.5 c 0,7,8
 808 744 808 744 836 720 c 0,9,10
 876 686 876 686 963.5 645.5 c 128,-1,11
 1051 605 1051 605 1105.5 575.5 c 128,-1,12
 1160 546 1160 546 1200 510 c 0,13,14
 1286 433 1286 433 1286 327.5 c 128,-1,15
 1286 222 1286 222 1251 158.5 c 128,-1,16
 1216 95 1216 95 1159 55 c 0,17,18
 1049 -22 1049 -22 886 -22 c 0,19,20
 797 -22 797 -22 715 1 c 0,21,22
 566 43 566 43 566 72 c 0,23,24
 566 92 566 92 616 269 c 1,25,-1
 705 242 l 1,26,27
 739 158 739 158 774 131 c 0,28,29
 833 85 833 85 892.5 85 c 128,-1,30
 952 85 952 85 985.5 99 c 0,31,32
 1020 113 1020 113 1042 138 c 0,33,34
 1088 190 1088 190 1088 252.5 c 128,-1,35
 1088 315 1088 315 1063.5 350 c 128,-1,36
 1039 385 1039 385 997 413.5 c 128,-1,37
 955 442 955 442 900 467 c 128,-1,38
 845 492 845 492 792.5 516.5 c 128,-1,39
 740 541 740 541 704.5 566.5 c 0,40,41
 670 592 670 592 644 626 c 0,42,43
 590 697 590 697 590 806 c 0,44,45
 590 1026 590 1026 902 1071 c 1,46,47
 952 1138 952 1138 952 1206 c 128,-1,48
 952 1274 952 1274 933.5 1323 c 128,-1,49
 915 1372 915 1372 883 1404 c 0,50,51
 819 1468 819 1468 714 1469 c 0,52,53
 513 1469 513 1469 452 1234 c 0,54,55
 431 1153 431 1153 431 1041 c 2,56,-1
 431 277 l 1,57,-1
 437 69 l 1,58,59
 437 -18 437 -18 313 -18 c 0,60,61
 146 -18 146 -18 47 7 c 1,62,-1
 57 90 l 1,63,-1
 117 90 l 2,64,65
 168 90 168 90 205 116 c 1,66,67
 218 161 218 161 218 227 c 2,68,-1
 218 959 l 2,69,70
 218 958 218 958 201 958 c 2,71,-1
 106 958 l 1,72,73
 106 997 106 997 117 1008 c 128,-1,74
 128 1019 128 1019 161 1019 c 1,75,-1
 218 1017 l 1,76,77
 218 1283 218 1283 360 1428 c 0,78,79
 493 1564 493 1564 711 1564 c 0,80,81
 1032 1564 1032 1564 1122 1331 c 0,82,83
 1152 1254 1152 1254 1151.5 1171.5 c 128,-1,84
 1151 1089 1151 1089 1134 1049 c 128,-1,85
 1117 1009 1117 1009 1078 974 c 1,0,1
EndSplineSet
EndChar

StartChar: ae
Encoding: 230 230 171
Width: 1828
GlyphClass: 2
Flags: W
LayerCount: 2
Fore
SplineSet
501 93 m 0,0,1
 617 93 617 93 754 205 c 1,2,3
 770 349 770 349 770 489 c 1,4,-1
 612 489 l 2,5,6
 469 489 469 489 393 436 c 128,-1,7
 317 383 317 383 317 284 c 128,-1,8
 317 185 317 185 367 139 c 128,-1,9
 417 93 417 93 501 93 c 0,0,1
1509 604 m 1,10,11
 1511 608 1511 608 1511 612 c 2,12,-1
 1511 621 l 2,13,14
 1510 852 1510 852 1378 930 c 0,15,16
 1332 958 1332 958 1266 958 c 0,17,18
 1005 958 1005 958 987 604 c 1,19,-1
 1509 604 l 1,10,11
1093.5 191 m 128,-1,21
 1188 93 1188 93 1350 93 c 128,-1,22
 1512 93 1512 93 1618 205 c 1,23,-1
 1704 167 l 1,24,25
 1597 -28 1597 -28 1291 -28 c 128,-1,26
 985 -28 985 -28 852 195 c 1,27,28
 848 193 848 193 842 188 c 128,-1,29
 836 183 836 183 824.5 174 c 128,-1,30
 813 165 813 165 795.5 150.5 c 128,-1,31
 778 136 778 136 749.5 112 c 128,-1,32
 721 88 721 88 687 62.5 c 128,-1,33
 653 37 653 37 613 17 c 0,34,35
 523 -28 523 -28 439.5 -28 c 128,-1,36
 356 -28 356 -28 296 -8.5 c 0,37,38
 236 10 236 10 193 48 c 0,39,40
 102 127 102 127 102 271 c 0,41,42
 102 603 102 603 623 603 c 2,43,-1
 770 603 l 1,44,-1
 770 671 l 2,45,46
 770 828 770 828 728 896 c 0,47,48
 684 966 684 966 578 965 c 0,49,50
 420 965 420 965 320 833 c 0,51,52
 292 795 292 795 269 755 c 1,53,-1
 130 843 l 1,54,55
 145 934 145 934 259 998 c 0,56,57
 383 1068 383 1068 566 1068 c 0,58,59
 822 1068 822 1068 919 927 c 1,60,61
 1060 1068 1060 1068 1300 1068 c 0,62,63
 1486 1068 1486 1068 1604 960 c 0,64,65
 1726 848 1726 848 1726 659 c 0,66,67
 1726 552 1726 552 1688 516 c 0,68,69
 1658 487 1658 487 1574 487 c 2,70,-1
 988 487 l 1,71,20
 999 289 999 289 1093.5 191 c 128,-1,21
EndSplineSet
EndChar

StartChar: eth
Encoding: 240 240 181
Width: 1309
GlyphClass: 2
Flags: W
LayerCount: 2
Fore
SplineSet
639 914 m 0,0,1
 362 914 362 914 362 508 c 0,2,3
 362 325 362 325 414 225.5 c 128,-1,4
 466 126 466 126 575 98 c 1,5,6
 611 82 611 82 671.5 82 c 128,-1,7
 732 82 732 82 783.5 115 c 128,-1,8
 835 148 835 148 870 209 c 0,9,10
 940 331 940 331 940 554 c 0,11,12
 940 630 940 630 925 716 c 1,13,14
 844 914 844 914 639 914 c 0,0,1
1035 1522 m 1,15,16
 1014 1487 1014 1487 844 1395 c 1,17,18
 1078 1214 1078 1214 1141 862 c 0,19,20
 1161 750 1161 750 1161 648.5 c 128,-1,21
 1161 547 1161 547 1148.5 466 c 128,-1,22
 1136 385 1136 385 1109.5 311.5 c 128,-1,23
 1083 238 1083 238 1041.5 176 c 128,-1,24
 1000 114 1000 114 942 68 c 0,25,26
 818 -29 818 -29 639 -29 c 0,27,28
 418 -29 418 -29 279 110 c 0,29,30
 133 256 133 256 133 506 c 0,31,32
 132 745 132 745 280 887 c 0,33,34
 419 1021 419 1021 639 1021 c 0,35,36
 807 1021 807 1021 925 925 c 1,37,38
 871 1174 871 1174 698 1305 c 1,39,-1
 452 1161 l 1,40,-1
 424 1197 l 2,41,42
 416 1207 416 1207 409 1214.5 c 128,-1,43
 402 1222 402 1222 400 1231 c 1,44,45
 414 1254 414 1254 445 1272 c 2,46,-1
 609 1368 l 1,47,48
 471 1452 471 1452 313 1474 c 1,49,-1
 365 1562 l 1,50,51
 588 1546 588 1546 753 1453 c 1,52,-1
 986 1592 l 1,53,-1
 1014 1556 l 1,54,55
 1019 1546 1019 1546 1025 1538 c 128,-1,56
 1031 1530 1031 1530 1035 1522 c 1,15,16
EndSplineSet
EndChar

StartChar: oslash
Encoding: 248 248 189
Width: 1182
GlyphClass: 2
Flags: W
LayerCount: 2
Fore
SplineSet
926.5 329.5 m 128,-1,1
 943 411 943 411 943 555 c 128,-1,2
 943 699 943 699 893 810 c 1,3,-1
 502 114 l 1,4,5
 557 86 557 86 640 86 c 128,-1,6
 723 86 723 86 780.5 113 c 128,-1,7
 838 140 838 140 874 194 c 128,-1,0
 910 248 910 248 926.5 329.5 c 128,-1,1
421 183 m 1,8,-1
 824 902 l 1,9,10
 757 960 757 960 659.5 960 c 128,-1,11
 562 960 562 960 505 932 c 128,-1,12
 448 904 448 904 412 849 c 0,13,14
 342 742 342 742 342 513.5 c 128,-1,15
 342 285 342 285 421 183 c 1,8,-1
977 960 m 1,16,17
 1172 810 1172 810 1172 518 c 0,18,19
 1172 261 1172 261 1015 111 c 0,20,21
 870 -28 870 -28 643 -28 c 0,22,23
 533 -28 533 -28 441 6 c 1,24,-1
 344 -167 l 1,25,-1
 299 -156 l 1,26,27
 252 -150 252 -150 246 -121 c 1,28,29
 259 -97 259 -97 283 -63 c 1,30,-1
 347 51 l 1,31,32
 180 156 180 156 130 366 c 0,33,34
 114 436 114 436 113.5 542 c 128,-1,35
 113 648 113 648 154 750.5 c 0,36,37
 194 854 194 854 266 924 c 0,38,39
 413 1068 413 1068 643 1068 c 0,40,41
 776 1068 776 1068 888 1015 c 1,42,-1
 992 1200 l 1,43,-1
 1036 1189 l 1,44,45
 1085 1183 1085 1183 1091 1155 c 1,46,47
 1072 1122 1072 1122 1053 1096 c 1,48,-1
 977 960 l 1,16,17
EndSplineSet
EndChar

StartChar: thorn
Encoding: 254 254 195
Width: 1359
GlyphClass: 2
Flags: W
LayerCount: 2
Fore
SplineSet
433 51 m 1,0,-1
 433 -172 l 2,1,2
 432 -292 432 -292 444 -329 c 0,3,4
 466 -399 466 -399 535 -427 c 1,5,-1
 535 -469 l 1,6,7
 440 -488 440 -488 325 -488 c 128,-1,8
 210 -488 210 -488 115 -469 c 1,9,-1
 115 -427 l 1,10,11
 212 -388 212 -388 220 -264 c 0,12,13
 222 -224 222 -224 222 -172 c 2,14,-1
 221 1339 l 2,15,16
 221 1393 221 1393 213 1441 c 1,17,18
 171 1455 171 1455 126 1455 c 2,19,-1
 30 1455 l 1,20,-1
 30 1542 l 1,21,22
 145 1569 145 1569 369 1569 c 0,23,24
 409 1569 409 1569 425 1566 c 1,25,26
 430 1547 430 1547 431.5 1525.5 c 128,-1,27
 433 1504 433 1504 435 1479 c 1,28,-1
 435 913 l 1,29,30
 584 1068 584 1068 793 1068 c 0,31,32
 988 1068 988 1068 1102 930 c 0,33,34
 1216 792 1216 792 1216 547 c 0,35,36
 1216 282 1216 282 1076 124 c 0,37,38
 945 -23 945 -23 756 -23.5 c 128,-1,39
 567 -24 567 -24 433 51 c 1,0,-1
990 540 m 0,40,41
 990 950 990 950 741 950 c 0,42,43
 588 950 588 950 454 825 c 1,44,45
 433 675 433 675 433 478 c 128,-1,46
 433 281 433 281 439 133 c 1,47,48
 462 102 462 102 624 88 c 0,49,50
 665 84 665 84 714 84 c 128,-1,51
 763 84 763 84 817.5 113 c 128,-1,52
 872 142 872 142 910 199 c 0,53,54
 990 319 990 319 990 540 c 0,40,41
EndSplineSet
EndChar

StartChar: Dcroat
Encoding: 272 272 207
Width: 1618
GlyphClass: 2
Flags: W
LayerCount: 2
Fore
SplineSet
699 752 m 2,0,1
 699 689 699 689 651 672 c 1,2,-1
 515 672 l 1,3,-1
 515 126 l 1,4,5
 541 124 541 124 566 124 c 2,6,-1
 616 124 l 2,7,8
 954 124 954 124 1100 247 c 0,9,10
 1262 383 1262 383 1261 716 c 0,11,12
 1261 1046 1261 1046 1137 1184 c 0,13,14
 1020 1314 1020 1314 753 1314 c 1,15,-1
 515 1310 l 1,16,-1
 515 804 l 1,17,-1
 699 804 l 1,18,-1
 699 752 l 2,0,1
705 6 m 0,19,20
 564 0 564 0 425.5 0 c 128,-1,21
 287 0 287 0 91 -14 c 1,22,-1
 91 127 l 1,23,-1
 181 127 l 2,24,25
 256 127 256 127 284 136 c 1,26,27
 299 181 299 181 299 257 c 2,28,-1
 299 672 l 1,29,-1
 118 672 l 1,30,-1
 118 742 l 2,31,32
 118 782 118 782 134 792 c 0,33,34
 156 804 156 804 200 804 c 2,35,-1
 299 804 l 1,36,-1
 299 1145 l 2,37,38
 299 1226 299 1226 284 1288 c 1,39,40
 254 1299 254 1299 181 1299 c 2,41,-1
 78 1299 l 1,42,-1
 78 1416 l 1,43,44
 374 1453 374 1453 781 1453 c 0,45,46
 1240 1454 1240 1454 1404 1162 c 0,47,48
 1500 991 1500 991 1501 710 c 0,49,50
 1502 243 1502 243 1188 100 c 0,51,52
 1006 18 1006 18 705 6 c 0,19,20
EndSplineSet
EndChar

StartChar: dcroat
Encoding: 273 273 208
Width: 1339
GlyphClass: 2
Flags: W
LayerCount: 2
Fore
SplineSet
628 947 m 0,0,1
 342 947 342 947 342 524 c 128,-1,2
 342 101 342 101 623 101 c 0,3,4
 777 100 777 100 861 242 c 0,5,6
 888 288 888 288 903 345 c 1,7,8
 903 641 903 641 891 838 c 1,9,10
 822 914 822 914 698 940 c 0,11,12
 662 948 662 948 628 947 c 0,0,1
900 936 m 1,13,-1
 900 1187 l 1,14,-1
 714 1187 l 1,15,-1
 714 1257 l 2,16,17
 714 1297 714 1297 730 1307 c 0,18,19
 752 1319 752 1319 796 1319 c 2,20,-1
 900 1319 l 1,21,-1
 900 1354 l 2,22,23
 900 1406 900 1406 893 1441 c 1,24,25
 849 1455 849 1455 806 1455 c 2,26,-1
 709 1455 l 1,27,-1
 709 1542 l 1,28,29
 824 1569 824 1569 1048 1569 c 0,30,31
 1088 1569 1088 1569 1105 1566 c 1,32,33
 1113 1539 1113 1539 1113 1486 c 2,34,-1
 1113 1319 l 1,35,-1
 1295 1319 l 1,36,-1
 1295 1267 l 2,37,38
 1295 1204 1295 1204 1247 1187 c 1,39,-1
 1113 1187 l 1,40,-1
 1113 269 l 2,41,42
 1113 174 1113 174 1130 101 c 1,43,-1
 1303 101 l 1,44,-1
 1303 15 l 1,45,46
 1163 -20 1163 -20 984 -10 c 0,47,48
 932 -8 932 -8 916 28 c 0,49,50
 908 48 908 48 907 84 c 2,51,-1
 907 132 l 1,52,53
 784 -24 784 -24 557 -24 c 0,54,55
 366 -24 366 -24 244 108 c 0,56,57
 114 250 114 250 113 503 c 0,58,59
 114 772 114 772 234 922 c 0,60,61
 353 1070 353 1070 560 1069.5 c 128,-1,62
 767 1069 767 1069 900 936 c 1,13,-1
EndSplineSet
EndChar

StartChar: hbar
Encoding: 295 295 213
Width: 1356
GlyphClass: 2
Flags: W
LayerCount: 2
Fore
SplineSet
1135 269 m 2,0,1
 1135 174 1135 174 1152 101 c 1,2,-1
 1305 101 l 1,3,-1
 1305 12 l 1,4,5
 1213 -13 1213 -13 1041 -13 c 0,6,7
 915 -13 915 -13 915 73 c 1,8,9
 921 281 l 1,10,-1
 921 644 l 2,11,12
 921 828 921 828 879 892 c 0,13,14
 844 946 844 946 751 946 c 0,15,16
 640 946 640 946 544 880 c 0,17,18
 451 815 451 815 442 747 c 1,19,-1
 442 226 l 2,20,21
 442 140 442 140 456 118 c 0,22,23
 478 84 478 84 562 71 c 1,24,-1
 570 -13 l 1,25,26
 296 10 296 10 100 -13 c 1,27,-1
 104 71 l 1,28,29
 191 82 191 82 207.5 102 c 128,-1,30
 224 122 224 122 226 144.5 c 128,-1,31
 228 167 228 167 228 200 c 2,32,-1
 228 1150 l 1,33,-1
 43 1150 l 1,34,-1
 43 1273 l 1,35,-1
 228 1273 l 1,36,-1
 228 1353 l 2,37,38
 228 1409 228 1409 220 1441 c 1,39,40
 180 1455 180 1455 135 1455 c 2,41,-1
 37 1455 l 1,42,-1
 37 1542 l 1,43,44
 151 1570 151 1570 355 1570 c 0,45,46
 417 1570 417 1570 428 1556 c 0,47,48
 442 1539 442 1539 442 1475 c 2,49,-1
 442 1273 l 1,50,-1
 630 1273 l 1,51,-1
 630 1150 l 1,52,-1
 442 1150 l 1,53,-1
 442 918 l 1,54,55
 515 987 515 987 616 1024 c 128,-1,56
 717 1061 717 1061 826 1061 c 0,57,58
 988 1061 988 1061 1061.5 983.5 c 128,-1,59
 1135 906 1135 906 1135 745 c 2,60,-1
 1135 269 l 2,0,1
EndSplineSet
EndChar

StartChar: dotlessi
Encoding: 305 305 216
Width: 655
GlyphClass: 2
Flags: W
LayerCount: 2
Fore
SplineSet
230 69 m 1,0,-1
 237 277 l 1,1,-1
 237 839 l 2,2,3
 237 889 237 889 228 925 c 1,4,5
 195 940 195 940 143 940 c 2,6,-1
 47 940 l 1,7,-1
 47 1026 l 1,8,9
 167 1053 167 1053 359 1053 c 0,10,11
 403 1053 403 1053 421.5 1048 c 128,-1,12
 440 1043 440 1043 450 1026 c 1,13,-1
 450 227 l 2,14,15
 450 161 450 161 463 116 c 1,16,17
 500 90 500 90 552 90 c 2,18,-1
 610 90 l 1,19,-1
 621 7 l 1,20,21
 525 -17 525 -17 356 -17 c 0,22,23
 230 -17 230 -17 230 69 c 1,0,-1
EndSplineSet
EndChar

StartChar: kgreenlandic
Encoding: 312 312 222
Width: 1245
GlyphClass: 2
Flags: W
LayerCount: 2
Fore
SplineSet
564 -13 m 1,0,1
 304 10 304 10 98 -13 c 1,2,-1
 101 72 l 1,3,4
 188 83 188 83 204.5 103 c 128,-1,5
 221 123 221 123 223 145.5 c 128,-1,6
 225 168 225 168 225 201 c 2,7,-1
 225 821 l 2,8,9
 225 884 225 884 217 924 c 1,10,11
 177 938 177 938 131 938 c 2,12,-1
 34 938 l 1,13,-1
 34 1025 l 1,14,15
 132 1046 132 1046 389 1056 c 1,16,17
 422 1034 422 1034 430.5 1006.5 c 128,-1,18
 439 979 439 979 439 940 c 2,19,-1
 439 523 l 1,20,-1
 703 778 l 2,21,22
 817 887 817 887 818 918 c 0,23,24
 818 936 818 936 780 936 c 1,25,-1
 780 1032 l 1,26,-1
 1213 1032 l 1,27,-1
 1213 936 l 1,28,-1
 1175 936 l 2,29,30
 1110 936 1110 936 1040 894 c 0,31,32
 1020 882 1020 882 1009 872 c 2,33,-1
 666 566 l 1,34,-1
 1036 145 l 1,35,36
 1072 103 1072 103 1156 86 c 0,37,38
 1180 81 1180 81 1199.5 81 c 128,-1,39
 1219 81 1219 81 1231 84 c 1,40,-1
 1244 -14 l 1,41,42
 1019 12 1019 12 747 -13 c 1,43,-1
 747 75 l 1,44,45
 770 75 770 75 783 77 c 128,-1,46
 796 79 796 79 796 92 c 1,47,48
 777 124 777 124 731 179 c 1,49,-1
 492 470 l 1,50,-1
 439 432 l 1,51,-1
 439 226 l 2,52,53
 439 141 439 141 453 119 c 0,54,55
 475 85 475 85 559 72 c 1,56,-1
 564 -13 l 1,0,1
EndSplineSet
EndChar

StartChar: Lslash
Encoding: 321 321 229
Width: 1341
GlyphClass: 2
Flags: W
LayerCount: 2
Fore
SplineSet
78 1422 m 1,0,1
 207 1437 207 1437 420 1437 c 128,-1,2
 633 1437 633 1437 716 1422 c 1,3,-1
 716 1312 l 1,4,-1
 623 1312 l 2,5,6
 552 1312 552 1312 520 1301 c 1,7,8
 506 1255 506 1255 506 1181 c 2,9,-1
 506 808 l 1,10,-1
 883 1043 l 1,11,-1
 883 894 l 1,12,-1
 506 659 l 1,13,-1
 506 126 l 1,14,-1
 887 126 l 2,15,16
 1009 126 1009 126 1049 148 c 0,17,18
 1124 189 1124 189 1159 327 c 1,19,-1
 1245 315 l 1,20,-1
 1208 0 l 1,21,22
 1003 -14 1003 -14 862.5 -14 c 128,-1,23
 722 -14 722 -14 601.5 -7 c 128,-1,24
 481 0 481 0 343 0 c 128,-1,25
 205 0 205 0 79 -14 c 1,26,-1
 79 126 l 1,27,-1
 168 126 l 2,28,29
 243 126 243 126 271 135 c 1,30,31
 287 179 287 179 287 256 c 2,32,-1
 287 523 l 1,33,-1
 82 396 l 1,34,-1
 82 544 l 1,35,-1
 287 671 l 1,36,-1
 287 1181 l 2,37,38
 287 1255 287 1255 271 1301 c 1,39,40
 241 1312 241 1312 168 1312 c 2,41,-1
 78 1312 l 1,42,-1
 78 1422 l 1,0,1
EndSplineSet
EndChar

StartChar: lslash
Encoding: 322 322 230
Width: 666
GlyphClass: 2
Flags: W
LayerCount: 2
Fore
SplineSet
212 73 m 1,0,-1
 219 281 l 1,1,-1
 219 713 l 1,2,-1
 42 601 l 1,3,-1
 42 732 l 1,4,-1
 219 845 l 1,5,-1
 219 1339 l 2,6,7
 219 1398 219 1398 210 1441 c 1,8,9
 170 1455 170 1455 123 1455 c 2,10,-1
 27 1455 l 1,11,-1
 27 1542 l 1,12,13
 151 1569 151 1569 323 1569 c 0,14,15
 409 1569 409 1569 430 1543 c 1,16,-1
 430 979 l 1,17,-1
 604 1090 l 1,18,-1
 604 957 l 1,19,-1
 430 846 l 1,20,-1
 430 269 l 2,21,22
 430 174 430 174 447 101 c 1,23,-1
 611 101 l 1,24,-1
 611 11 l 1,25,26
 511 -13 511 -13 338 -13 c 0,27,28
 212 -13 212 -13 212 73 c 1,0,-1
EndSplineSet
EndChar

StartChar: OE
Encoding: 338 338 237
Width: 2158
GlyphClass: 2
Flags: W
LayerCount: 2
Fore
SplineSet
1122 1310 m 1,0,1
 1012 1337 1012 1337 784 1337 c 0,2,3
 472 1336 472 1336 385 986 c 0,4,5
 356 868 356 868 356 711 c 0,6,7
 356 408 356 408 462.5 247.5 c 128,-1,8
 569 87 569 87 787 87 c 128,-1,9
 1005 87 1005 87 1122 122 c 1,10,-1
 1122 1310 l 1,0,1
1693 -14 m 1,11,-1
 1231 0 l 1,12,13
 1167 0 1167 0 1071 -12 c 0,14,15
 883 -37 883 -37 756 -37 c 128,-1,16
 629 -37 629 -37 505.5 14.5 c 128,-1,17
 382 66 382 66 295 162 c 0,18,19
 115 362 115 362 115 714 c 0,20,21
 115 1067 115 1067 295 1264 c 0,22,23
 473 1458 473 1458 784 1458 c 0,24,25
 891 1458 891 1458 974.5 1447.5 c 128,-1,26
 1058 1437 1058 1437 1122 1437 c 2,27,-1
 2028 1437 l 1,28,-1
 2055 1308 l 2,29,30
 2060 1283 2060 1283 2064.5 1257.5 c 128,-1,31
 2069 1232 2069 1232 2073 1210 c 0,32,33
 2078 1184 2078 1184 2082 1144 c 1,34,-1
 1935 1138 l 1,35,-1
 1927 1188 l 1,36,37
 1916 1246 1916 1246 1904 1282 c 1,38,39
 1843 1310 1843 1310 1647 1310 c 0,40,41
 1619 1310 1619 1310 1339 1303 c 1,42,-1
 1339 799 l 1,43,-1
 1679 799 l 2,44,45
 1727 799 1727 799 1745 812 c 0,46,47
 1779 836 1779 836 1800 910 c 1,48,-1
 1852 910 l 1,49,50
 1852 730 1852 730 1839 555 c 1,51,-1
 1776 555 l 1,52,53
 1752 630 1752 630 1731 649 c 0,54,55
 1699 679 1699 679 1646 679 c 2,56,-1
 1339 679 l 1,57,-1
 1339 126 l 1,58,-1
 1795 126 l 2,59,60
 1904 126 1904 126 1943 160 c 1,61,62
 1961 213 1961 213 1970 327 c 1,63,-1
 2094 325 l 1,64,-1
 2094 209 l 2,65,66
 2094 141 2094 141 2084 21 c 1,67,68
 1991 -7 1991 -7 1883.5 -10.5 c 128,-1,69
 1776 -14 1776 -14 1693 -14 c 1,11,-1
EndSplineSet
EndChar

StartChar: oe
Encoding: 339 339 238
Width: 1853
GlyphClass: 2
Flags: W
LayerCount: 2
Fore
SplineSet
1551 604 m 1,0,1
 1553 626 1553 626 1553 668.5 c 128,-1,2
 1553 711 1553 711 1539.5 766.5 c 128,-1,3
 1526 822 1526 822 1499 864 c 0,4,5
 1440 958 1440 958 1329.5 958 c 128,-1,6
 1219 958 1219 958 1157.5 867 c 128,-1,7
 1096 776 1096 776 1087 604 c 1,8,-1
 1551 604 l 1,0,1
610 73 m 0,9,10
 876 73 876 73 876 516.5 c 128,-1,11
 876 960 876 960 609 960 c 128,-1,12
 342 960 342 960 342 518 c 0,13,14
 342 288 342 288 412 180.5 c 128,-1,15
 482 73 482 73 610 73 c 0,9,10
1685 205 m 1,16,-1
 1769 167 l 1,17,18
 1661 -34 1661 -34 1362 -34 c 0,19,20
 1126 -34 1126 -34 980 142 c 1,21,22
 849 -34 849 -34 607 -34 c 0,23,24
 382 -34 382 -34 248 114 c 0,25,26
 112 264 112 264 113 518 c 0,27,28
 112 768 112 768 250 918 c 0,29,30
 387 1068 387 1068 611 1068 c 0,31,32
 869 1068 869 1068 985 879 c 1,33,34
 1128 1068 1128 1068 1366 1068 c 0,35,36
 1540 1068 1540 1068 1652 960 c 0,37,38
 1768 848 1768 848 1769 659 c 0,39,40
 1769 553 1769 553 1734 518 c 0,41,42
 1704 488 1704 488 1627 488 c 2,43,-1
 1088 488 l 1,44,45
 1096 296 1096 296 1187 192 c 0,46,47
 1275 90 1275 90 1428 90 c 128,-1,48
 1581 90 1581 90 1685 205 c 1,16,-1
EndSplineSet
EndChar

StartChar: florin
Encoding: 402 402 266
Width: 828
GlyphClass: 2
Flags: W
LayerCount: 2
Fore
SplineSet
822 1294 m 1,0,1
 794 1298 794 1298 750.5 1298 c 128,-1,2
 707 1298 707 1298 672 1280.5 c 0,3,4
 636 1263 636 1263 612 1228 c 0,5,6
 568 1165 568 1165 543 1021 c 2,7,-1
 501 785 l 1,8,-1
 726 785 l 1,9,-1
 706 674 l 1,10,-1
 480 674 l 1,11,-1
 370 87 l 1,12,13
 330 -120 330 -120 254 -200 c 0,14,15
 176 -282 176 -282 16 -282 c 0,16,17
 -34 -282 -34 -282 -82 -278 c 1,18,-1
 -67 -160 l 1,19,20
 3 -160 3 -160 48.5 -152.5 c 0,21,22
 94 -144 94 -144 124 -116 c 0,23,24
 178 -65 178 -65 212 122 c 2,25,-1
 316 674 l 1,26,-1
 112 674 l 1,27,-1
 132 785 l 1,28,-1
 337 785 l 1,29,-1
 401 1121 l 1,30,31
 445 1360 445 1360 632 1406 c 0,32,33
 690 1420 690 1420 733 1421 c 0,34,35
 807 1421 807 1421 844 1408 c 1,36,-1
 822 1294 l 1,0,1
EndSplineSet
EndChar

StartChar: dotlessj
Encoding: 567 567 295
Width: 865
GlyphClass: 2
Flags: W
LayerCount: 2
Fore
SplineSet
244 1032 m 1,0,1
 324 1052 324 1052 460 1052 c 128,-1,2
 596 1052 596 1052 647 1032 c 1,3,-1
 647 86 l 2,4,5
 647 -144 647 -144 562 -259 c 128,-1,6
 477 -374 477 -374 314 -374 c 0,7,8
 192 -374 192 -374 55 -333 c 1,9,-1
 102 -56 l 1,10,11
 162 -67 162 -67 208 -74 c 1,12,13
 208 -152 208 -152 222 -240 c 1,14,15
 306 -252 306 -252 336 -252 c 128,-1,16
 366 -252 366 -252 386.5 -222 c 0,17,18
 408 -192 408 -192 418 -142 c 0,19,20
 434 -64 434 -64 434 104 c 2,21,-1
 434 842 l 2,22,23
 434 891 434 891 427 921 c 1,24,25
 391 936 391 936 341 936 c 2,26,-1
 244 936 l 1,27,-1
 244 1032 l 1,0,1
EndSplineSet
EndChar

StartChar: circumflex
Encoding: 710 710 296
Width: 1229
GlyphClass: 2
Flags: W
LayerCount: 2
Fore
SplineSet
940 1282 m 1,0,1
 928 1264 928 1264 887 1264 c 2,2,-1
 806 1264 l 1,3,-1
 616 1456 l 1,4,-1
 422 1264 l 1,5,-1
 345 1264 l 2,6,7
 301 1264 301 1264 289 1282 c 1,8,9
 300 1304 300 1304 311 1319 c 2,10,-1
 515 1587 l 1,11,-1
 714 1587 l 1,12,-1
 919 1319 l 1,13,14
 936 1293 936 1293 940 1282 c 1,0,1
EndSplineSet
EndChar

StartChar: caron
Encoding: 711 711 297
Width: 1284
GlyphClass: 2
Flags: W
LayerCount: 2
Fore
SplineSet
289 1589 m 1,0,1
 336 1603 336 1603 373 1603 c 128,-1,2
 410 1603 410 1603 439 1593 c 1,3,-1
 643 1385 l 1,4,-1
 846 1593 l 1,5,6
 876 1603 876 1603 904 1603 c 0,7,8
 950 1603 950 1603 995 1589 c 1,9,10
 931 1511 931 1511 870 1432 c 128,-1,11
 809 1353 809 1353 746 1275 c 1,12,13
 704 1229 704 1229 644 1229 c 0,14,15
 586 1229 586 1229 551 1268 c 1,16,-1
 289 1589 l 1,0,1
EndSplineSet
EndChar

StartChar: uni02C9
Encoding: 713 713 298
Width: 591
GlyphClass: 2
Flags: W
LayerCount: 2
Fore
SplineSet
2 1421 m 1,0,-1
 589 1421 l 1,1,-1
 589 1298 l 1,2,-1
 2 1298 l 1,3,-1
 2 1421 l 1,0,-1
EndSplineSet
EndChar

StartChar: breve
Encoding: 728 728 299
Width: 1259
GlyphClass: 2
Flags: W
LayerCount: 2
Fore
SplineSet
393 1596 m 1,0,1
 429 1404 429 1404 631 1404 c 128,-1,2
 833 1404 833 1404 869 1596 c 1,3,-1
 959 1559 l 1,4,5
 952 1432 952 1432 858 1348 c 0,6,7
 767 1266 767 1266 631.5 1266 c 128,-1,8
 496 1266 496 1266 404 1348 c 0,9,10
 310 1432 310 1432 303 1559 c 1,11,-1
 393 1596 l 1,0,1
EndSplineSet
EndChar

StartChar: dotaccent
Encoding: 729 729 300
Width: 706
GlyphClass: 2
Flags: W
LayerCount: 2
Fore
SplineSet
497 1476 m 0,0,1
 497 1329 497 1329 371 1329 c 0,2,3
 258 1329 258 1329 231 1411 c 0,4,5
 223 1435 223 1435 223 1465.5 c 128,-1,6
 223 1496 223 1496 233 1522 c 0,7,8
 242 1548 242 1548 260 1565 c 0,9,10
 296 1600 296 1600 341.5 1600 c 128,-1,11
 387 1600 387 1600 415 1589.5 c 0,12,13
 443 1580 443 1580 461 1562 c 0,14,15
 497 1526 497 1526 497 1476 c 0,0,1
EndSplineSet
EndChar

StartChar: ring
Encoding: 730 730 301
Width: 655
GlyphClass: 2
Flags: W
LayerCount: 2
Fore
SplineSet
456 1460 m 128,-1,1
 456 1520 456 1520 421 1554.5 c 128,-1,2
 386 1589 386 1589 327.5 1589 c 128,-1,3
 269 1589 269 1589 233.5 1554.5 c 128,-1,4
 198 1520 198 1520 198 1460 c 128,-1,5
 198 1400 198 1400 232 1366.5 c 128,-1,6
 266 1333 266 1333 324.5 1333 c 128,-1,7
 383 1333 383 1333 419.5 1366.5 c 128,-1,0
 456 1400 456 1400 456 1460 c 128,-1,1
559 1459 m 0,8,9
 559 1409 559 1409 541 1367 c 0,10,11
 524 1325 524 1325 492 1296 c 0,12,13
 426 1235 426 1235 326 1235 c 0,14,15
 225 1235 225 1235 160 1298 c 0,16,17
 94 1362 94 1362 94 1460 c 128,-1,18
 94 1558 94 1558 160 1622 c 0,19,20
 224 1685 224 1685 326 1685 c 128,-1,21
 428 1685 428 1685 493 1622 c 0,22,23
 559 1558 559 1558 559 1459 c 0,8,9
EndSplineSet
EndChar

StartChar: ogonek
Encoding: 731 731 302
Width: 981
GlyphClass: 2
Flags: W
LayerCount: 2
Fore
SplineSet
748 -376 m 1,0,1
 664 -436 664 -436 543 -436 c 0,2,3
 452 -436 452 -436 416 -408 c 0,4,5
 352 -359 352 -359 352 -281 c 0,6,7
 352 -154 352 -154 526 -32 c 0,8,9
 572 0 572 0 615 24 c 1,10,-1
 672 1 l 1,11,12
 518 -122 518 -122 518 -230 c 0,13,14
 518 -307 518 -307 580 -325 c 0,15,16
 598 -330 598 -330 627 -330 c 128,-1,17
 656 -330 656 -330 724 -302 c 1,18,19
 743 -326 743 -326 748 -376 c 1,0,1
EndSplineSet
EndChar

StartChar: tilde
Encoding: 732 732 303
Width: 1229
GlyphClass: 2
Flags: W
LayerCount: 2
Fore
SplineSet
225 1320 m 1,0,1
 316 1521 316 1521 467 1521 c 0,2,3
 532 1521 532 1521 629 1467.5 c 128,-1,4
 726 1414 726 1414 784 1414 c 128,-1,5
 842 1414 842 1414 899 1505 c 1,6,7
 952 1505 952 1505 1001 1477 c 1,8,9
 895 1275 895 1275 767 1275 c 0,10,11
 698 1275 698 1275 592 1329 c 0,12,13
 552 1349 552 1349 516 1366 c 128,-1,14
 480 1383 480 1383 451.5 1383 c 128,-1,15
 423 1383 423 1383 403.5 1371.5 c 128,-1,16
 384 1360 384 1360 368 1345 c 128,-1,17
 352 1330 352 1330 340.5 1315 c 128,-1,18
 329 1300 329 1300 323 1293 c 1,19,20
 268 1293 268 1293 225 1320 c 1,0,1
EndSplineSet
EndChar

StartChar: hungarumlaut
Encoding: 733 733 304
Width: 1194
GlyphClass: 2
Flags: W
LayerCount: 2
Fore
SplineSet
544 1265 m 1,0,-1
 733 1587 l 1,1,-1
 983 1587 l 1,2,-1
 681 1264 l 1,3,-1
 544 1265 l 1,0,-1
209 1265 m 1,4,-1
 397 1587 l 1,5,-1
 648 1587 l 1,6,-1
 345 1264 l 1,7,-1
 209 1265 l 1,4,-1
EndSplineSet
EndChar

StartChar: dotaccentcmb
Encoding: 775 775 305
Width: 641
GlyphClass: 2
Flags: W
LayerCount: 2
Fore
SplineSet
386.5 -24 m 128,-1,1
 361 -36 361 -36 326.5 -36.5 c 128,-1,2
 292 -37 292 -37 266 -25 c 128,-1,3
 240 -13 240 -13 223 6.5 c 128,-1,4
 206 26 206 26 197.5 50.5 c 128,-1,5
 189 75 189 75 189 101 c 128,-1,6
 189 127 189 127 197.5 152.5 c 128,-1,7
 206 178 206 178 223 198 c 0,8,9
 260 242 260 242 325 242 c 0,10,11
 388 242 388 242 426 198 c 0,12,13
 460 159 460 159 460.5 117 c 128,-1,14
 461 75 461 75 453 51 c 128,-1,15
 445 27 445 27 428.5 7.5 c 128,-1,0
 412 -12 412 -12 386.5 -24 c 128,-1,1
EndSplineSet
EndChar

StartChar: uni030F
Encoding: 783 783 306
Width: 1272
GlyphClass: 2
Flags: W
LayerCount: 2
Fore
SplineSet
1013 1265 m 1,0,1
 1008 1264 1008 1264 994 1264 c 0,2,3
 936 1264 936 1264 877 1264 c 1,4,5
 607 1542 607 1542 574 1587 c 1,6,-1
 825 1587 l 1,7,-1
 1013 1265 l 1,0,1
678 1265 m 1,8,9
 672 1264 672 1264 658 1264 c 0,10,11
 599 1264 599 1264 541 1264 c 1,12,13
 285 1528 285 1528 265 1553.5 c 128,-1,14
 245 1579 245 1579 239 1587 c 1,15,-1
 489 1587 l 1,16,-1
 678 1265 l 1,8,9
EndSplineSet
EndChar

StartChar: uni0311
Encoding: 785 785 307
Width: 1259
GlyphClass: 2
Flags: W
LayerCount: 2
Fore
SplineSet
869 1266 m 1,0,1
 833 1458 833 1458 631 1458 c 128,-1,2
 429 1458 429 1458 393 1266 c 1,3,-1
 303 1303 l 1,4,5
 310 1430 310 1430 404 1514 c 0,6,7
 495 1596 495 1596 630.5 1596 c 128,-1,8
 766 1596 766 1596 858 1514 c 0,9,10
 952 1430 952 1430 959 1303 c 1,11,-1
 869 1266 l 1,0,1
EndSplineSet
EndChar

StartChar: uni0326
Encoding: 806 806 308
Width: 556
GlyphClass: 2
Flags: W
LayerCount: 2
Fore
SplineSet
127 -641 m 1,0,1
 96 -641 96 -641 83 -623 c 1,2,-1
 70 -592 l 1,3,4
 153 -475 153 -475 166 -322 c 2,5,-1
 169 -284 l 1,6,7
 116 -284 116 -284 92 -240 c 0,8,9
 86 -228 86 -228 87 -199.5 c 128,-1,10
 88 -171 88 -171 100.5 -144.5 c 128,-1,11
 113 -118 113 -118 131 -103 c 0,12,13
 163 -76 163 -76 229 -76 c 128,-1,14
 295 -76 295 -76 325.5 -106.5 c 128,-1,15
 356 -137 356 -137 356 -196.5 c 128,-1,16
 356 -256 356 -256 337.5 -320 c 128,-1,17
 319 -384 319 -384 288 -442 c 0,18,19
 229 -552 229 -552 127 -641 c 1,0,1
EndSplineSet
EndChar

StartChar: uni03BC
Encoding: 956 956 310
Width: 1311
GlyphClass: 2
Flags: W
LayerCount: 2
Fore
SplineSet
883 438 m 1,0,-1
 891 781 l 1,1,2
 891 855 891 855 870 878 c 0,3,4
 837 913 837 913 769 913 c 2,5,-1
 691 913 l 1,6,-1
 691 1008 l 1,7,8
 1007 1008 1007 1008 1069 1025 c 1,9,-1
 1069 245 l 2,10,11
 1069 144 1069 144 1097 114 c 0,12,13
 1120 89 1120 89 1198 89 c 2,14,-1
 1242 89 l 1,15,-1
 1242 0 l 1,16,-1
 902 0 l 1,17,-1
 897 169 l 1,18,-1
 893 169 l 1,19,20
 841 65 841 65 761.5 19.5 c 128,-1,21
 682 -26 682 -26 580 -26 c 128,-1,22
 478 -26 478 -26 419 15 c 1,23,-1
 419 -457 l 1,24,-1
 239 -457 l 1,25,-1
 239 792 l 2,26,27
 239 863 239 863 215.5 888 c 128,-1,28
 192 913 192 913 142 913 c 2,29,-1
 70 913 l 1,30,-1
 70 1008 l 1,31,32
 292 1008 292 1008 419 1025 c 1,33,-1
 419 381 l 2,34,35
 419 156 419 156 533 112 c 0,36,37
 571 98 571 98 623.5 98 c 128,-1,38
 676 98 676 98 723.5 120 c 0,39,40
 770 142 770 142 806 186 c 0,41,42
 882 280 882 280 883 438 c 1,0,-1
EndSplineSet
EndChar

StartChar: pi
Encoding: 960 960 311
Width: 1242
GlyphClass: 2
Flags: W
LayerCount: 2
Fore
SplineSet
411 907 m 1,0,-1
 985 902 l 2,1,2
 1034 902 1034 902 1052 912 c 0,3,4
 1083 929 1083 929 1109 970 c 1,5,-1
 1158 954 l 1,6,7
 1138 836 1138 836 1085 767 c 1,8,9
 1046 758 1046 758 943 758 c 1,10,11
 931 650 931 650 931 484 c 128,-1,12
 931 318 931 318 933 262.5 c 0,13,14
 935 208 935 208 944 170 c 0,15,16
 962 94 962 94 1024 93 c 0,17,18
 1056 93 1056 93 1079 110 c 128,-1,19
 1102 127 1102 127 1129 156 c 1,20,-1
 1156 114 l 1,21,22
 1114 42 1114 42 1055.5 8 c 128,-1,23
 997 -26 997 -26 947.5 -26 c 128,-1,24
 898 -26 898 -26 864.5 -14 c 0,25,26
 830 -2 830 -2 806 28 c 0,27,28
 754 91 754 91 754.5 268 c 128,-1,29
 755 445 755 445 776 763 c 1,30,31
 590 767 590 767 444 767 c 1,32,-1
 444 729 l 2,33,34
 444 428 444 428 386 208 c 0,35,36
 347 59 347 59 306 11 c 1,37,38
 231 -18 231 -18 182 -26 c 1,39,-1
 169 11 l 1,40,41
 303 169 303 169 349 522 c 0,42,43
 365 645 365 645 365 769 c 1,44,45
 268 769 268 769 221 750 c 0,46,47
 159 725 159 725 95 674 c 1,48,-1
 66 721 l 1,49,50
 69 724 69 724 71.5 727.5 c 128,-1,51
 74 731 74 731 86.5 747 c 128,-1,52
 99 763 99 763 126.5 793 c 0,53,54
 154 822 154 822 192 848 c 0,55,56
 280 906 280 906 411 907 c 1,0,-1
EndSplineSet
EndChar

StartChar: endash
Encoding: 8211 8211 312
Width: 990
GlyphClass: 2
Flags: W
LayerCount: 2
Fore
SplineSet
-10 519 m 1,0,-1
 -10 581 l 2,1,2
 -10 646 -10 646 48 650 c 0,3,4
 66 652 66 652 87 651 c 2,5,-1
 1000 651 l 1,6,-1
 1000 590 l 2,7,8
 1000 558 1000 558 989 542.5 c 128,-1,9
 978 527 978 527 952 519 c 1,10,-1
 -10 519 l 1,0,-1
EndSplineSet
EndChar

StartChar: emdash
Encoding: 8212 8212 313
Width: 1756
GlyphClass: 2
Flags: W
LayerCount: 2
Fore
SplineSet
-10 519 m 1,0,-1
 -10 581 l 2,1,2
 -10 646 -10 646 48 650 c 0,3,4
 66 652 66 652 87 651 c 2,5,-1
 1766 651 l 1,6,-1
 1766 590 l 2,7,8
 1766 558 1766 558 1755.5 542.5 c 128,-1,9
 1745 527 1745 527 1719 519 c 1,10,-1
 -10 519 l 1,0,-1
EndSplineSet
EndChar

StartChar: quoteleft
Encoding: 8216 8216 314
Width: 464
GlyphClass: 2
Flags: W
LayerCount: 2
Fore
SplineSet
345 1564 m 1,0,1
 376 1564 376 1564 403 1516 c 1,2,3
 317 1408 317 1408 302 1208 c 1,4,5
 354 1208 354 1208 378 1162 c 0,6,7
 384 1149 384 1149 384 1122 c 128,-1,8
 384 1095 384 1095 372 1069 c 128,-1,9
 360 1043 360 1043 342 1028 c 0,10,11
 310 1001 310 1001 263 1001 c 128,-1,12
 216 1001 216 1001 188.5 1009 c 0,13,14
 160 1017 160 1017 144 1032 c 0,15,16
 114 1059 114 1059 114.5 1116.5 c 128,-1,17
 115 1174 115 1174 132 1237.5 c 0,18,19
 150 1300 150 1300 180 1360 c 0,20,21
 244 1486 244 1486 345 1564 c 1,0,1
EndSplineSet
EndChar

StartChar: quoteright
Encoding: 8217 8217 315
Width: 463
GlyphClass: 2
Flags: W
LayerCount: 2
Fore
SplineSet
123 1001 m 1,0,1
 92 1001 92 1001 65 1049 c 1,2,3
 113 1112 113 1112 129 1164 c 0,4,5
 158 1254 158 1254 166 1357 c 1,6,7
 114 1356 114 1356 90 1402 c 0,8,9
 84 1414 84 1414 84 1441.5 c 128,-1,10
 84 1469 84 1469 96 1495.5 c 128,-1,11
 108 1522 108 1522 126 1537 c 0,12,13
 158 1564 158 1564 205 1564 c 128,-1,14
 252 1564 252 1564 279.5 1556 c 0,15,16
 308 1548 308 1548 324 1533 c 0,17,18
 354 1506 354 1506 353.5 1448.5 c 128,-1,19
 353 1391 353 1391 336 1327.5 c 0,20,21
 318 1264 318 1264 288 1204 c 0,22,23
 224 1078 224 1078 123 1001 c 1,0,1
EndSplineSet
EndChar

StartChar: quotesinglbase
Encoding: 8218 8218 316
Width: 462
GlyphClass: 2
Flags: W
LayerCount: 2
Fore
SplineSet
117 -322 m 1,0,1
 102 -322 102 -322 89.5 -313.5 c 128,-1,2
 77 -305 77 -305 61 -273 c 1,3,4
 142 -161 142 -161 160 35 c 1,5,6
 127 36 127 36 108 52 c 0,7,8
 76 80 76 80 76 114.5 c 128,-1,9
 76 149 76 149 88.5 175.5 c 0,10,11
 102 202 102 202 120 217 c 0,12,13
 152 243 152 243 199 243 c 128,-1,14
 246 243 246 243 273.5 235 c 0,15,16
 302 227 302 227 318 212 c 0,17,18
 348 185 348 185 347.5 123 c 128,-1,19
 347 61 347 61 328.5 -3 c 0,20,21
 310 -66 310 -66 278 -124 c 0,22,23
 218 -232 218 -232 117 -322 c 1,0,1
EndSplineSet
EndChar

StartChar: quotedblleft
Encoding: 8220 8220 317
Width: 861
GlyphClass: 2
Flags: W
LayerCount: 2
Fore
SplineSet
335 1564 m 1,0,1
 366 1564 366 1564 393 1516 c 1,2,3
 307 1408 307 1408 292 1208 c 1,4,5
 344 1208 344 1208 368 1162 c 0,6,7
 374 1149 374 1149 374 1122 c 128,-1,8
 374 1095 374 1095 362 1069 c 128,-1,9
 350 1043 350 1043 332 1028 c 0,10,11
 300 1001 300 1001 253 1001 c 128,-1,12
 206 1001 206 1001 178.5 1009 c 0,13,14
 150 1017 150 1017 134 1032 c 0,15,16
 104 1059 104 1059 104.5 1116.5 c 128,-1,17
 105 1174 105 1174 122 1237.5 c 0,18,19
 140 1300 140 1300 170 1360 c 0,20,21
 234 1486 234 1486 335 1564 c 1,0,1
733 1564 m 1,22,23
 764 1564 764 1564 791 1516 c 1,24,25
 705 1408 705 1408 690 1208 c 1,26,27
 742 1208 742 1208 766 1162 c 0,28,29
 772 1149 772 1149 772 1122 c 128,-1,30
 772 1095 772 1095 760 1069 c 128,-1,31
 748 1043 748 1043 730 1028 c 0,32,33
 698 1001 698 1001 651 1001 c 128,-1,34
 604 1001 604 1001 576.5 1009 c 0,35,36
 548 1017 548 1017 532 1032 c 0,37,38
 502 1059 502 1059 502.5 1116.5 c 128,-1,39
 503 1174 503 1174 520 1237.5 c 0,40,41
 538 1300 538 1300 568 1360 c 0,42,43
 632 1486 632 1486 733 1564 c 1,22,23
EndSplineSet
EndChar

StartChar: quotedblright
Encoding: 8221 8221 318
Width: 860
GlyphClass: 2
Flags: W
LayerCount: 2
Fore
SplineSet
561 1001 m 1,0,1
 530 1001 530 1001 503 1049 c 1,2,3
 551 1112 551 1112 567 1164 c 0,4,5
 596 1254 596 1254 604 1357 c 1,6,7
 552 1356 552 1356 528 1402 c 0,8,9
 522 1414 522 1414 522 1441.5 c 128,-1,10
 522 1469 522 1469 534 1495.5 c 128,-1,11
 546 1522 546 1522 564 1537 c 0,12,13
 596 1564 596 1564 643 1564 c 128,-1,14
 690 1564 690 1564 717.5 1556 c 0,15,16
 746 1548 746 1548 762 1533 c 0,17,18
 792 1506 792 1506 791.5 1448.5 c 128,-1,19
 791 1391 791 1391 774 1327.5 c 0,20,21
 756 1264 756 1264 726 1204 c 0,22,23
 662 1078 662 1078 561 1001 c 1,0,1
163 1001 m 1,24,25
 132 1001 132 1001 105 1049 c 1,26,27
 153 1112 153 1112 169 1164 c 0,28,29
 198 1254 198 1254 206 1357 c 1,30,31
 154 1356 154 1356 130 1402 c 0,32,33
 124 1414 124 1414 124 1441.5 c 128,-1,34
 124 1469 124 1469 136 1495.5 c 128,-1,35
 148 1522 148 1522 166 1537 c 0,36,37
 198 1564 198 1564 245 1564 c 128,-1,38
 292 1564 292 1564 319.5 1556 c 0,39,40
 348 1548 348 1548 364 1533 c 0,41,42
 394 1506 394 1506 393.5 1448.5 c 128,-1,43
 393 1391 393 1391 376 1327.5 c 0,44,45
 358 1264 358 1264 328 1204 c 0,46,47
 264 1078 264 1078 163 1001 c 1,24,25
EndSplineSet
EndChar

StartChar: quotedblbase
Encoding: 8222 8222 319
Width: 861
GlyphClass: 2
Flags: W
LayerCount: 2
Fore
SplineSet
746 127 m 0,0,1
 746 -116 746 -116 515 -322 c 1,2,3
 485 -322 485 -322 459 -273 c 1,4,5
 540 -158 540 -158 558 35 c 1,6,7
 524 35 524 35 499.5 56 c 128,-1,8
 475 77 475 77 476 113 c 128,-1,9
 477 149 477 149 488 173 c 0,10,11
 498 196 498 196 516 212 c 0,12,13
 550 242 550 242 597 242.5 c 128,-1,14
 644 243 644 243 671.5 234.5 c 0,15,16
 700 226 700 226 716 211 c 0,17,18
 746 183 746 183 746 127 c 0,0,1
118 -322 m 1,19,20
 103 -322 103 -322 90.5 -313.5 c 128,-1,21
 78 -305 78 -305 61 -273 c 1,22,23
 156 -148 156 -148 160 35 c 1,24,25
 128 36 128 36 109 52 c 0,26,27
 77 80 77 80 77 114.5 c 128,-1,28
 77 149 77 149 89 175.5 c 128,-1,29
 101 202 101 202 120 217 c 0,30,31
 153 243 153 243 219 243 c 0,32,33
 347 243 347 243 347 131 c 0,34,35
 347 -62 347 -62 206 -232 c 0,36,37
 164 -282 164 -282 118 -322 c 1,19,20
EndSplineSet
EndChar

StartChar: dagger
Encoding: 8224 8224 320
Width: 927
GlyphClass: 2
Flags: W
LayerCount: 2
Fore
SplineSet
72 1068 m 1,0,-1
 383 1068 l 1,1,-1
 383 1387 l 1,2,-1
 545 1387 l 1,3,-1
 545 1068 l 1,4,-1
 855 1068 l 1,5,-1
 855 957 l 1,6,-1
 545 957 l 1,7,-1
 545 0 l 1,8,-1
 383 0 l 1,9,-1
 383 957 l 1,10,-1
 72 957 l 1,11,-1
 72 1068 l 1,0,-1
EndSplineSet
EndChar

StartChar: daggerdbl
Encoding: 8225 8225 321
Width: 927
GlyphClass: 2
Flags: W
LayerCount: 2
Fore
SplineSet
72 1106 m 1,0,-1
 383 1106 l 1,1,-1
 383 1387 l 1,2,-1
 545 1387 l 1,3,-1
 545 1106 l 1,4,-1
 855 1106 l 1,5,-1
 855 995 l 1,6,-1
 545 995 l 1,7,-1
 545 392 l 1,8,-1
 855 392 l 1,9,-1
 855 280 l 1,10,-1
 545 280 l 1,11,-1
 545 0 l 1,12,-1
 383 0 l 1,13,-1
 383 280 l 1,14,-1
 72 280 l 1,15,-1
 72 392 l 1,16,-1
 383 392 l 1,17,-1
 383 995 l 1,18,-1
 72 995 l 1,19,-1
 72 1106 l 1,0,-1
EndSplineSet
EndChar

StartChar: bullet
Encoding: 8226 8226 322
Width: 750
GlyphClass: 2
Flags: W
LayerCount: 2
Fore
SplineSet
100 638 m 128,-1,1
 100 695 100 695 121.5 745 c 128,-1,2
 143 795 143 795 180 832.5 c 128,-1,3
 217 870 217 870 267 891.5 c 128,-1,4
 317 913 317 913 374 913 c 128,-1,5
 431 913 431 913 481 891.5 c 128,-1,6
 531 870 531 870 568.5 832.5 c 128,-1,7
 606 795 606 795 628 745 c 128,-1,8
 650 695 650 695 650 638 c 128,-1,9
 650 581 650 581 628 531 c 128,-1,10
 606 481 606 481 568.5 444.5 c 128,-1,11
 531 408 531 408 481 386.5 c 128,-1,12
 431 365 431 365 374 365 c 128,-1,13
 317 365 317 365 267 386.5 c 128,-1,14
 217 408 217 408 180 445 c 128,-1,15
 143 482 143 482 121.5 531.5 c 128,-1,0
 100 581 100 581 100 638 c 128,-1,1
EndSplineSet
EndChar

StartChar: ellipsis
Encoding: 8230 8230 323
Width: 1988
GlyphClass: 2
Flags: W
LayerCount: 2
Fore
SplineSet
1824 106 m 128,-1,1
 1824 -26 1824 -26 1702.5 -26 c 128,-1,2
 1581 -26 1581 -26 1581 106 c 128,-1,3
 1581 238 1581 238 1702.5 238 c 128,-1,0
 1824 238 1824 238 1824 106 c 128,-1,1
1115 106 m 128,-1,5
 1115 -26 1115 -26 993.5 -26 c 128,-1,6
 872 -26 872 -26 872 106 c 128,-1,7
 872 238 872 238 993.5 238 c 128,-1,4
 1115 238 1115 238 1115 106 c 128,-1,5
407 106 m 128,-1,9
 407 -26 407 -26 285.5 -26 c 128,-1,10
 164 -26 164 -26 164 106 c 128,-1,11
 164 238 164 238 285.5 238 c 128,-1,8
 407 238 407 238 407 106 c 128,-1,9
EndSplineSet
EndChar

StartChar: perthousand
Encoding: 8240 8240 324
Width: 2099
GlyphClass: 2
Flags: W
LayerCount: 2
Fore
SplineSet
1108 1449 m 1,0,-1
 1232 1449 l 1,1,-1
 358 -62 l 1,2,-1
 235 -62 l 1,3,-1
 1108 1449 l 1,0,-1
1785 644 m 128,-1,5
 1758 660 1758 660 1721.5 660 c 128,-1,6
 1685 660 1685 660 1658 644 c 128,-1,7
 1631 628 1631 628 1613 592.5 c 128,-1,8
 1595 557 1595 557 1586 499.5 c 128,-1,9
 1577 442 1577 442 1577 358 c 128,-1,10
 1577 274 1577 274 1586 216 c 128,-1,11
 1595 158 1595 158 1613 122 c 0,12,13
 1647 55 1647 55 1722 55 c 0,14,15
 1832 55 1832 55 1857 216 c 0,16,17
 1866 274 1866 274 1866 358 c 128,-1,18
 1866 442 1866 442 1857 499.5 c 128,-1,19
 1848 557 1848 557 1830 592.5 c 128,-1,4
 1812 628 1812 628 1785 644 c 128,-1,5
2007 358 m 0,20,21
 2007 -34 2007 -34 1722 -34 c 128,-1,22
 1437 -34 1437 -34 1437 358 c 0,23,24
 1438 662 1438 662 1604 728 c 0,25,26
 1656 748 1656 748 1721.5 748.5 c 128,-1,27
 1787 749 1787 749 1840 728.5 c 128,-1,28
 1893 708 1893 708 1930 662 c 0,29,30
 2007 566 2007 566 2007 358 c 0,20,21
377 1332 m 128,-1,32
 340 1332 340 1332 313 1316 c 128,-1,33
 286 1300 286 1300 268 1264 c 0,34,35
 233 1194 233 1194 233 1070 c 128,-1,36
 233 946 233 946 241.5 888.5 c 128,-1,37
 250 831 250 831 268 795 c 128,-1,38
 286 759 286 759 313 743 c 128,-1,39
 340 727 340 727 377 727 c 128,-1,40
 414 727 414 727 441 743 c 128,-1,41
 468 759 468 759 486 795 c 0,42,43
 521 865 521 865 521 989 c 128,-1,44
 521 1113 521 1113 512.5 1170.5 c 128,-1,45
 504 1228 504 1228 486 1264 c 128,-1,46
 468 1300 468 1300 441 1316 c 128,-1,31
 414 1332 414 1332 377 1332 c 128,-1,32
377 638 m 0,47,48
 92 638 92 638 92 1029.5 c 128,-1,49
 92 1421 92 1421 377 1421 c 0,50,51
 661 1421 661 1421 661 1029 c 0,52,53
 662 725 662 725 496 659 c 0,54,55
 444 638 444 638 377 638 c 0,47,48
1088 660 m 128,-1,57
 1051 660 1051 660 1024 644 c 128,-1,58
 997 628 997 628 979 592.5 c 128,-1,59
 961 557 961 557 952.5 499.5 c 128,-1,60
 944 442 944 442 944 358 c 128,-1,61
 944 274 944 274 952.5 216 c 128,-1,62
 961 158 961 158 979 122.5 c 128,-1,63
 997 87 997 87 1024 71 c 128,-1,64
 1051 55 1051 55 1088 55 c 128,-1,65
 1125 55 1125 55 1152 71 c 128,-1,66
 1179 87 1179 87 1197 122.5 c 128,-1,67
 1215 158 1215 158 1223.5 216 c 128,-1,68
 1232 274 1232 274 1232 358 c 128,-1,69
 1232 442 1232 442 1223.5 499.5 c 128,-1,70
 1215 557 1215 557 1197 592.5 c 128,-1,71
 1179 628 1179 628 1152 644 c 128,-1,56
 1125 660 1125 660 1088 660 c 128,-1,57
1372 358 m 0,72,73
 1372 -34 1372 -34 1088 -34 c 0,74,75
 803 -34 803 -34 803 358 c 0,76,77
 804 662 804 662 970 728 c 0,78,79
 1022 748 1022 748 1087.5 748.5 c 128,-1,80
 1153 749 1153 749 1205.5 728.5 c 128,-1,81
 1258 708 1258 708 1295 662 c 0,82,83
 1372 566 1372 566 1372 358 c 0,72,73
EndSplineSet
EndChar

StartChar: guilsinglleft
Encoding: 8249 8249 325
Width: 679
GlyphClass: 2
Flags: W
LayerCount: 2
Fore
SplineSet
331 544 m 1,0,1
 524 140 524 140 533 114 c 1,2,3
 510 94 510 94 464 77 c 1,4,-1
 133 481 l 1,5,-1
 133 579 l 1,6,-1
 472 1015 l 1,7,8
 519 998 519 998 546 980 c 1,9,10
 538 955 538 955 517 914 c 128,-1,11
 496 873 496 873 473 826.5 c 128,-1,12
 450 780 450 780 415 711 c 128,-1,13
 380 642 380 642 331 544 c 1,0,1
EndSplineSet
EndChar

StartChar: guilsinglright
Encoding: 8250 8250 326
Width: 680
GlyphClass: 2
Flags: W
LayerCount: 2
Fore
SplineSet
349 550 m 1,0,1
 153 958 153 958 148 979 c 1,2,3
 174 1002 174 1002 216 1015 c 1,4,-1
 549 609 l 1,5,-1
 549 514 l 1,6,-1
 210 77 l 1,7,8
 164 91 164 91 135 114 c 1,9,10
 140 139 140 139 219.5 294.5 c 128,-1,11
 299 450 299 450 349 550 c 1,0,1
EndSplineSet
EndChar

StartChar: fraction
Encoding: 8260 8260 327
Width: 202
GlyphClass: 2
Flags: W
LayerCount: 2
Fore
SplineSet
497 1529 m 2,0,1
 557 1529 557 1529 571 1505 c 1,2,3
 547 1463 547 1463 519 1409 c 2,4,-1
 -234 -80 l 1,5,-1
 -299 -80 l 2,6,7
 -355 -80 -355 -80 -369 -54 c 1,8,9
 -350 -15 -350 -15 -316 40 c 1,10,-1
 436 1529 l 1,11,-1
 497 1529 l 2,0,1
EndSplineSet
EndChar

StartChar: foursuperior
Encoding: 8308 8308 328
Width: 1210
GlyphClass: 2
Flags: W
LayerCount: 2
Fore
SplineSet
659 896 m 1,0,-1
 659 1275 l 1,1,-1
 657 1304 l 1,2,-1
 382 916 l 1,3,-1
 371 896 l 1,4,-1
 659 896 l 1,0,-1
904 574 m 1,5,6
 820 586 820 586 725.5 586 c 128,-1,7
 631 586 631 586 533 574 c 1,8,-1
 533 657 l 1,9,-1
 587 657 l 2,10,11
 633 657 633 657 649 662 c 1,12,13
 659 689 659 689 659 736 c 2,14,-1
 659 819 l 1,15,-1
 279 819 l 1,16,17
 255 838 255 838 255 872 c 1,18,19
 260 886 260 886 315 964.5 c 128,-1,20
 370 1043 370 1043 439 1141.5 c 128,-1,21
 508 1240 508 1240 555 1305 c 0,22,23
 647 1433 647 1433 669 1456 c 1,24,-1
 723 1456 l 2,25,26
 759 1456 759 1456 769 1447 c 128,-1,27
 779 1438 779 1438 779 1410 c 2,28,-1
 779 896 l 1,29,-1
 949 896 l 1,30,-1
 949 863 l 2,31,32
 949 832 949 832 938 825.5 c 128,-1,33
 927 819 927 819 901 819 c 2,34,-1
 779 819 l 1,35,-1
 779 737 l 2,36,37
 779 687 779 687 788 662 c 1,38,39
 810 657 810 657 850 657 c 2,40,-1
 904 657 l 1,41,-1
 904 574 l 1,5,6
EndSplineSet
EndChar

StartChar: Euro
Encoding: 8364 8364 329
Width: 1420
GlyphClass: 2
Flags: W
LayerCount: 2
Fore
SplineSet
945 102 m 0,0,1
 1128 102 1128 102 1266 246 c 1,2,-1
 1360 201 l 1,3,4
 1239 -37 1239 -37 904 -37 c 0,5,6
 536 -36 536 -36 374 262 c 0,7,8
 318 364 318 364 296 506 c 1,9,-1
 84 506 l 1,10,-1
 101 576 l 2,11,12
 109 610 109 610 120 616 c 0,13,14
 135 625 135 625 168 625 c 2,15,-1
 282 625 l 1,16,17
 281 639 281 639 281 653 c 2,18,-1
 281 682 l 2,19,20
 281 730 281 730 284 777 c 1,21,-1
 108 777 l 1,22,-1
 123 847 l 2,23,24
 131 881 131 881 145 889 c 128,-1,25
 159 897 159 897 182 897 c 2,26,-1
 298 897 l 1,27,28
 342 1164 342 1164 501.5 1316 c 128,-1,29
 661 1468 661 1468 904 1468 c 0,30,31
 1134 1468 1134 1468 1268 1390 c 0,32,33
 1310 1366 1310 1366 1329 1336 c 1,34,35
 1329 1225 1329 1225 1331 1111 c 1,36,-1
 1207 1093 l 1,37,38
 1149 1213 1149 1213 1081 1269 c 0,39,40
 998 1337 998 1337 884 1337 c 0,41,42
 588 1337 588 1337 532 897 c 1,43,-1
 1106 897 l 1,44,-1
 1083 822 l 2,45,46
 1070 780 1070 780 991 778 c 0,47,48
 970 778 970 778 952 777 c 2,49,-1
 522 777 l 1,50,51
 522 665 522 665 527 625 c 1,52,-1
 1050 625 l 1,53,54
 1039 590 1039 590 1033 567 c 0,55,56
 1026 544 1026 544 1018 530 c 0,57,58
 1003 505 1003 505 953 505 c 0,59,60
 938 505 938 505 922 505 c 2,61,-1
 812 506 l 1,62,63
 679 506 679 506 545 506 c 1,64,65
 601 213 601 213 796 130 c 0,66,67
 862 102 862 102 945 102 c 0,0,1
EndSplineSet
EndChar

StartChar: trademark
Encoding: 8482 8482 330
Width: 2116
GlyphClass: 2
Flags: W
LayerCount: 2
Fore
SplineSet
1023 1261 m 1,0,1
 990 1344 990 1344 885 1348 c 1,2,-1
 885 1387 l 1,3,-1
 1143 1387 l 1,4,-1
 1470 729 l 1,5,-1
 1804 1387 l 1,6,-1
 2030 1387 l 1,7,-1
 2030 1348 l 1,8,9
 1962 1348 1962 1348 1941 1330 c 0,10,11
 1910 1302 1910 1302 1910 1249 c 2,12,-1
 1910 638 l 2,13,14
 1910 592 1910 592 1930 581 c 0,15,16
 1957 566 1957 566 2018 566 c 1,17,-1
 2018 527 l 1,18,-1
 1656 527 l 1,19,-1
 1656 566 l 1,20,21
 1713 566 1713 566 1730 576 c 0,22,23
 1762 594 1762 594 1762 638 c 2,24,-1
 1762 1170 l 1,25,-1
 1758 1170 l 1,26,-1
 1433 527 l 1,27,-1
 1408 527 l 1,28,-1
 1092 1170 l 1,29,-1
 1088 1170 l 1,30,-1
 1088 638 l 2,31,32
 1088 574 1088 574 1154 568 c 0,33,34
 1174 566 1174 566 1199 566 c 1,35,-1
 1199 527 l 1,36,-1
 913 527 l 1,37,-1
 913 566 l 1,38,39
 996 566 996 566 1015 599 c 0,40,41
 1023 613 1023 613 1023 638 c 2,42,-1
 1023 1261 l 1,0,1
213 1336 m 2,43,44
 99 1336 99 1336 94 1200 c 1,45,-1
 55 1200 l 1,46,-1
 55 1387 l 1,47,-1
 792 1387 l 1,48,-1
 792 1200 l 1,49,-1
 754 1200 l 1,50,51
 752 1259 752 1259 723 1297.5 c 128,-1,52
 694 1336 694 1336 635 1336 c 2,53,-1
 498 1336 l 1,54,-1
 498 638 l 2,55,56
 498 575 498 575 562 568 c 0,57,58
 582 566 582 566 605 566 c 1,59,-1
 605 527 l 1,60,-1
 243 527 l 1,61,-1
 243 566 l 1,62,63
 298 566 298 566 315 576 c 0,64,65
 349 594 349 594 349 638 c 2,66,-1
 349 1336 l 1,67,-1
 213 1336 l 2,43,44
EndSplineSet
EndChar

StartChar: Omega
Encoding: 8486 8486 331
Width: 1558
GlyphClass: 2
Flags: W
LayerCount: 2
Fore
SplineSet
1427 0 m 1,0,-1
 927 0 l 1,1,-1
 912 40 l 1,2,3
 946 101 946 101 993.5 179.5 c 0,4,5
 1040 258 1040 258 1084 350 c 0,6,7
 1188 572 1188 572 1188.5 750.5 c 128,-1,8
 1189 929 1189 929 1154 1043 c 0,9,10
 1119 1158 1119 1158 1061 1228 c 0,11,12
 952 1360 952 1360 775 1360 c 0,13,14
 490 1360 490 1360 400 1039 c 0,15,16
 368 924 368 924 368 792 c 128,-1,17
 368 660 368 660 391 568 c 128,-1,18
 414 476 414 476 452 388 c 0,19,20
 502 271 502 271 640 40 c 1,21,-1
 623 0 l 1,22,-1
 128 0 l 1,23,-1
 79 294 l 1,24,-1
 129 296 l 1,25,26
 162 199 162 199 188 175 c 128,-1,27
 214 151 214 151 236.5 145.5 c 128,-1,28
 259 140 259 140 290 140 c 2,29,-1
 514 140 l 1,30,31
 304 313 304 313 223 489 c 0,32,33
 162 622 162 622 162 772 c 128,-1,34
 162 922 162 922 209.5 1042 c 0,35,36
 256 1162 256 1162 340 1247 c 0,37,38
 513 1423 513 1423 783 1423 c 0,39,40
 1054 1422 1054 1422 1222 1254 c 0,41,42
 1394 1082 1394 1082 1395 792 c 0,43,44
 1396 514 1396 514 1158 264 c 0,45,46
 1094 196 1094 196 1033 140 c 1,47,-1
 1267 140 l 2,48,49
 1334 140 1334 140 1357 162 c 0,50,51
 1392 195 1392 195 1427 296 c 1,52,-1
 1480 294 l 1,53,-1
 1427 0 l 1,0,-1
EndSplineSet
EndChar

StartChar: partialdiff
Encoding: 8706 8706 333
Width: 1071
GlyphClass: 2
Flags: W
LayerCount: 2
Fore
SplineSet
654 778 m 0,0,1
 617 794 617 794 562 794 c 0,2,3
 435 794 435 794 342 674 c 1,4,5
 249 534 249 534 249 300 c 0,6,7
 250 185 250 185 304 111 c 0,8,9
 361 34 361 34 455 34 c 0,10,11
 593 34 593 34 697 247 c 1,12,13
 757 373 757 373 784 527 c 0,14,15
 793 579 793 579 802 642 c 1,16,17
 759 733 759 733 654 778 c 0,0,1
504 1466 m 0,18,19
 365 1466 365 1466 212 1345 c 1,20,21
 176 1346 176 1346 152 1412 c 0,22,23
 146 1430 146 1430 145.5 1448.5 c 128,-1,24
 145 1467 145 1467 149 1474 c 1,25,26
 284 1559 284 1559 447 1559 c 0,27,28
 727 1559 727 1559 880 1270 c 0,29,30
 985 1070 985 1070 985 798 c 0,31,32
 986 488 986 488 866 250 c 0,33,34
 779 76 779 76 629 6 c 0,35,36
 552 -30 552 -30 460 -30 c 128,-1,37
 368 -30 368 -30 297 -1.5 c 0,38,39
 226 26 226 26 176 80 c 0,40,41
 70 192 70 192 70 383 c 0,42,43
 70 581 70 581 193 723 c 0,44,45
 252 790 252 790 339 832.5 c 128,-1,46
 426 875 426 875 529 875 c 0,47,48
 658 875 658 875 758 794 c 0,49,50
 792 766 792 766 818 727 c 1,51,52
 835 911 835 911 835 973 c 0,53,54
 835 1133 835 1133 778 1268 c 0,55,56
 746 1346 746 1346 672 1403 c 0,57,58
 591 1466 591 1466 504 1466 c 0,18,19
EndSplineSet
EndChar

StartChar: Delta
Encoding: 8710 8710 334
Width: 1311
GlyphClass: 2
Flags: W
LayerCount: 2
Fore
SplineSet
597 1170 m 1,0,-1
 174 96 l 1,1,-1
 1025 96 l 1,2,-1
 597 1170 l 1,0,-1
63 0 m 1,3,-1
 63 51 l 1,4,-1
 607 1400 l 1,5,-1
 690 1421 l 1,6,-1
 1248 51 l 1,7,-1
 1248 0 l 1,8,-1
 63 0 l 1,3,-1
EndSplineSet
EndChar

StartChar: product
Encoding: 8719 8719 335
Width: 1481
GlyphClass: 2
Flags: W
LayerCount: 2
Fore
SplineSet
1403 1355 m 1,0,1
 1270 1345 1270 1345 1245.5 1326.5 c 128,-1,2
 1221 1308 1221 1308 1216.5 1282 c 128,-1,3
 1212 1256 1212 1256 1212 1212 c 2,4,-1
 1212 42 l 2,5,6
 1212 -8 1212 -8 1217 -38 c 128,-1,7
 1222 -68 1222 -68 1241 -85 c 0,8,9
 1271 -112 1271 -112 1399 -122 c 1,10,-1
 1399 -174 l 1,11,-1
 859 -174 l 1,12,-1
 859 -122 l 1,13,14
 982 -112 982 -112 1004.5 -92 c 128,-1,15
 1027 -72 1027 -72 1031.5 -42 c 128,-1,16
 1036 -12 1036 -12 1036 40 c 2,17,-1
 1036 1272 l 2,18,19
 1036 1316 1036 1316 1024 1326 c 0,20,21
 1008 1340 1008 1340 961 1340 c 2,22,-1
 518 1340 l 2,23,24
 475 1340 475 1340 465 1332 c 0,25,26
 451 1320 451 1320 451 1281 c 2,27,-1
 451 40 l 2,28,29
 451 -8 451 -8 453.5 -37.5 c 0,30,31
 456 -68 456 -68 471 -84 c 0,32,33
 496 -111 496 -111 609 -122 c 1,34,-1
 609 -174 l 1,35,-1
 84 -174 l 1,36,-1
 84 -122 l 1,37,38
 210 -112 210 -112 235 -90.5 c 128,-1,39
 260 -69 260 -69 265 -39.5 c 128,-1,40
 270 -10 270 -10 270 40 c 2,41,-1
 270 1212 l 2,42,43
 270 1257 270 1257 265.5 1283 c 0,44,45
 261 1310 261 1310 242 1324 c 0,46,47
 214 1346 214 1346 78 1355 c 1,48,-1
 78 1408 l 1,49,-1
 1403 1408 l 1,50,-1
 1403 1355 l 1,0,1
EndSplineSet
EndChar

StartChar: summation
Encoding: 8721 8721 336
Width: 1224
GlyphClass: 2
Flags: W
LayerCount: 2
Fore
SplineSet
1047 -180 m 1,0,-1
 80 -180 l 1,1,-1
 80 -132 l 1,2,-1
 551 572 l 1,3,-1
 94 1357 l 1,4,-1
 94 1408 l 1,5,-1
 1047 1408 l 1,6,7
 1050 1359 l 2,8,9
 1052 1324 1052 1324 1056 1278 c 0,10,11
 1064 1155 1064 1155 1072 1074 c 1,12,-1
 1016 1061 l 1,13,14
 978 1254 978 1254 922 1308 c 0,15,16
 896 1333 896 1333 841.5 1338 c 128,-1,17
 787 1343 787 1343 729 1343 c 2,18,-1
 319 1343 l 1,19,-1
 707 685 l 1,20,-1
 240 -28 l 1,21,-1
 789 -28 l 2,22,23
 856 -28 856 -28 898 -22.5 c 128,-1,24
 940 -17 940 -17 969.5 7.5 c 128,-1,25
 999 32 999 32 1023.5 82.5 c 128,-1,26
 1048 133 1048 133 1081 223 c 1,27,-1
 1138 207 l 1,28,-1
 1047 -180 l 1,0,-1
EndSplineSet
EndChar

StartChar: minus
Encoding: 8722 8722 337
Width: 1308
GlyphClass: 2
Flags: W
LayerCount: 2
Fore
SplineSet
1150 567 m 2,0,1
 1150 505 1150 505 1103 490 c 1,2,-1
 158 490 l 1,3,-1
 158 558 l 2,4,5
 158 606 158 606 170 618 c 0,6,7
 188 635 188 635 237 635 c 2,8,-1
 1150 635 l 1,9,-1
 1150 567 l 2,0,1
EndSplineSet
EndChar

StartChar: uni2215
Encoding: 8725 8725 338
Width: 1078
GlyphClass: 2
Flags: W
LayerCount: 2
Fore
SplineSet
955 1478 m 1,0,-1
 1078 1478 l 1,1,-1
 124 -91 l 1,2,-1
 0 -91 l 1,3,-1
 955 1478 l 1,0,-1
EndSplineSet
EndChar

StartChar: uni2219
Encoding: 8729 8729 339
Width: 627
GlyphClass: 2
Flags: W
LayerCount: 2
Fore
SplineSet
368.5 487 m 128,-1,1
 346 476 346 476 315.5 475.5 c 128,-1,2
 285 475 285 475 262 485.5 c 128,-1,3
 239 496 239 496 224 513 c 128,-1,4
 209 530 209 530 201.5 552 c 128,-1,5
 194 574 194 574 194 597 c 128,-1,6
 194 620 194 620 201.5 642.5 c 128,-1,7
 209 665 209 665 224 682.5 c 128,-1,8
 239 700 239 700 261.5 711 c 128,-1,9
 284 722 284 722 314 722 c 128,-1,10
 344 722 344 722 366.5 711 c 128,-1,11
 389 700 389 700 404 682 c 0,12,13
 435 646 435 646 435 610 c 128,-1,14
 435 574 435 574 428 552.5 c 128,-1,15
 421 531 421 531 406 514.5 c 128,-1,0
 391 498 391 498 368.5 487 c 128,-1,1
EndSplineSet
EndChar

StartChar: radical
Encoding: 8730 8730 340
Width: 1071
GlyphClass: 2
Flags: W
LayerCount: 2
Fore
SplineSet
770 -298 m 1,0,-1
 727 -321 l 1,1,-1
 270 800 l 1,2,-1
 89 710 l 1,3,-1
 66 779 l 1,4,-1
 392 932 l 1,5,-1
 745 32 l 1,6,-1
 749 32 l 1,7,-1
 1036 1821 l 1,8,-1
 1117 1802 l 1,9,-1
 770 -298 l 1,0,-1
EndSplineSet
EndChar

StartChar: infinity
Encoding: 8734 8734 341
Width: 1511
GlyphClass: 2
Flags: W
LayerCount: 2
Fore
SplineSet
1205.5 777 m 128,-1,1
 1169 792 1169 792 1123 792 c 128,-1,2
 1077 792 1077 792 1033.5 769 c 128,-1,3
 990 746 990 746 952 713 c 128,-1,4
 914 680 914 680 882 643 c 128,-1,5
 850 606 850 606 824 578 c 1,6,7
 927 458 927 458 975 422 c 0,8,9
 1058 360 1058 360 1118 360 c 128,-1,10
 1178 360 1178 360 1213.5 379 c 0,11,12
 1250 398 1250 398 1274 428 c 0,13,14
 1324 491 1324 491 1324 557 c 128,-1,15
 1324 623 1324 623 1309.5 664 c 128,-1,16
 1295 705 1295 705 1268.5 733.5 c 128,-1,0
 1242 762 1242 762 1205.5 777 c 128,-1,1
395 360 m 0,17,18
 439 360 439 360 477 376.5 c 128,-1,19
 515 393 515 393 549 419 c 0,20,21
 598 457 598 457 672 541 c 2,22,-1
 696 568 l 1,23,24
 649 627 649 627 619.5 662 c 0,25,26
 590 696 590 696 554 726 c 0,27,28
 474 792 474 792 385 792 c 0,29,30
 295 792 295 792 241 727 c 0,31,32
 190 666 190 666 190 570 c 0,33,34
 190 482 190 482 248 422 c 0,35,36
 308 360 308 360 395 360 c 0,17,18
1439 578 m 0,37,38
 1439 504 1439 504 1413 442.5 c 0,39,40
 1388 381 1388 381 1344 338 c 0,41,42
 1254 249 1254 249 1126 249 c 0,43,44
 991 250 991 250 858 378 c 0,45,46
 812 422 812 422 760 485 c 1,47,48
 660 370 660 370 603.5 329 c 128,-1,49
 547 288 547 288 495 268.5 c 128,-1,50
 443 249 443 249 381 249 c 128,-1,51
 319 249 319 249 263 273 c 128,-1,52
 207 297 207 297 164.5 340 c 128,-1,53
 122 383 122 383 97 442 c 128,-1,54
 72 501 72 501 72 572 c 128,-1,55
 72 643 72 643 96.5 703 c 0,56,57
 120 763 120 763 164 807 c 0,58,59
 256 900 256 900 397 900 c 0,60,61
 546 900 546 900 684 756 c 0,62,63
 726 713 726 713 766 665 c 1,64,-1
 786 687 l 2,65,66
 879 790 879 790 929 826 c 0,67,68
 1032 900 1032 900 1139 900 c 0,69,70
 1269 900 1269 900 1354 811 c 128,-1,71
 1439 722 1439 722 1439 578 c 0,37,38
EndSplineSet
EndChar

StartChar: integral
Encoding: 8747 8747 342
Width: 824
GlyphClass: 2
Flags: W
LayerCount: 2
Fore
SplineSet
528 337 m 0,0,1
 528 -406 528 -406 218 -406 c 0,2,3
 141 -406 141 -406 103 -384 c 0,4,5
 41 -348 41 -348 41 -309 c 0,6,7
 41 -269 41 -269 63 -248 c 0,8,9
 101 -213 101 -213 133.5 -213 c 128,-1,10
 166 -213 166 -213 178.5 -229 c 128,-1,11
 191 -245 191 -245 200.5 -264 c 128,-1,12
 210 -283 210 -283 219.5 -299 c 128,-1,13
 229 -315 229 -315 248.5 -315 c 128,-1,14
 268 -315 268 -315 284 -296 c 128,-1,15
 300 -277 300 -277 311 -242 c 128,-1,16
 322 -207 322 -207 327.5 -157.5 c 128,-1,17
 333 -108 333 -108 333 -47 c 128,-1,18
 333 14 333 14 329.5 101 c 128,-1,19
 326 188 326 188 321 288.5 c 128,-1,20
 316 389 316 389 310 495.5 c 128,-1,21
 304 602 304 602 299 702 c 0,22,23
 287 941 287 941 287 1056 c 128,-1,24
 287 1171 287 1171 300 1276 c 128,-1,25
 313 1381 313 1381 335.5 1457.5 c 128,-1,26
 358 1534 358 1534 389.5 1584 c 0,27,28
 422 1634 422 1634 458 1664 c 0,29,30
 525 1719 525 1719 616 1719 c 0,31,32
 708 1720 708 1720 756 1666 c 0,33,34
 772 1648 772 1648 771.5 1613.5 c 128,-1,35
 771 1579 771 1579 743.5 1557 c 128,-1,36
 716 1535 716 1535 686 1535 c 128,-1,37
 656 1535 656 1535 642.5 1550 c 128,-1,38
 629 1565 629 1565 619 1583.5 c 128,-1,39
 609 1602 609 1602 599 1617 c 128,-1,40
 589 1632 589 1632 571 1632 c 0,41,42
 484 1632 484 1632 484 1350 c 0,43,44
 484 1234 484 1234 498 1058 c 128,-1,45
 512 882 512 882 516 790 c 0,46,47
 528 555 528 555 528 337 c 0,0,1
EndSplineSet
EndChar

StartChar: approxequal
Encoding: 8776 8776 343
Width: 1189
GlyphClass: 2
Flags: W
LayerCount: 2
Fore
SplineSet
1074 460 m 1,0,1
 965 266 965 266 806 266 c 0,2,3
 709 266 709 266 571 347 c 0,4,5
 548 360 548 360 526 372.5 c 0,6,7
 504 384 504 384 482 394 c 0,8,9
 435 414 435 414 394.5 414.5 c 128,-1,10
 354 415 354 415 325.5 402.5 c 128,-1,11
 297 390 297 390 273 370 c 0,12,13
 236 339 236 339 189 266 c 1,14,-1
 113 331 l 1,15,16
 182 469 182 469 315 513 c 0,17,18
 357 527 357 527 395.5 527 c 128,-1,19
 434 527 434 527 463 520.5 c 128,-1,20
 492 514 492 514 517.5 504.5 c 128,-1,21
 543 495 543 495 564.5 483 c 128,-1,22
 586 471 586 471 612.5 455.5 c 128,-1,23
 639 440 639 440 666 425 c 128,-1,24
 693 410 693 410 716 400 c 0,25,26
 764 379 764 379 801.5 379 c 128,-1,27
 839 379 839 379 864.5 389 c 0,28,29
 890 400 890 400 912 418 c 0,30,31
 951 450 951 450 999 527 c 1,32,-1
 1074 460 l 1,0,1
1074 812 m 1,33,34
 965 617 965 617 806 617 c 0,35,36
 724 617 724 617 636 665 c 0,37,38
 606 681 606 681 566 704.5 c 128,-1,39
 526 728 526 728 483.5 747.5 c 128,-1,40
 441 767 441 767 397.5 767 c 128,-1,41
 354 767 354 767 326 755 c 128,-1,42
 298 743 298 743 274 723 c 0,43,44
 240 694 240 694 189 621 c 1,45,-1
 113 685 l 1,46,47
 182 824 182 824 314 867 c 0,48,49
 356 881 356 881 397 881 c 128,-1,50
 438 881 438 881 469.5 873 c 128,-1,51
 501 865 501 865 527.5 853 c 128,-1,52
 554 841 554 841 577.5 827 c 128,-1,53
 601 813 601 813 625.5 800 c 128,-1,54
 650 787 650 787 673 774 c 128,-1,55
 696 761 696 761 718 752 c 0,56,57
 766 732 766 732 817 732 c 0,58,59
 912 732 912 732 999 881 c 1,60,-1
 1074 812 l 1,33,34
EndSplineSet
EndChar

StartChar: notequal
Encoding: 8800 8800 344
Width: 1252
GlyphClass: 2
Flags: W
LayerCount: 2
Fore
SplineSet
1119 365 m 2,0,1
 1119 304 1119 304 1074 290 c 1,2,-1
 593 290 l 1,3,-1
 496 61 l 1,4,-1
 427 61 l 2,5,6
 366 61 366 61 349 90 c 1,7,8
 357 111 357 111 365 132.5 c 128,-1,9
 373 154 373 154 383 177 c 2,10,-1
 431 290 l 1,11,-1
 133 290 l 1,12,-1
 133 354 l 2,13,14
 132 401 132 401 144 412 c 0,15,16
 161 428 161 428 210 428 c 2,17,-1
 490 428 l 1,18,-1
 596 677 l 1,19,-1
 133 677 l 1,20,-1
 133 743 l 2,21,22
 134 812 134 812 188 815 c 0,23,24
 206 816 206 816 227 816 c 2,25,-1
 655 816 l 1,26,-1
 751 1040 l 1,27,-1
 819 1040 l 2,28,29
 883 1040 883 1040 898 1014 c 1,30,31
 890 992 890 992 882 969.5 c 128,-1,32
 874 947 874 947 864 924 c 2,33,-1
 818 816 l 1,34,-1
 1119 816 l 1,35,-1
 1119 752 l 2,36,37
 1119 693 1119 693 1074 677 c 1,38,-1
 758 677 l 1,39,-1
 652 428 l 1,40,-1
 1119 428 l 1,41,-1
 1119 365 l 2,0,1
EndSplineSet
EndChar

StartChar: lessequal
Encoding: 8804 8804 345
Width: 1198
GlyphClass: 2
Flags: W
LayerCount: 2
Fore
SplineSet
133 2 m 1,0,-1
 133 122 l 1,1,-1
 1065 122 l 1,2,-1
 1065 2 l 1,3,-1
 133 2 l 1,0,-1
145 652 m 1,4,-1
 145 774 l 1,5,-1
 1058 1224 l 1,6,-1
 1058 1088 l 1,7,-1
 265 716 l 1,8,-1
 265 712 l 1,9,-1
 1058 336 l 1,10,-1
 1058 201 l 1,11,-1
 145 652 l 1,4,-1
EndSplineSet
EndChar

StartChar: greaterequal
Encoding: 8805 8805 346
Width: 1191
GlyphClass: 2
Flags: W
LayerCount: 2
Fore
SplineSet
133 2 m 1,0,-1
 143 122 l 1,1,-1
 1058 122 l 1,2,-1
 1058 2 l 1,3,-1
 133 2 l 1,0,-1
1058 774 m 1,4,-1
 1058 652 l 1,5,-1
 145 201 l 1,6,-1
 145 336 l 1,7,-1
 935 710 l 1,8,-1
 935 714 l 1,9,-1
 143 1088 l 1,10,-1
 143 1224 l 1,11,-1
 1058 774 l 1,4,-1
EndSplineSet
EndChar

StartChar: lozenge
Encoding: 9674 9674 347
Width: 1087
GlyphClass: 2
Flags: W
LayerCount: 2
Fore
SplineSet
550 1379 m 1,0,-1
 541 1379 l 1,1,-1
 192 678 l 1,2,-1
 544 -24 l 1,3,-1
 548 -24 l 1,4,-1
 895 676 l 1,5,-1
 550 1379 l 1,0,-1
612 -144 m 1,6,-1
 476 -144 l 1,7,-1
 61 676 l 1,8,-1
 478 1504 l 1,9,-1
 612 1504 l 1,10,-1
 1026 676 l 1,11,-1
 612 -144 l 1,6,-1
EndSplineSet
EndChar

StartChar: fi
Encoding: 64257 64257 348
Width: 1433
GlyphClass: 2
Flags: W
LayerCount: 2
Fore
SplineSet
1022.5 1509 m 128,-1,1
 984 1471 984 1471 984 1424 c 128,-1,2
 984 1377 984 1377 994 1351.5 c 128,-1,3
 1004 1326 1004 1326 1022.5 1307.5 c 128,-1,4
 1041 1289 1041 1289 1066 1279 c 128,-1,5
 1091 1269 1091 1269 1121 1269 c 128,-1,6
 1151 1269 1151 1269 1176 1279 c 0,7,8
 1201 1290 1201 1290 1219 1308 c 0,9,10
 1258 1348 1258 1348 1258 1393.5 c 128,-1,11
 1258 1439 1258 1439 1247.5 1465 c 128,-1,12
 1237 1491 1237 1491 1219 1509 c 0,13,14
 1181 1547 1181 1547 1121 1547 c 128,-1,0
 1061 1547 1061 1547 1022.5 1509 c 128,-1,1
832 1288 m 1,15,16
 786 1452 786 1452 673 1452 c 0,17,18
 578 1452 578 1452 538 1392 c 0,19,20
 496 1328 496 1328 495 1170 c 2,21,-1
 495 1032 l 1,22,-1
 826 1032 l 2,23,24
 916 1032 916 1032 981 1039 c 0,25,26
 1101 1052 1101 1052 1155 1052 c 128,-1,27
 1209 1052 1209 1052 1229 1032 c 1,28,-1
 1229 269 l 2,29,30
 1229 174 1229 174 1246 101 c 1,31,-1
 1390 101 l 1,32,-1
 1400 11 l 1,33,34
 1304 -13 1304 -13 1135 -13 c 0,35,36
 1009 -13 1009 -13 1009 73 c 1,37,-1
 1016 281 l 1,38,-1
 1016 831 l 2,39,40
 1016 882 1016 882 1009 912 c 1,41,-1
 495 912 l 1,42,-1
 495 238 l 2,43,44
 495 194 495 194 497.5 165 c 128,-1,45
 500 136 500 136 516 118 c 0,46,47
 544 85 544 85 657 71 c 1,48,-1
 665 -13 l 1,49,50
 360 10 360 10 134 -13 c 1,51,-1
 134 71 l 1,52,53
 237 82 237 82 256.5 101.5 c 128,-1,54
 276 121 276 121 278.5 143.5 c 128,-1,55
 281 166 281 166 281 200 c 2,56,-1
 281 912 l 1,57,-1
 55 912 l 1,58,-1
 55 987 l 1,59,60
 79 1032 79 1032 162 1032 c 2,61,-1
 281 1032 l 1,62,-1
 281 1124 l 2,63,64
 281 1462 281 1462 533 1540 c 0,65,66
 612 1564 612 1564 725 1564 c 128,-1,67
 838 1564 838 1564 929 1512 c 1,68,-1
 929 1288 l 1,69,-1
 832 1288 l 1,15,16
EndSplineSet
EndChar

